{
.appVersion = "3436";
.formatVersion = 3;
DisplayStrings = (
"AT AV AW AY Av Aw Ay 

Fa Fe Fo Kv Kw Ky LO 

LV LY PA Pa Pe Po TA 

Ta Te Ti To Tr Ts Tu Ty 

UA VA Va Ve Vo Vr Vu Vy 

WA WO Wa We Wr Wv Wy "
);
classes = (
{
automatic = 1;
code = "A Aacute Abreve Acircumflex Adieresis Agrave Amacron Aogonek Aring Atilde AE B C Cacute Ccaron Ccedilla Cdotaccent D Dcaron Dcroat Eth E Eacute Ecaron Ecircumflex Edieresis Edotaccent Egrave Emacron Eogonek Schwa F G Gbreve Gcommaaccent Gdotaccent H Hbar I IJ Iacute Icircumflex Idieresis Idotaccent Igrave Imacron Iogonek J Jacute K Kcommaaccent L Lacute Lcaron Lcommaaccent Lslash M N Nacute Ncaron Ncommaaccent Ntilde O Oacute Ocircumflex Odieresis Ograve Ohungarumlaut Omacron Oslash Otilde OE P Thorn Q R Racute Rcaron Rcommaaccent S Sacute Scaron Scedilla Scommaaccent Germandbls T Tcaron Tcedilla Tcommaaccent U Uacute Ucircumflex Udieresis Ugrave Uhungarumlaut Umacron Uogonek Uring V W Wacute Wcircumflex Wdieresis Wgrave X Y Yacute Ycircumflex Ydieresis Ygrave Z Zacute Zcaron Zdotaccent E.alt F.alt L.alt M.alt R.alt T.alt Z.alt A-cy Be-cy Ve-cy Ge-cy Geupturn-cy De-cy Ie-cy Zhe-cy Ze-cy Ii-cy Iishort-cy Ka-cy El-cy Em-cy En-cy O-cy Pe-cy Er-cy Es-cy Te-cy U-cy Ef-cy Ha-cy Tse-cy Che-cy Sha-cy Shcha-cy Softsign-cy E-cy I-cy Yi-cy Yu-cy Ya-cy Omega";
name = Uppercase;
}
);
customParameters = (
{
name = fsType;
value = (
);
}
);
date = "2026-05-06 23:03:59 +0000";
familyName = "Te Ara";
featurePrefixes = (
{
automatic = 1;
code = "languagesystem DFLT dflt;

languagesystem latn dflt;
languagesystem latn AZE;
languagesystem latn CRT;
languagesystem latn KAZ;
languagesystem latn TAT;
languagesystem latn TRK;
languagesystem latn ROM;
languagesystem latn MOL;
languagesystem latn CAT;
languagesystem latn NLD;
";
name = Languagesystems;
}
);
features = (
{
automatic = 1;
code = "feature locl;
feature sups;
feature numr;
feature dnom;
feature frac;
feature ordn;
feature case;
";
tag = aalt;
},
{
automatic = 1;

glyphs = (
{
glyphname = A;
lastChange = "2026-05-26 00:42:19 +0000";
layers = (
{
anchors = (
{
name = bottom;
pos = (341,0);
},
{
name = ogonek;
pos = (613,10);
},
{
name = top;
pos = (341,700);
}
);
guides = (
{
angle = 66.8014;
pos = (212,343);
}
);
layerId = m01;
shapes = (
{
closed = 1;
nodes = (
(359,224,l),
(263,462,l),
(161,224,l)
);
},
{
closed = 1;
nodes = (
(116,116,o),
(137,110,o),
(171,104,cs),
(302,83,l),
(281,0,l),
(40,0,l),
(342,718,l),
(641,1,l),
(448,1,l),
(368,199,l),
(150,199,l),
(126,141,ls)
);
}
);
width = 681;
}
);
unicode = 65;
},
{
glyphname = AE;
lastChange = "2026-05-26 23:38:11 +0000";
layers = (
{
anchors = (
{
name = bottom;
pos = (475,0);
},
{
name = top;
pos = (475,700);
}
);
guides = (
{
angle = 60.2838;
pos = (325,440);
}
);
layerId = m01;
shapes = (
{
closed = 1;
nodes = (
(446,652,l),
(447,224,l),
(202,224,l)
);
},
{
closed = 1;
nodes = (
(890,173,l),
(823,62,o),
(760,33,o),
(632,32,c),
(632,337,l),
(747,337,o),
(785,330,o),
(830,260,c),
(837,260,l),
(837,441,l),
(829,441,l),
(783,378,o),
(745,373,o),
(632,373,c),
(631,670,l),
(743,670,o),
(836,626,o),
(891,532,c),
(899,532,l),
(899,700,l),
(446,699,l),
(40,0,l),
(281,0,l),
(302,83,l),
(210,104,ls),
(176,112,o),
(141,118,o),
(155,142,cs),
(188,199,l),
(447,199,l),
(448,0,l),
(899,0,l),
(899,173,l)
);
}
);
width = 949;
}
);
unicode = 198;
},
{
glyphname = B;
lastChange = "2026-05-27 23:31:42 +0000";
layers = (
{
anchors = (
{
name = bottom;
pos = (371,0);
},
{
name = center;
pos = (207,210);
},
{
name = top;
pos = (371,700);
}
);
layerId = m01;
shapes = (
{
closed = 1;
nodes = (
(392,357,ls),
(536,363,o),
(626,432,o),
(626,530,cs),
(626,637,o),
(521,700,o),
(359,700,cs),
(220,700,l),
(220,672,l),
(315,670,ls),
(395,668,o),
(444,611,o),
(444,530,cs),
(444,442,o),
(395,382,o),
(315,380,cs),
(220,378,l),
(220,350,l)
);
},
{
closed = 1;
nodes = (
(277,0,l),
(277,700,l),
(92,700,l),
(92,0,l)
);
},
{
closed = 1;
nodes = (
(390,0,ls),
(564,0,o),
(660,72,o),
(660,193,cs),
(660,308,o),
(549,375,o),
(420,376,cs),
(220,378,l),
(220,347,l),
(316,346,ls),
(423,345,o),
(472,287,o),
(472,193,cs),
(472,92,o),
(416,33,o),
(322,30,cs),
(248,28,l),
(248,0,l)
);
},
{
closed = 1;
nodes = (
(276,631,l),
(276,700,l),
(50,700,l),
(50,685,l),
(92,669,l),
(92,631,l)
);
}
);
width = 700;
}
);
unicode = 66;
},
{
glyphname = C;
lastChange = "2026-05-27 02:29:08 +0000";
layers = (
{
anchors = (
{
name = bottom;
pos = (329,0);
},
{
name = top;
pos = (329,700);
}
);
layerId = m01;
shapes = (
{
closed = 1;
nodes = (
(585,438,l),
(609,644,l),
(518,694,o),
(451,710,o),
(361,705,cs),
(171,694,o),
(40,548,o),
(40,349,cs),
(40,147,o),
(165,-9,o),
(367,-9,cs),
(467,-9,o),
(553,17,o),
(605,58,c),
(617,221,l),
(597,221,l),
(565,73,o),
(461,22,o),
(395,22,cs),
(285,22,o),
(235,161,o),
(235,346,cs),
(235,527,o),
(272,673,o),
(380,673,cs),
(432,673,o),
(523,632,o),
(565,438,c)
);
}
);
width = 657;
}
);
unicode = 67;
},
{
glyphname = D;
lastChange = "2026-05-28 00:30:18 +0000";
layers = (
{
anchors = (
{
name = bottom;
pos = (381,0);
},
{
name = center;
pos = (183,350);
},
{
name = top;
pos = (361,700);
}
);
layerId = m01;
shapes = (
{
closed = 1;
nodes = (
(680,661,o),
(496,700,o),
(361,700,cs),
(91,700,l),
(91,0,l),
(361,0,ls),
(496,0,o),
(680,39,o),
(680,350,cs)
);
},
{
closed = 1;
nodes = (
(276,672,l),
(329,672,ls),
(404,672,o),
(496,614,o),
(496,350,cs),
(496,86,o),
(404,28,o),
(329,28,cs),
(276,28,l)
);
},
{
closed = 1;
nodes = (
(276,631,l),
(276,700,l),
(50,700,l),
(50,685,l),
(92,669,l),
(92,631,l)
);
}
);
width = 720;
}
);
unicode = 68;
},
{
glyphname = E;
lastChange = "2026-05-28 01:29:47 +0000";
layers = (
{
anchors = (
{
name = bottom;
pos = (272,0);
},
{
name = ogonek;
pos = (489,10);
},
{
name = top;
pos = (272,700);
},
{
name = topleft;
pos = (20,700);
}
);
layerId = m01;
shapes = (
{
closed = 1;
nodes = (
(433,441,l),
(387,378,o),
(350,373,o),
(236,373,c),
(235,670,l),
(347,670,o),
(440,626,o),
(495,531,c),
(503,531,l),
(503,700,l),
(50,699,l),
(52,0,l),
(503,0,l),
(503,173,l),
(494,173,l),
(427,62,o),
(364,33,o),
(236,32,c),
(236,337,l),
(351,337,o),
(389,330,o),
(434,260,c),
(441,260,l),
(441,441,l)
);
},
{
closed = 1;
nodes = (
(234,630,l),
(234,699,l),
(8,699,l),
(8,684,l),
(50,668,l),
(50,630,l)
);
}
);
width = 543;
}
);
unicode = 69;
},
{
glyphname = Schwa;
lastChange = "2026-06-02 00:22:48 +0000";
layers = (
{
layerId = m01;
shapes = (
{
closed = 1;
nodes = (
(525,-11,o),
(657,104,o),
(657,340,cs),
(657,587,o),
(525,711,o),
(347,711,cs),
(139,711,o),
(38,549,o),
(40,453,c),
(238,453,l),
(251,522,l),
(117,545,l),
(153,577,o),
(195,593,o),
(245,593,cs),
(370,593,o),
(468,522,o),
(468,348,c),
(40,348,l),
(40,127,o),
(154,-11,o),
(346,-11,cs)
);
},
{
closed = 1;
nodes = (
(281,15,o),
(218,103,o),
(218,278,c),
(468,278,l),
(468,103,o),
(420,15,o),
(347,15,cs)
);
}
);
width = 697;
}
);
unicode = 399;
},
{
glyphname = F;
lastChange = "2026-05-28 01:30:09 +0000";
layers = (
{
anchors = (
{
name = bottom;
pos = (272,0);
},
{
name = top;
pos = (272,700);
}
);
layerId = m01;
shapes = (
{
closed = 1;
nodes = (
(441,260,l),
(441,440,l),
(434,440,l),
(387,378,o),
(349,373,o),
(236,373,c),
(235,670,l),
(347,670,o),
(440,627,o),
(495,532,c),
(503,532,l),
(503,700,l),
(50,699,l),
(52,0,l),
(236,0,l),
(236,337,l),
(351,337,o),
(389,330,o),
(434,260,c)
);
},
{
closed = 1;
nodes = (
(234,630,l),
(234,699,l),
(8,699,l),
(8,684,l),
(50,668,l),
(50,630,l)
);
}
);
width = 543;
}
);
unicode = 70;
},
{
glyphname = G;
lastChange = "2026-05-26 01:49:06 +0000";
layers = (
{
anchors = (
{
name = bottom;
pos = (350,0);
},
{
name = top;
pos = (350,700);
}
);
layerId = m01;
shapes = (
{
closed = 1;
nodes = (
(431,335,l),
(314,335,l),
(314,364,l),
(615,364,l),
(615,0,l),
(586,0,l),
(586,85,l),
(516,13,o),
(416,-16,o),
(315,-7,c),
(204,3,o),
(114,68,o),
(74,174,c),
(30,288,o),
(28,419,o),
(74,533,c),
(116,638,o),
(210,694,o),
(321,708,cs),
(426,721,o),
(525,692,o),
(610,628,c),
(582,552,o),
(564,508,o),
(538,437,c),
(510,533,o),
(467,689,o),
(351,681,c),
(262,675,o),
(239,546,o),
(234,472,c),
(227,381,o),
(211,45,o),
(329,22,c),
(356,17,o),
(386,21,o),
(404,44,c),
(421,64,o),
(430,98,o),
(430,125,c)
);
}
);
width = 655;
}
);
unicode = 71;
},
{
glyphname = H;
lastChange = "2026-05-27 02:21:45 +0000";
layers = (
{
anchors = (
{
name = bottom;
pos = (343,0);
},
{
name = center;
pos = (343,560);
},
{
name = top;
pos = (343,700);
},
{
name = topleft;
pos = (20,700);
}
);
layerId = m01;
shapes = (
{
closed = 1;
nodes = (
(635,0,l),
(635,700,l),
(460,700,l),
(460,0,l)
);
},
{
closed = 1;
nodes = (
(225,0,l),
(225,700,l),
(50,700,l),
(50,0,l)
);
},
{
closed = 1;
nodes = (
(486,299,l),
(392,416,l),
(194,416,l),
(288,299,l)
);
}
);
width = 685;
}
);
unicode = 72;
},
{
glyphname = I;
lastChange = "2026-06-02 03:02:45 +0000";
layers = (
{
anchors = (
{
name = bottom;
pos = (188,0);
},
{
name = ogonek;
pos = (301,17);
},
{
name = top;
pos = (178,700);
},
{
name = topleft;
pos = (65,700);
}
);
layerId = m01;
shapes = (
{
closed = 1;
nodes = (
(280,0,l),
(280,713,l),
(50,697,l),
(50,684,l),
(94,667,l),
(94,0,l)
);
}
);
width = 330;
}
);
unicode = 73;
},
{
glyphname = J;
lastChange = "2026-05-27 02:29:08 +0000";
layers = (
{
anchors = (
{
name = bottom;
pos = (314,0);
},
{
name = top;
pos = (314,700);
}
);
layerId = m01;
shapes = (
{
closed = 1;
nodes = (
(577,700,l),
(577,254,ls),
(577,70,o),
(517,-8,o),
(306,-8,cs),
(123,-8,o),
(40,94,o),
(40,245,c),
(229,260,l),
(229,183,o),
(219,24,o),
(306,24,cs),
(387,24,o),
(385,143,o),
(385,200,cs),
(387,700,l)
);
}
);
width = 627;
},
{
associatedMasterId = m01;
layerId = "DEE0B8B6-D144-472D-98F5-AD853ACBC6A8";
name = Redraw;
width = 600;
}
);
unicode = 74;
},
{
glyphname = K;
lastChange = "2026-06-01 21:28:31 +0000";
layers = (
{
anchors = (
{
name = bottom;
pos = (408,0);
},
{
name = top;
pos = (408,700);
}
);
layerId = m01;
shapes = (
{
closed = 1;
nodes = (
(732,0,l),
(442,449,l),
(684,701,l),
(414,701,l),
(400,624,l),
(528,602,ls),
(534,601,o),
(536,591,o),
(530,585,cs),
(285,335,l),
(285,311,l),
(292,311,l),
(506,0,l)
);
},
{
closed = 1;
nodes = (
(292,0,l),
(292,700,l),
(50,700,l),
(50,685,l),
(94,668,l),
(94,0,l)
);
}
);
width = 772;
}
);
unicode = 75;
},
{
glyphname = L;
lastChange = "2026-06-02 22:40:12 +0000";
layers = (
{
anchors = (
{
name = bottom;
pos = (309,0);
},
{
name = center;
pos = (178,350);
},
{
name = top;
pos = (309,700);
},
{
name = topright;
pos = (386,784);
}
);
layerId = m01;
shapes = (
{
closed = 1;
nodes = (
(280,0,l),
(280,700,l),
(50,700,l),
(50,685,l),
(94,668,l),
(94,0,l)
);
},
{
closed = 1;
nodes = (
(533,0,l),
(533,178,l),
(525,178,l),
(469,79,o),
(393,29,o),
(279,29,c),
(94,0,l)
);
}
);
width = 573;
}
);
unicode = 76;
},
{
glyphname = M;
lastChange = "2026-06-01 21:34:33 +0000";
layers = (
{
anchors = (
{
name = bottom;
pos = (454,0);
},
{
name = top;
pos = (454,700);
}
);
layerId = m01;
shapes = (
{
closed = 1;
nodes = (
(50,700,l),
(50,685,l),
(92,669,l),
(92,0,l),
(251,0,l),
(240,68,l),
(145,91,ls),
(126,96,o),
(120,104,o),
(120,127,cs),
(120,561,l),
(121,559,l),
(405,-12,l),
(598,557,l),
(598,0,l),
(775,0,l),
(773,700,l),
(610,700,l),
(466,272,l),
(242,700,l)
);
}
);
width = 825;
}
);
unicode = 77;
},
{
glyphname = N;
lastChange = "2026-05-28 00:22:13 +0000";
layers = (
{
anchors = (
{
name = bottom;
pos = (369,0);
},
{
name = top;
pos = (369,700);
}
);
layerId = m01;
shapes = (
{
closed = 1;
nodes = (
(646,0,l),
(645,701,l),
(455,701,l),
(466,623,l),
(591,600,ls),
(610,596,o),
(616,587,o),
(616,564,cs),
(617,150,l),
(643,158,l),
(263,700,l),
(92,700,l),
(93,0,l),
(283,0,l),
(272,78,l),
(147,101,ls),
(128,105,o),
(122,114,o),
(122,137,cs),
(120,611,l),
(94,603,l),
(520,0,l)
);
},
{
closed = 1;
nodes = (
(276,631,l),
(255,700,l),
(50,700,l),
(50,685,l),
(92,669,l),
(92,631,l)
);
}
);
width = 696;
}
);
unicode = 78;
},
{
glyphname = O;
lastChange = "2026-06-02 03:01:07 +0000";
layers = (
{
anchors = (
{
name = bottom;
pos = (344,0);
},
{
name = center;
pos = (344,350);
},
{
name = ogonek;
pos = (478,10);
},
{
name = top;
pos = (344,700);
},
{
name = topleft;
pos = (20,700);
},
{
name = topright;
pos = (541,548);
}
);
layerId = m01;
shapes = (
{
closed = 1;
nodes = (
(257,19,o),
(224,164,o),
(224,346,cs),
(224,527,o),
(257,680,o),
(344,680,cs),
(430,680,o),
(463,527,o),
(463,346,cs),
(463,164,o),
(430,19,o),
(344,19,cs)
);
},
{
closed = 1;
nodes = (
(562,-11,o),
(647,150,o),
(647,349,cs),
(647,548,o),
(562,710,o),
(345,710,cs),
(125,710,o),
(40,548,o),
(40,349,cs),
(40,150,o),
(125,-11,o),
(345,-11,cs)
);
}
);
width = 687;
}
);
unicode = 79;
},
{
glyphname = OE;
lastChange = "2026-05-26 23:37:54 +0000";
layers = (
{
anchors = (
{
name = bottom;
pos = (570,0);
},
{
name = top;
pos = (561,700);
}
);
guides = (
{
angle = 180;
pos = (387,531);
},
{
angle = 180;
pos = (347,441);
},
{
angle = 180;
pos = (352,260);
},
{
pos = (351,173);
}
);
layerId = m01;
shapes = (
{
closed = 1;
nodes = (
(257,29,o),
(224,164,o),
(224,346,cs),
(224,527,o),
(257,661,o),
(344,680,cs),
(381,688,o),
(464,674,o),
(464,599,cs),
(466,100,ls),
(466,28,o),
(385,14,o),
(344,19,cs)
);
},
{
closed = 1;
nodes = (
(908,173,l),
(841,62,o),
(778,33,o),
(650,32,c),
(650,337,l),
(765,337,o),
(803,330,o),
(848,260,c),
(855,260,l),
(855,441,l),
(847,441,l),
(801,378,o),
(764,373,o),
(650,373,c),
(649,670,l),
(761,670,o),
(854,626,o),
(909,531,c),
(917,531,l),
(917,700,l),
(436,699,l),
(409,706,o),
(378,710,o),
(345,710,cs),
(125,710,o),
(40,548,o),
(40,349,cs),
(40,150,o),
(125,-11,o),
(345,-11,cs),
(378,-11,o),
(409,-7,o),
(436,0,c),
(917,0,l),
(917,173,l)
);
}
);
width = 967;
}
);
unicode = 338;
},
{
glyphname = P;
lastChange = "2026-05-28 00:30:01 +0000";
layers = (
{
anchors = (
{
name = bottom;
pos = (361,0);
},
{
name = top;
pos = (361,700);
}
);
layerId = m01;
shapes = (
{
closed = 1;
nodes = (
(399,280,ls),
(543,280,o),
(639,352,o),
(639,496,cs),
(639,632,o),
(543,700,o),
(399,700,cs),
(227,700,l),
(227,672,l),
(322,670,ls),
(402,668,o),
(451,611,o),
(451,496,cs),
(451,372,o),
(402,313,o),
(322,311,cs),
(227,309,l),
(227,280,l)
);
},
{
closed = 1;
nodes = (
(277,0,l),
(277,699,l),
(92,699,l),
(92,0,l)
);
},
{
closed = 1;
nodes = (
(276,631,l),
(276,700,l),
(50,700,l),
(50,685,l),
(92,669,l),
(92,631,l)
);
}
);
width = 679;
}
);
unicode = 80;
},
{
glyphname = Thorn;
lastChange = "2026-06-01 21:41:08 +0000";
layers = (
{
anchors = (
{
name = bottom;
pos = (319,0);
},
{
name = top;
pos = (319,700);
}
);
layerId = m01;
shapes = (
{
closed = 1;
nodes = (
(357,140,ls),
(501,140,o),
(597,212,o),
(597,356,cs),
(597,492,o),
(501,560,o),
(357,560,cs),
(185,560,l),
(185,532,l),
(280,530,ls),
(360,528,o),
(419,471,o),
(419,356,cs),
(419,232,o),
(360,173,o),
(280,171,cs),
(185,169,l),
(185,140,l)
);
},
{
closed = 1;
nodes = (
(235,0,l),
(235,700,l),
(50,700,l),
(50,0,l)
);
}
);
width = 637;
}
);
unicode = 222;
},
{
glyphname = Q;
lastChange = "2026-05-27 02:29:08 +0000";
layers = (
{
anchors = (
{
name = bottom;
pos = (344,0);
},
{
name = top;
pos = (344,700);
}
);
layerId = m01;
shapes = (
{
closed = 1;
nodes = (
(624,-144,l),
(624,-19,l),
(531,-13,l),
(456,-8,o),
(461,95,o),
(430,142,cs),
(392,202,o),
(323,204,o),
(308,205,cs),
(275,207,o),
(220,197,o),
(223,187,cs),
(225,178,o),
(219,165,o),
(222,157,c),
(235,164,o),
(264,175,o),
(289,173,cs),
(344,168,o),
(368,134,o),
(379,93,cs),
(393,41,o),
(394,13,o),
(412,-45,cs),
(421,-74,o),
(441,-133,o),
(525,-138,c)
);
},
{
closed = 1;
nodes = (
(257,19,o),
(224,164,o),
(224,346,cs),
(224,527,o),
(257,680,o),
(344,680,cs),
(430,680,o),
(463,527,o),
(463,346,cs),
(463,164,o),
(430,19,o),
(344,19,cs)
);
},
{
closed = 1;
nodes = (
(562,-11,o),
(647,150,o),
(647,349,cs),
(647,548,o),
(562,710,o),
(345,710,cs),
(125,710,o),
(40,548,o),
(40,349,cs),
(40,150,o),
(125,-11,o),
(345,-11,cs)
);
}
);
width = 687;
}
);
unicode = 81;
},
{
glyphname = R;
lastChange = "2026-05-27 23:26:01 +0000";
layers = (
{
anchors = (
{
name = bottom;
pos = (366,0);
},
{
name = top;
pos = (366,700);
}
);
layerId = m01;
shapes = (
{
closed = 1;
nodes = (
(442,359,o),
(355,352,o),
(279,352,c),
(278,671,l),
(385,671,o),
(442,650,o),
(442,512,c)
);
},
{
closed = 1;
nodes = (
(277,0,l),
(278,304,l),
(446,0,l),
(649,0,l),
(454,324,l),
(555,352,o),
(626,401,o),
(626,509,c),
(626,596,o),
(568,700,o),
(384,700,c),
(92,700,l),
(94,0,l)
);
},
{
closed = 1;
nodes = (
(278,631,l),
(278,700,l),
(50,700,l),
(50,685,l),
(92,669,l),
(92,631,l)
);
}
);
width = 689;
}
);
unicode = 82;
},
{
glyphname = S;
lastChange = "2026-05-27 02:29:08 +0000";
layers = (
{
anchors = (
{
name = bottom;
pos = (300,0);
},
{
name = top;
pos = (300,700);
}
);
layerId = m01;
shapes = (
{
closed = 1;
nodes = (
(522,468,l),
(538,656,l),
(458,683,o),
(426,705,o),
(310,705,cs),
(139,705,o),
(53,616,o),
(53,497,cs),
(53,232,o),
(421,304,o),
(421,120,cs),
(421,70,o),
(382,22,o),
(316,22,cs),
(157,22,o),
(85,219,o),
(78,248,c),
(55,248,l),
(55,46,l),
(102,25,o),
(158,-6,o),
(304,-10,cs),
(488,-15,o),
(580,62,o),
(580,219,cs),
(580,458,o),
(212,405,o),
(212,572,cs),
(212,625,o),
(249,673,o),
(311,673,cs),
(438,673,o),
(501,496,o),
(501,468,c)
);
}
);
width = 600;
}
);
unicode = 83;
},
{
glyphname = Germandbls;
lastChange = "2026-05-27 23:40:46 +0000";
layers = (
{
anchors = (
{
name = bottom;
pos = (365,0);
},
{
name = top;
pos = (365,700);
}
);
layerId = m01;
shapes = (
{
closed = 1;
nodes = (
(220,689,l),
(543,689,l),
(472,663,o),
(317,656,o),
(317,415,cs),
(317,230,o),
(507,197,o),
(507,98,cs),
(507,58,o),
(484,32,o),
(441,31,cs),
(385,31,o),
(354,68,o),
(348,142,c),
(299,142,l),
(299,20,l),
(339,-2,o),
(386,-13,o),
(440,-13,cs),
(586,-13,o),
(659,43,o),
(659,155,cs),
(659,308,o),
(457,328,o),
(456,476,c),
(456,612,o),
(503,630,o),
(585,688,c),
(585,714,l),
(50,714,l),
(50,0,l),
(220,0,l)
);
},
{
closed = 1;
nodes = (
(214,645,l),
(214,714,l),
(8,714,l),
(8,699,l),
(50,683,l),
(50,645,l)
);
}
);
width = 699;
}
);
unicode = 7838;
},
{
glyphname = T;
lastChange = "2026-06-01 21:44:42 +0000";
layers = (
{
anchors = (
{
name = bottom;
pos = (346,0);
},
{
name = center;
pos = (346,350);
},
{
name = top;
pos = (346,700);
}
);
layerId = m01;
shapes = (
{
closed = 1;
nodes = (
(640,514,l),
(640,620,o),
(528,673,o),
(438,673,c),
(439,0,l),
(254,0,l),
(253,673,l),
(161,673,o),
(51,620,o),
(51,514,c),
(40,514,l),
(40,700,l),
(651,700,l),
(651,514,l)
);
}
);
width = 691;
}
);
unicode = 84;
},
{
glyphname = U;
lastChange = "2026-06-02 03:01:16 +0000";
layers = (
{
anchors = (
{
name = bottom;
pos = (331,0);
},
{
name = ogonek;
pos = (538,38);
},
{
name = top;
pos = (331,700);
},
{
name = topright;
pos = (537,534);
}
);
layerId = m01;
shapes = (
{
closed = 1;
nodes = (
(533,28,o),
(582,110,o),
(580,221,cs),
(579,701,l),
(360,701,l),
(402,596,l),
(550,596,l),
(552,222,ls),
(552,167,o),
(544,134,o),
(519,98,cs),
(475,33,o),
(381,9,o),
(316,56,cs),
(281,82,o),
(264,131,o),
(264,175,cs),
(262,701,l),
(82,701,l),
(84,222,ls),
(84,139,o),
(125,58,o),
(199,21,cs),
(264,-11,o),
(345,-18,o),
(415,-1,cs)
);
},
{
closed = 1;
nodes = (
(256,632,l),
(256,701,l),
(40,701,l),
(40,686,l),
(82,670,l),
(82,632,l)
);
}
);
width = 620;
}
);
unicode = 85;
},
{
glyphname = V;
lastChange = "2026-06-01 21:55:36 +0000";
layers = (
{
anchors = (
{
name = bottom;
pos = (374,0);
},
{
name = top;
pos = (374,700);
}
);
layerId = m01;
shapes = (
{
closed = 1;
nodes = (
(420,0,l),
(462,154,l),
(254,700,l),
(40,700,l),
(342,0,l)
);
},
{
closed = 1;
nodes = (
(708,700,l),
(447,700,l),
(432,621,l),
(613,593,ls),
(625,591,o),
(621,580,o),
(617,569,cs),
(418,71,l),
(420,0,l)
);
}
);
width = 748;
}
);
unicode = 86;
},
{
glyphname = W;
lastChange = "2026-05-28 00:28:54 +0000";
layers = (
{
anchors = (
{
name = bottom;
pos = (572,0);
},
{
name = top;
pos = (572,700);
}
);
layerId = m01;
shapes = (
{
closed = 1;
nodes = (
(415,0,l),
(576,426,l),
(561,489,l),
(465,234,l),
(281,700,l),
(67,700,l),
(354,0,l)
);
},
{
closed = 1;
nodes = (
(799,0,l),
(861,207,l),
(671,700,l),
(452,700,l),
(739,0,l)
);
},
{
closed = 1;
nodes = (
(1077,700,l),
(839,700,l),
(824,621,l),
(982,593,ls),
(994,591,o),
(990,580,o),
(986,569,cs),
(787,65,l),
(799,0,l)
);
},
{
closed = 1;
nodes = (
(226,631,l),
(226,700,l),
(40,700,l),
(40,685,l),
(82,669,l),
(126,635,l)
);
}
);
width = 1117;
}
);
unicode = 87;
},
{
glyphname = X;
lastChange = "2026-06-01 21:57:07 +0000";
layers = (
{
anchors = (
{
name = bottom;
pos = (372,0);
},
{
name = top;
pos = (372,700);
}
);
guides = (
{
angle = 79.249;
pos = (310,40);
}
);
layerId = m01;
shapes = (
{
closed = 1;
nodes = (
(704,0,l),
(274,700,l),
(47,700,l),
(477,0,l)
);
},
{
closed = 1;
nodes = (
(460,342,o),
(696,699,o),
(701,700,c),
(453,700,l),
(438,621,l),
(561,597,ls),
(574,594,o),
(575,586,o),
(566,573,cs),
(447,392,l),
(460,342,l)
);
},
{
closed = 1;
nodes = (
(281,358,o),
(45,1,o),
(40,0,c),
(302,0,l),
(317,79,l),
(180,103,ls),
(167,105,o),
(168,116,o),
(175,127,cs),
(294,308,l),
(281,358,l)
);
}
);
width = 744;
}
);
unicode = 88;
},
{
glyphname = Y;
lastChange = "2026-06-01 21:56:36 +0000";
layers = (
{
anchors = (
{
name = bottom;
pos = (339,0);
},
{
name = top;
pos = (339,700);
},
{
name = topleft;
pos = (21,700);
}
);
layerId = m01;
shapes = (
{
closed = 1;
nodes = (
(441,0,l),
(441,281,l),
(636,700,l),
(381,700,l),
(368,621,l),
(504,593,ls),
(543,584,o),
(540,564,o),
(534,550,cs),
(428,323,l),
(244,700,l),
(40,700,l),
(254,287,l),
(256,0,l)
);
},
{
closed = 1;
nodes = (
(197,631,l),
(197,700,l),
(11,700,l),
(11,685,l),
(53,669,l),
(97,635,l)
);
}
);
width = 676;
},
{
associatedMasterId = m01;
layerId = "78C25D96-9D34-4DAD-8021-9C9C71E25B26";
name = "7 May 26 at 11:43";
shapes = (
{
closed = 1;
nodes = (
(367,621,l),
(367,621,o),
(377,675,o),
(380,699,c),
(635,699,l),
(440,281,l),
(440,0,l),
(255,0,l),
(253,287,l),
(40,699,l),
(244,699,l),
(431,329,l),
(533,550,l),
(539,564,o),
(542,584,o),
(503,593,c)
);
}
);
width = 675;
}
);
unicode = 89;
},
{
glyphname = Z;
lastChange = "2026-06-01 22:49:39 +0000";
layers = (
{
anchors = (
{
name = bottom;
pos = (336,0);
},
{
name = center;
pos = (336,350);
},
{
name = top;
pos = (336,700);
}
);
layerId = m01;
shapes = (
{
closed = 1;
nodes = (
(436,700,l),
(70,700,l),
(70,504,l),
(148,515,l),
(181,640,ls),
(186,659,o),
(194,665,o),
(217,665,cs),
(436,666,l)
);
},
{
closed = 1;
nodes = (
(253,0,l),
(632,700,l),
(423,700,l),
(40,0,l)
);
},
{
closed = 1;
nodes = (
(207,0,l),
(627,0,l),
(627,196,l),
(549,185,l),
(516,60,ls),
(511,41,o),
(503,35,o),
(480,35,cs),
(207,34,l)
);
}
);
width = 672;
}
);
unicode = 90;
},
{
glyphname = E.alt;
lastChange = "2026-05-28 01:29:53 +0000";
layers = (
{
anchors = (
{
name = bottom;
pos = (314,0);
},
{
name = ogonek;
pos = (531,10);
},
{
name = top;
pos = (314,700);
},
{
name = topleft;
pos = (62,700);
}
);
layerId = m01;
shapes = (
{
closed = 1;
nodes = (
(278,373,l),
(277,670,l),
(277,700,l),
(92,699,l),
(94,0,l),
(545,0,l),
(278,0,l),
(278,32,l),
(278,337,l)
);
},
{
closed = 1;
nodes = (
(226,672,l),
(398,672,ls),
(421,672,o),
(428,666,o),
(434,647,cs),
(467,541,l),
(543,530,l),
(545,700,l),
(226,700,l)
);
},
{
closed = 1;
nodes = (
(463,345,l),
(463,436,l),
(422,430,l),
(404,384,ls),
(399,372,o),
(397,371,o),
(384,371,cs),
(258,371,l),
(258,345,l)
);
},
{
closed = 1;
nodes = (
(545,0,l),
(543,170,l),
(467,159,l),
(434,53,ls),
(428,34,o),
(421,28,o),
(398,28,cs),
(226,28,l),
(226,0,l)
);
},
{
closed = 1;
nodes = (
(258,337,l),
(384,337,ls),
(397,337,o),
(399,336,o),
(404,324,cs),
(422,278,l),
(463,272,l),
(463,353,l),
(258,353,l)
);
},
{
closed = 1;
nodes = (
(276,631,l),
(276,700,l),
(50,700,l),
(50,685,l),
(92,669,l),
(92,631,l)
);
}
);
width = 585;
}
);
},
{
glyphname = F.alt;
lastChange = "2026-05-28 01:30:14 +0000";
layers = (
{
anchors = (
{
name = bottom;
pos = (272,0);
},
{
name = top;
pos = (272,700);
}
);
layerId = m01;
shapes = (
{
closed = 1;
nodes = (
(235,670,l),
(235,700,l),
(50,699,l),
(52,0,l),
(236,0,l)
);
},
{
closed = 1;
nodes = (
(184,672,l),
(356,672,ls),
(379,672,o),
(386,666,o),
(392,647,cs),
(425,541,l),
(501,530,l),
(503,700,l),
(184,700,l)
);
},
{
closed = 1;
nodes = (
(421,345,l),
(421,436,l),
(380,430,l),
(362,384,ls),
(357,372,o),
(355,371,o),
(342,371,cs),
(216,371,l),
(216,345,l)
);
},
{
closed = 1;
nodes = (
(216,337,l),
(342,337,ls),
(355,337,o),
(357,336,o),
(362,324,cs),
(380,278,l),
(421,272,l),
(421,353,l),
(216,353,l)
);
},
{
closed = 1;
nodes = (
(234,631,l),
(234,700,l),
(8,700,l),
(8,685,l),
(50,669,l),
(50,631,l)
);
}
);
width = 543;
}
);
},
{
glyphname = L.alt;
lastChange = "2026-06-02 03:08:33 +0000";
layers = (
{
anchors = (
{
name = bottom;
pos = (309,0);
},
{
name = center;
pos = (178,350);
},
{
name = top;
pos = (309,700);
},
{
name = topright;
pos = (553,700);
}
);
layerId = m01;
shapes = (
{
closed = 1;
nodes = (
(533,0,l),
(533,180,l),
(455,169,l),
(422,53,ls),
(417,34,o),
(409,28,o),
(386,28,cs),
(214,28,l),
(214,0,l)
);
},
{
closed = 1;
nodes = (
(280,0,l),
(280,699,l),
(50,699,l),
(50,684,l),
(94,667,l),
(94,0,l)
);
}
);
width = 573;
}
);
},
{
glyphname = M.alt;
lastChange = "2026-05-27 23:38:33 +0000";
layers = (
{
anchors = (
{
name = bottom;
pos = (414,0);
},
{
name = top;
pos = (414,700);
}
);
layerId = m01;
shapes = (
{
closed = 1;
nodes = (
(92,700,l),
(93,0,l),
(121,0,l),
(122,557,l),
(365,-12,l),
(558,557,l),
(558,0,l),
(735,0,l),
(733,700,l),
(570,700,l),
(426,272,l),
(242,700,l)
);
},
{
closed = 1;
nodes = (
(236,631,l),
(236,700,l),
(50,700,l),
(50,685,l),
(92,669,l),
(92,631,l)
);
}
);
width = 785;
}
);
},
{
glyphname = R.alt;
lastChange = "2026-06-03 22:19:36 +0000";
layers = (
{
anchors = (
{
name = bottom;
pos = (325,0);
},
{
name = top;
pos = (325,700);
}
);
layerId = m01;
shapes = (
{
closed = 1;
nodes = (
(400,359,o),
(313,352,o),
(237,352,c),
(236,671,l),
(343,671,o),
(400,650,o),
(400,512,c)
);
},
{
closed = 1;
nodes = (
(235,0,l),
(236,304,l),
(397,293,o),
(584,332,o),
(584,509,c),
(584,596,o),
(526,700,o),
(342,700,c),
(50,700,l),
(52,0,l)
);
},
{
closed = 1;
nodes = (
(305,308,l),
(424,127,ls),
(431,116,o),
(432,106,o),
(419,103,cs),
(326,79,l),
(341,0,l),
(629,0,l),
(624,1,o),
(388,358,o),
(388,358,c)
);
}
);
width = 669;
}
);
},
{
glyphname = T.alt;
lastChange = "2026-06-01 21:44:46 +0000";
layers = (
{
anchors = (
{
name = bottom;
pos = (346,0);
},
{
name = center;
pos = (346,350);
},
{
name = top;
pos = (346,700);
}
);
layerId = m01;
shapes = (
{
closed = 1;
nodes = (
(439,0,l),
(438,700,l),
(253,700,l),
(254,0,l)
);
},
{
closed = 1;
nodes = (
(669,700,l),
(350,700,l),
(350,672,l),
(522,672,ls),
(545,672,o),
(553,666,o),
(558,647,cs),
(591,531,l),
(669,520,l)
);
},
{
closed = 1;
nodes = (
(100,531,l),
(133,647,ls),
(138,666,o),
(146,672,o),
(169,672,cs),
(341,672,l),
(341,700,l),
(22,700,l),
(22,520,l)
);
}
);
width = 691;
}
);
},
{
glyphname = Z.alt;
lastChange = "2026-05-27 21:50:08 +0000";
layers = (
{
anchors = (
{
name = bottom;
pos = (336,0);
},
{
name = center;
pos = (336,350);
},
{
name = top;
pos = (336,700);
}
);
layerId = m01;
shapes = (
{
closed = 1;
nodes = (
(253,0,l),
(632,700,l),
(423,700,l),
(40,0,l)
);
},
{
closed = 1;
nodes = (
(71,700,l),
(69,460,l),
(94,460,l),
(132,592,o),
(215,667,o),
(359,667,c),
(439,667,l),
(463,700,l)
);
},
{
closed = 1;
nodes = (
(627,0,l),
(629,240,l),
(604,240,l),
(566,108,o),
(483,33,o),
(339,33,c),
(259,33,l),
(235,0,l)
);
}
);
width = 672;
}
);
},
{
glyphname = a;
lastChange = "2026-05-26 01:41:40 +0000";
layers = (
{
anchors = (
{
name = bottom;
pos = (279,0);
},
{
name = ogonek;
pos = (501,10);
},
{
name = top;
pos = (274,470);
}
);
layerId = m01;
shapes = (
{
closed = 1;
nodes = (
(230,-9,o),
(275,14,o),
(311,60,c),
(314,46,o),
(341,-7,o),
(408,-7,cs),
(478,-7,o),
(509,29,o),
(517,52,c),
(505,64,l),
(479,41,o),
(453,49,o),
(454,119,cs),
(454,302,ls),
(454,419,o),
(387,478,o),
(253,478,cs),
(181,478,o),
(135,460,o),
(70,426,c),
(119,315,l),
(127,315,l),
(188,406,ls),
(215,443,o),
(230,457,o),
(249,457,cs),
(292,457,o),
(307,410,o),
(303,316,c),
(135,284,o),
(40,240,o),
(40,118,cs),
(40,31,o),
(105,-9,o),
(178,-9,cs)
);
},
{
closed = 1;
nodes = (
(202,53,o),
(181,80,o),
(181,141,cs),
(181,240,o),
(259,273,o),
(303,293,c),
(303,86,ls),
(303,76,o),
(275,53,o),
(247,53,cs)
);
}
);
width = 547;
}
);
unicode = 97;
},
{
glyphname = ae;
lastChange = "2026-06-01 22:56:50 +0000";
layers = (
{
anchors = (
{
name = bottom;
pos = (385,0);
},
{
name = top;
pos = (398,470);
}
);
layerId = m01;
shapes = (
{
closed = 1;
nodes = (
(230,-14,o),
(314,-12,o),
(353,74,c),
(394,19,o),
(457,-16,o),
(525,-16,cs),
(630,-16,o),
(683,43,o),
(725,125,c),
(709,138,l),
(679,93,o),
(641,70,o),
(593,71,cs),
(516,71,o),
(451,132,o),
(451,255,c),
(730,255,l),
(730,403,o),
(654,475,o),
(526,475,cs),
(479,475,o),
(434,463,o),
(398,439,c),
(364,465,o),
(316,478,o),
(253,478,cs),
(181,478,o),
(135,460,o),
(70,426,c),
(119,315,l),
(127,315,l),
(188,406,ls),
(215,443,o),
(230,457,o),
(249,457,cs),
(292,457,o),
(307,410,o),
(303,316,c),
(135,284,o),
(40,240,o),
(40,118,cs),
(40,31,o),
(106,-2,o),
(178,-9,cs)
);
},
{
closed = 1;
nodes = (
(202,53,o),
(181,80,o),
(181,141,cs),
(181,240,o),
(259,273,o),
(303,293,c),
(303,108,ls),
(303,70,o),
(275,53,o),
(247,53,cs)
);
},
{
closed = 1;
nodes = (
(451,392,o),
(476,451,o),
(525,451,cs),
(569,451,o),
(591,392,o),
(591,275,c),
(451,275,l)
);
}
);
width = 770;
}
);
unicode = 230;
},
{
glyphname = b;
lastChange = "2026-05-27 02:29:08 +0000";
layers = (
{
anchors = (
{
name = bottom;
pos = (300,0);
},
{
name = center;
pos = (150,640);
},
{
name = top;
pos = (300,470);
}
);
layerId = m01;
shapes = (
{
closed = 1;
nodes = (
(257,0,l),
(257,713,l),
(50,697,l),
(50,684,l),
(94,667,l),
(94,-1,l)
);
},
{
closed = 1;
nodes = (
(273,424,o),
(296,439,o),
(320,439,cs),
(370,439,o),
(395,374,o),
(395,251,cs),
(395,103,o),
(370,29,o),
(319,29,cs),
(289,29,o),
(265,42,o),
(247,80,c),
(221,71,l),
(242,31,o),
(278,-8,o),
(341,-9,cs),
(463,-9,o),
(559,65,o),
(559,250,cs),
(559,401,o),
(471,481,o),
(358,481,cs),
(314,481,o),
(274,458,o),
(240,424,c),
(249,392,l)
);
}
);
width = 599;
}
);
unicode = 98;
},
{
glyphname = c;
lastChange = "2026-05-27 02:29:08 +0000";
layers = (
{
anchors = (
{
name = bottom;
pos = (249,0);
},
{
name = top;
pos = (249,470);
}
);
layerId = m01;
shapes = (
{
closed = 1;
nodes = (
(376,-7,o),
(429,33,o),
(458,137,c),
(439,144,l),
(412,58,o),
(364,25,o),
(308,26,cs),
(236,26,o),
(200,97,o),
(200,240,cs),
(200,384,o),
(226,456,o),
(278,456,cs),
(328,456,o),
(368,397,o),
(396,277,c),
(407,277,l),
(457,414,l),
(408,456,o),
(346,478,o),
(273,478,cs),
(140,478,o),
(40,399,o),
(40,240,cs),
(40,75,o),
(140,-8,o),
(275,-8,cs)
);
}
);
width = 498;
}
);
unicode = 99;
},
{
glyphname = d;
lastChange = "2026-06-01 22:57:54 +0000";
layers = (
{
anchors = (
{
name = bottom;
pos = (278,0);
},
{
name = center;
pos = (417,575);
},
{
name = top;
pos = (229,470);
},
{
name = topright;
pos = (533,800);
}
);
guides = (
{
angle = 90;
pos = (342,357);
}
);
layerId = m01;
shapes = (
{
closed = 1;
nodes = (
(506,0,l),
(506,713,l),
(299,697,l),
(299,684,l),
(343,667,l),
(343,-1,l)
);
},
{
closed = 1;
nodes = (
(326,48,o),
(303,33,o),
(279,33,cs),
(229,33,o),
(204,98,o),
(204,221,cs),
(204,369,o),
(221,443,o),
(280,443,cs),
(310,443,o),
(334,430,o),
(352,392,c),
(378,401,l),
(357,441,o),
(321,481,o),
(258,481,cs),
(128,481,o),
(40,407,o),
(40,222,cs),
(40,71,o),
(128,-9,o),
(241,-9,cs),
(289,-9,o),
(325,14,o),
(359,48,c),
(350,80,l)
);
}
);
width = 556;
}
);
unicode = 100;
},
{
glyphname = eth;
lastChange = "2026-05-27 03:00:09 +0000";
layers = (
{
anchors = (
{
name = bottom;
pos = (302,0);
},
{
name = top;
pos = (302,800);
}
);
layerId = m01;
shapes = (
{
closed = 1;
nodes = (
(459,-10,o),
(563,94,o),
(563,301,c),
(567,527,o),
(406,704,o),
(159,787,c),
(131,739,l),
(237,682,o),
(313,598,o),
(355,495,c),
(186,554,o),
(40,423,o),
(40,253,c),
(40,78,o),
(155,-10,o),
(297,-10,c)
);
},
{
closed = 1;
nodes = (
(239,38,o),
(206,111,o),
(206,258,c),
(206,396,o),
(237,465,o),
(298,465,c),
(363,465,o),
(396,400,o),
(396,269,c),
(396,115,o),
(366,38,o),
(305,38,c)
);
},
{
attr = {
strokeWidth = 50;
};
closed = 0;
nodes = (
(488,743,l),
(137,579,l)
);
}
);
width = 603;
}
);
unicode = 240;
},
{
glyphname = e;
lastChange = "2026-06-02 22:38:04 +0000";
layers = (
{
anchors = (
{
name = bottom;
pos = (253,0);
},
{
name = ogonek;
pos = (432,42);
},
{
name = top;
pos = (253,470);
}
);
layerId = m01;
shapes = (
{
closed = 1;
nodes = (
(366,-8,o),
(419,43,o),
(461,125,c),
(445,138,l),
(415,93,o),
(377,70,o),
(329,71,cs),
(252,71,o),
(187,132,o),
(187,255,c),
(466,255,l),
(466,403,o),
(390,475,o),
(262,475,cs),
(142,475,o),
(40,398,o),
(40,240,cs),
(40,75,o),
(142,-8,o),
(261,-8,cs)
);
},
{
closed = 1;
nodes = (
(187,392,o),
(212,451,o),
(261,451,cs),
(305,451,o),
(327,392,o),
(327,275,c),
(187,275,l)
);
}
);
width = 506;
}
);
unicode = 101;
},
{
glyphname = schwa;
lastChange = "2026-06-01 23:15:07 +0000";
layers = (
{
anchors = (
{
name = bottom;
pos = (253,0);
},
{
name = ogonekabove;
pos = (51,460);
},
{
name = top;
pos = (253,470);
}
);
layerId = m01;
shapes = (
{
closed = 1;
nodes = (
(87,427,o),
(140,478,o),
(245,478,cs),
(364,478,o),
(466,395,o),
(466,230,cs),
(466,72,o),
(364,-5,o),
(244,-5,cs),
(116,-5,o),
(40,97,o),
(40,245,c),
(319,245,l),
(319,358,o),
(254,399,o),
(177,399,cs),
(129,400,o),
(91,377,o),
(61,332,c),
(45,345,l)
);
},
{
closed = 1;
nodes = (
(179,88,o),
(201,19,o),
(245,19,cs),
(294,19,o),
(319,88,o),
(319,205,c),
(179,205,l)
);
}
);
width = 506;
}
);
unicode = 601;
},
{
glyphname = f;
lastChange = "2026-06-03 22:42:05 +0000";
layers = (
{
anchors = (
{
name = bottom;
pos = (251,0);
},
{
name = top;
pos = (251,700);
}
);
layerId = m01;
shapes = (
{
closed = 1;
nodes = (
(422,514,l),
(471,654,l),
(424,684,o),
(372,699,o),
(315,699,cs),
(182,699,o),
(116,630,o),
(116,493,cs),
(116,-1,l),
(273,-1,l),
(274,595,ls),
(274,648,o),
(288,674,o),
(315,674,cs),
(346,674,o),
(379,620,o),
(412,514,c)
);
},
{
closed = 1;
nodes = (
(40,437,l),
(408,437,l),
(408,470,l),
(40,470,l)
);
}
);
width = 501;
}
);
unicode = 102;
},
{
glyphname = g;
lastChange = "2026-05-28 22:09:50 +0000";
layers = (
{
anchors = (
{
name = bottom;
pos = (278,-222);
},
{
name = top;
pos = (278,523);
}
);
layerId = m01;
shapes = (
{
closed = 1;
nodes = (
(434,-230,o),
(515,-169,o),
(515,-46,cs),
(515,29,o),
(468,86,o),
(349,86,cs),
(214,86,ls),
(157,86,o),
(142,98,o),
(142,122,cs),
(141,138,o),
(156,153,o),
(185,167,c),
(154,173,l),
(93,153,o),
(58,101,o),
(58,52,cs),
(59,15,o),
(76,-12,o),
(109,-31,c),
(40,-167,l),
(96,-209,o),
(173,-230,o),
(271,-230,cs)
);
},
{
closed = 1;
nodes = (
(249,-128,l),
(149,-111,ls),
(114,-104,o),
(108,-85,o),
(132,-41,c),
(140,-45,o),
(152,-46,o),
(160,-46,cs),
(326,-49,ls),
(375,-49,o),
(399,-71,o),
(399,-116,cs),
(399,-177,o),
(332,-208,o),
(263,-208,cs),
(232,-208,l)
);
},
{
closed = 1;
nodes = (
(396,143,o),
(483,202,o),
(483,317,cs),
(483,424,o),
(390,480,o),
(272,480,cs),
(153,480,o),
(59,424,o),
(59,317,cs),
(59,202,o),
(147,143,o),
(272,143,cs)
);
},
{
closed = 1;
nodes = (
(226,165,o),
(204,216,o),
(204,315,cs),
(204,409,o),
(226,458,o),
(271,458,cs),
(315,458,o),
(337,409,o),
(337,315,cs),
(337,216,o),
(315,165,o),
(271,165,cs)
);
},
{
closed = 1;
nodes = (
(392,472,o),
(403,487,o),
(425,487,cs),
(500,487,l),
(511,579,l),
(480,579,ls),
(387,579,o),
(360,530,o),
(360,451,c),
(390,440,l)
);
}
);
width = 555;
}
);
unicode = 103;
},
{
glyphname = h;
lastChange = "2026-05-27 02:23:36 +0000";
layers = (
{
anchors = (
{
name = bottom;
pos = (284,0);
},
{
name = center;
pos = (172,570);
},
{
name = top;
pos = (284,700);
}
);
layerId = m01;
shapes = (
{
closed = 1;
nodes = (
(253,363,l),
(267,397,o),
(289,415,o),
(318,415,cs),
(365,415,o),
(371,377,o),
(371,301,cs),
(371,0,l),
(527,0,l),
(527,324,ls),
(527,434,o),
(438,478,o),
(384,478,cs),
(317,478,o),
(270,448,o),
(235,392,c)
);
},
{
closed = 1;
nodes = (
(257,713,l),
(50,697,l),
(50,684,l),
(94,667,l),
(94,0,l),
(257,0,l)
);
}
);
width = 567;
}
);
unicode = 104;
},
{
glyphname = i;
lastChange = "2026-05-28 21:59:01 +0000";
layers = (
{
anchors = (
{
name = bottom;
pos = (136,0);
}
);
layerId = m01;
shapes = (
{
closed = 1;
nodes = (
(183,539,o),
(221,577,o),
(221,625,cs),
(221,672,o),
(183,710,o),
(136,710,cs),
(88,710,o),
(50,672,o),
(50,625,cs),
(50,577,o),
(88,539,o),
(136,539,cs)
);
},
{
ref = idotless;
}
);
width = 271;
}
);
unicode = 105;
},
{
glyphname = idotless;
lastChange = "2026-05-28 21:58:57 +0000";
layers = (
{
anchors = (
{
name = bottom;
pos = (138,0);
},
{
name = ogonek;
pos = (213,0);
},
{
name = top;
pos = (132,470);
}
);
layerId = m01;
shapes = (
{
closed = 1;
nodes = (
(213,0,l),
(213,483,l),
(50,467,l),
(50,0,l)
);
}
);
width = 263;
}
);
unicode = 305;
},
{
glyphname = j;
lastChange = "2026-05-28 21:58:40 +0000";
layers = (
{
layerId = m01;
shapes = (
{
closed = 1;
nodes = (
(333,539,o),
(371,577,o),
(371,625,cs),
(371,672,o),
(333,710,o),
(286,710,cs),
(238,710,o),
(200,672,o),
(200,625,cs),
(200,577,o),
(238,539,o),
(286,539,cs)
);
},
{
ref = jdotless;
}
);
width = 421;
}
);
unicode = 106;
},
{
glyphname = jdotless;
lastChange = "2026-05-28 22:01:58 +0000";
layers = (
{
anchors = (
{
name = bottom;
pos = (211,-200);
},
{
name = top;
pos = (284,470);
}
);
layerId = m01;
shapes = (
{
closed = 1;
nodes = (
(206,-154,o),
(201,-198,o),
(170,-198,c),
(134,-198,o),
(122,-154,o),
(117,-68,c),
(32,-75,l),
(20,-192,l),
(65,-216,o),
(115,-228,o),
(174,-228,c),
(303,-228,o),
(369,-155,o),
(369,-10,c),
(369,483,l),
(206,467,l),
(206,-10,l)
);
}
);
width = 421;
}
);
unicode = 567;
},
{
glyphname = k;
lastChange = "2026-05-27 02:29:08 +0000";
layers = (
{
anchors = (
{
name = bottom;
pos = (310,0);
},
{
name = top;
pos = (310,800);
}
);
layerId = m01;
shapes = (
{
closed = 1;
nodes = (
(580,0,l),
(387,304,l),
(572,477,l),
(355,477,l),
(340,413,l),
(435,386,l),
(168,136,l),
(207,136,l),
(282,206,l),
(387,0,l)
);
},
{
closed = 1;
nodes = (
(247,0,l),
(247,713,l),
(40,697,l),
(40,684,l),
(84,667,l),
(84,0,l)
);
}
);
width = 620;
}
);
unicode = 107;
},
{
glyphname = l;
lastChange = "2026-06-01 23:04:05 +0000";
layers = (
{
anchors = (
{
name = bottom;
pos = (163,0);
},
{
name = center;
pos = (154,381);
},
{
name = top;
pos = (149,700);
},
{
name = topright;
pos = (270,800);
}
);
layerId = m01;
shapes = (
{
closed = 1;
nodes = (
(247,713,l),
(40,697,l),
(40,684,l),
(84,667,l),
(84,0,l),
(247,0,l)
);
}
);
width = 297;
}
);
unicode = 108;
},
{
glyphname = m;
lastChange = "2026-05-27 02:29:08 +0000";
layers = (
{
anchors = (
{
name = bottom;
pos = (422,0);
},
{
name = top;
pos = (422,470);
}
);
layerId = m01;
shapes = (
{
closed = 1;
nodes = (
(244,392,l),
(223,471,l),
(100,471,l),
(100,1,l),
(259,1,l),
(259,381,l)
);
},
{
closed = 1;
nodes = (
(50,471,l),
(50,457,l),
(105,432,l),
(110,471,l)
);
},
{
closed = 1;
nodes = (
(513,364,l),
(527,398,o),
(557,416,o),
(578,416,cs),
(630,416,o),
(643,378,o),
(643,302,cs),
(643,1,l),
(803,1,l),
(803,308,ls),
(803,423,o),
(751,479,o),
(647,479,cs),
(580,479,o),
(530,442,o),
(495,386,c)
);
},
{
closed = 1;
nodes = (
(255,364,l),
(269,398,o),
(291,416,o),
(320,416,cs),
(367,416,o),
(373,378,o),
(373,302,cs),
(373,1,l),
(529,1,l),
(529,325,ls),
(529,435,o),
(440,479,o),
(386,479,cs),
(319,479,o),
(272,449,o),
(237,393,c)
);
}
);
width = 843;
}
);
unicode = 109;
},
{
glyphname = n;
lastChange = "2026-05-27 02:29:08 +0000";
layers = (
{
anchors = (
{
name = bottom;
pos = (286,0);
},
{
name = top;
pos = (286,470);
}
);
layerId = m01;
shapes = (
{
closed = 1;
nodes = (
(311,479,o),
(262,452,o),
(228,400,c),
(209,471,l),
(86,471,l),
(86,1,l),
(245,1,l),
(245,373,l),
(259,401,o),
(280,416,o),
(306,416,cs),
(349,416,o),
(371,378,o),
(371,302,cs),
(371,1,l),
(531,1,l),
(531,308,ls),
(531,423,o),
(479,479,o),
(375,479,cs)
);
},
{
closed = 1;
nodes = (
(40,471,l),
(40,457,l),
(95,432,l),
(100,471,l)
);
}
);
width = 571;
}
);
unicode = 110;
},
{
glyphname = o;
lastChange = "2026-06-02 03:01:31 +0000";
layers = (
{
anchors = (
{
name = bottom;
pos = (278,0);
},
{
name = center;
pos = (278,235);
},
{
name = ogonek;
pos = (409,10);
},
{
name = top;
pos = (278,470);
},
{
name = topright;
pos = (396,338);
}
);
layerId = m01;
shapes = (
{
closed = 1;
nodes = (
(419,-9,o),
(516,76,o),
(516,243,c),
(516,402,o),
(406,478,o),
(279,478,c),
(153,478,o),
(40,402,o),
(40,243,c),
(40,76,o),
(140,-9,o),
(279,-9,c)
);
},
{
closed = 1;
nodes = (
(230,15,o),
(206,90,o),
(206,243,c),
(206,386,o),
(230,455,o),
(279,455,c),
(326,455,o),
(350,386,o),
(350,243,c),
(350,90,o),
(326,15,o),
(279,15,c)
);
}
);
width = 556;
}
);
unicode = 111;
},
{
glyphname = oe;
lastChange = "2026-05-26 22:15:32 +0000";
layers = (
{
anchors = (
{
name = bottom;
pos = (423,0);
},
{
name = top;
pos = (423,470);
}
);
layerId = m01;
shapes = (
{
closed = 1;
nodes = (
(351,-9,o),
(411,13,o),
(452,56,c),
(488,13,o),
(539,-8,o),
(600,-8,cs),
(705,-8,o),
(758,43,o),
(800,125,c),
(784,138,l),
(754,93,o),
(716,70,o),
(668,71,cs),
(591,71,o),
(526,132,o),
(526,255,c),
(805,255,l),
(805,403,o),
(729,475,o),
(601,475,cs),
(540,475,o),
(487,454,o),
(451,414,c),
(408,457,o),
(346,478,o),
(279,478,cs),
(153,478,o),
(40,402,o),
(40,243,cs),
(40,76,o),
(140,-9,o),
(279,-9,cs)
);
},
{
closed = 1;
nodes = (
(230,15,o),
(188,90,o),
(188,243,cs),
(188,386,o),
(230,455,o),
(279,455,cs),
(326,455,o),
(369,386,o),
(369,243,cs),
(369,90,o),
(326,15,o),
(279,15,cs)
);
},
{
closed = 1;
nodes = (
(526,392,o),
(551,451,o),
(600,451,cs),
(644,451,o),
(666,392,o),
(666,275,c),
(526,275,l)
);
}
);
width = 845;
}
);
unicode = 339;
},
{
glyphname = p;
lastChange = "2026-05-28 22:02:11 +0000";
layers = (
{
anchors = (
{
name = bottom;
pos = (300,0);
},
{
name = top;
pos = (300,470);
}
);
layerId = m01;
shapes = (
{
closed = 1;
nodes = (
(257,-222,l),
(257,419,l),
(255,432,l),
(238,470,l),
(50,470,l),
(50,457,l),
(94,440,l),
(94,-223,l)
);
},
{
closed = 1;
nodes = (
(273,421,o),
(296,436,o),
(320,436,cs),
(370,436,o),
(395,371,o),
(395,248,cs),
(395,100,o),
(370,26,o),
(319,26,cs),
(289,26,o),
(265,39,o),
(247,77,c),
(221,68,l),
(242,28,o),
(278,-11,o),
(341,-12,cs),
(463,-12,o),
(559,62,o),
(559,247,cs),
(559,398,o),
(471,478,o),
(358,478,cs),
(314,478,o),
(274,455,o),
(240,421,c),
(249,389,l)
);
}
);
width = 600;
}
);
unicode = 112;
},
{
glyphname = thorn;
lastChange = "2026-06-01 21:40:45 +0000";
layers = (
{
anchors = (
{
name = bottom;
pos = (300,0);
},
{
name = top;
pos = (300,800);
}
);
layerId = m01;
shapes = (
{
closed = 1;
nodes = (
(257,-243,l),
(257,419,l),
(255,662,l),
(238,700,l),
(50,700,l),
(50,687,l),
(94,670,l),
(94,-244,l)
);
},
{
closed = 1;
nodes = (
(273,421,o),
(296,436,o),
(320,436,cs),
(370,436,o),
(395,371,o),
(395,248,cs),
(395,100,o),
(370,26,o),
(319,26,cs),
(289,26,o),
(265,39,o),
(247,77,c),
(221,68,l),
(242,28,o),
(278,-11,o),
(341,-12,cs),
(463,-12,o),
(559,62,o),
(559,247,cs),
(559,398,o),
(471,478,o),
(358,478,cs),
(314,478,o),
(274,455,o),
(240,421,c),
(249,389,l)
);
}
);
width = 599;
}
);
unicode = 254;
},
{
glyphname = q;
lastChange = "2026-06-01 21:48:30 +0000";
layers = (
{
anchors = (
{
name = bottom;
pos = (300,0);
},
{
name = top;
pos = (300,470);
}
);
layerId = m01;
shapes = (
{
closed = 1;
nodes = (
(569,-204,l),
(515,-188,l),
(515,470,l),
(352,436,l),
(352,419,l),
(352,-223,l),
(569,-224,l)
);
},
{
closed = 1;
nodes = (
(336,45,o),
(313,30,o),
(289,30,cs),
(239,30,o),
(214,95,o),
(214,218,cs),
(214,366,o),
(239,440,o),
(290,440,cs),
(320,440,o),
(344,427,o),
(362,389,c),
(388,398,l),
(367,438,o),
(331,477,o),
(268,478,cs),
(146,478,o),
(50,404,o),
(50,219,cs),
(50,68,o),
(138,-12,o),
(251,-12,cs),
(295,-12,o),
(335,11,o),
(369,45,c),
(360,77,l)
);
}
);
width = 600;
}
);
unicode = 113;
},
{
glyphname = r;
lastChange = "2026-05-27 02:29:08 +0000";
layers = (
{
anchors = (
{
name = bottom;
pos = (235,0);
},
{
name = top;
pos = (235,470);
}
);
layerId = m01;
shapes = (
{
closed = 1;
nodes = (
(315,479,o),
(270,460,o),
(241,392,c),
(219,471,l),
(96,471,l),
(96,0,l),
(255,0,l),
(255,318,ls),
(255,382,o),
(284,410,o),
(310,411,cs),
(353,413,o),
(369,368,o),
(383,291,c),
(401,291,l),
(440,462,l),
(419,470,o),
(395,479,o),
(365,479,cs)
);
},
{
closed = 1;
nodes = (
(50,471,l),
(50,457,l),
(105,432,l),
(110,471,l)
);
}
);
width = 470;
}
);
unicode = 114;
},
{
glyphname = s;
lastChange = "2026-05-27 02:29:08 +0000";
layers = (
{
anchors = (
{
name = bottom;
pos = (242,0);
},
{
name = top;
pos = (242,470);
}
);
layerId = m01;
shapes = (
{
closed = 1;
nodes = (
(421,428,l),
(372,462,o),
(314,477,o),
(247,477,cs),
(131,477,o),
(52,428,o),
(52,328,cs),
(52,156,o),
(305,184,o),
(305,77,cs),
(305,36,o),
(281,16,o),
(232,16,cs),
(131,16,o),
(92,146,o),
(81,169,c),
(69,169,l),
(40,47,l),
(95,11,o),
(158,-10,o),
(231,-10,cs),
(373,-10,o),
(444,47,o),
(444,145,cs),
(444,320,o),
(179,280,o),
(179,396,cs),
(179,434,o),
(206,454,o),
(246,454,cs),
(320,454,o),
(351,385,o),
(386,309,c),
(398,309,l)
);
}
);
width = 484;
}
);
unicode = 115;
},
{
glyphname = germandbls;
lastChange = "2026-05-26 20:32:19 +0000";
layers = (
{
anchors = (
{
name = bottom;
pos = (330,0);
},
{
name = top;
pos = (330,800);
}
);
layerId = m01;
shapes = (
{
closed = 1;
nodes = (
(215,551,ls),
(215,636,o),
(262,678,o),
(313,679,cs),
(376,679,o),
(407,637,o),
(407,554,cs),
(407,417,o),
(287,456,o),
(287,341,cs),
(287,230,o),
(477,197,o),
(477,98,cs),
(477,58,o),
(454,32,o),
(411,31,cs),
(355,31,o),
(324,68,o),
(318,142,c),
(269,142,l),
(269,20,l),
(309,-2,o),
(356,-13,o),
(410,-13,cs),
(556,-13,o),
(629,43,o),
(629,155,cs),
(629,308,o),
(427,322,o),
(426,393,cs),
(426,455,o),
(575,437,o),
(575,560,cs),
(575,665,o),
(487,714,o),
(311,714,cs),
(122,714,o),
(50,617,o),
(50,415,cs),
(50,0,l),
(215,0,l)
);
}
);
width = 669;
}
);
unicode = 223;
},
{
glyphname = t;
lastChange = "2026-06-02 00:24:13 +0000";
layers = (
{
anchors = (
{
name = bottom;
pos = (245,0);
},
{
name = center;
pos = (228,235);
},
{
name = top;
pos = (228,634);
},
{
name = topright;
pos = (336,786);
}
);
layerId = m01;
shapes = (
{
closed = 1;
nodes = (
(375,-9,o),
(408,28,o),
(425,105,c),
(405,109,l),
(391,50,o),
(362,29,o),
(332,28,cs),
(274,28,o),
(276,80,o),
(276,184,cs),
(276,634,l),
(116,571,l),
(116,149,ls),
(116,55,o),
(162,-9,o),
(274,-9,cs)
);
},
{
closed = 1;
nodes = (
(401,433,l),
(401,465,l),
(40,465,l),
(40,433,l)
);
}
);
width = 455;
}
);
unicode = 116;
},
{
glyphname = u;
lastChange = "2026-06-02 03:01:45 +0000";
layers = (
{
anchors = (
{
name = bottom;
pos = (291,0);
},
{
name = ogonek;
pos = (499,10);
},
{
name = top;
pos = (291,470);
},
{
name = topright;
pos = (457,338);
}
);
layerId = m01;
shapes = (
{
closed = 1;
nodes = (
(270,-8,o),
(319,19,o),
(353,71,c),
(372,0,l),
(495,0,l),
(495,470,l),
(336,470,l),
(336,98,l),
(322,70,o),
(301,55,o),
(275,55,cs),
(222,55,o),
(200,93,o),
(200,169,cs),
(200,470,l),
(40,470,l),
(40,163,ls),
(40,48,o),
(92,-8,o),
(196,-8,cs)
);
},
{
closed = 1;
nodes = (
(541,0,l),
(541,14,l),
(486,39,l),
(481,0,l)
);
}
);
width = 581;
}
);
unicode = 117;
},
{
glyphname = v;
lastChange = "2026-05-27 02:29:08 +0000";
layers = (
{
anchors = (
{
name = bottom;
pos = (295,0);
},
{
name = top;
pos = (295,470);
}
);
layerId = m01;
shapes = (
{
closed = 1;
nodes = (
(249,0,l),
(346,0,l),
(550,471,l),
(382,471,l),
(367,404,l),
(443,391,ls),
(471,386,o),
(471,374,o),
(463,354,cs),
(369,136,l),
(228,471,l),
(40,471,l)
);
}
);
width = 590;
}
);
unicode = 118;
},
{
glyphname = w;
lastChange = "2026-05-27 02:29:08 +0000";
layers = (
{
anchors = (
{
name = bottom;
pos = (439,0);
},
{
name = top;
pos = (439,470);
}
);
layerId = m01;
shapes = (
{
closed = 1;
nodes = (
(243,0,l),
(334,0,l),
(462,339,l),
(433,349,l),
(358,144,l),
(227,471,l),
(40,471,l)
);
},
{
closed = 1;
nodes = (
(546,0,l),
(634,0,l),
(838,471,l),
(673,471,l),
(658,404,l),
(734,391,ls),
(762,386,o),
(762,374,o),
(754,354,cs),
(663,144,l),
(537,471,l),
(342,471,l)
);
}
);
width = 878;
}
);
unicode = 119;
},
{
glyphname = x;
lastChange = "2026-05-27 02:29:08 +0000";
layers = (
{
anchors = (
{
name = bottom;
pos = (290,0);
},
{
name = top;
pos = (290,470);
}
);
layerId = m01;
shapes = (
{
closed = 1;
nodes = (
(539,0,l),
(239,470,l),
(43,470,l),
(343,0,l)
);
},
{
closed = 1;
nodes = (
(529,470,l),
(355,470,l),
(342,412,l),
(413,395,ls),
(427,392,o),
(426,384,o),
(416,372,cs),
(339,271,l),
(359,249,l)
);
},
{
closed = 1;
nodes = (
(40,0,l),
(215,0,l),
(232,65,l),
(161,82,ls),
(147,85,o),
(148,93,o),
(158,105,cs),
(231,201,l),
(210,223,l)
);
}
);
width = 579;
}
);
unicode = 120;
},
{
glyphname = y;
lastChange = "2026-05-28 22:02:50 +0000";
layers = (
{
anchors = (
{
name = bottom;
pos = (291,0);
},
{
name = top;
pos = (291,470);
}
);
layerId = m01;
shapes = (
{
closed = 1;
nodes = (
(249,1,l),
(334,1,l),
(301,-92,ls),
(275,-165,o),
(260,-187,o),
(236,-187,cs),
(211,-187,o),
(201,-149,o),
(198,-75,c),
(95,-84,l),
(83,-200,l),
(98,-205,o),
(168,-236,o),
(228,-224,cs),
(274,-215,o),
(297,-195,o),
(335,-92,cs),
(542,472,l),
(382,472,l),
(367,405,l),
(443,392,ls),
(471,387,o),
(470,375,o),
(463,355,cs),
(374,110,l),
(228,472,l),
(40,472,l)
);
}
);
width = 582;
}
);
unicode = 121;
},
{
glyphname = z;
lastChange = "2026-05-27 02:29:08 +0000";
layers = (
{
anchors = (
{
name = bottom;
pos = (258,0);
},
{
name = center;
pos = (258,235);
},
{
name = top;
pos = (258,470);
}
);
layerId = m01;
shapes = (
{
closed = 1;
nodes = (
(53,472,l),
(468,472,l),
(468,439,l),
(224,31,l),
(287,31,ls),
(361,31,o),
(442,135,o),
(460,187,c),
(476,187,l),
(476,0,l),
(40,0,l),
(40,33,l),
(285,441,l),
(246,441,ls),
(169,443,o),
(94,387,o),
(70,293,c),
(53,293,l)
);
}
);
width = 516;
}
);
unicode = 122;
},
{
glyphname = fi;
lastChange = "2026-06-03 22:59:01 +0000";
layers = (
{
anchors = (
{
name = caret_1;
pos = (302,0);
}
);
layerId = m01;
shapes = (
{
closed = 1;
nodes = (
(422,514,l),
(471,654,l),
(424,684,o),
(372,699,o),
(315,699,cs),
(182,699,o),
(116,630,o),
(116,493,cs),
(116,-1,l),
(273,-1,l),
(274,595,ls),
(274,648,o),
(288,674,o),
(315,674,cs),
(346,674,o),
(379,620,o),
(412,514,c)
);
},
{
closed = 1;
nodes = (
(40,437,l),
(408,437,l),
(408,470,l),
(40,470,l)
);
},
{
closed = 1;
nodes = (
(554,0,l),
(554,470,l),
(401,470,l),
(401,0,l)
);
}
);
width = 604;
}
);
metricLeft = f;
unicode = 64257;
},
{
glyphname = fl;
lastChange = "2026-06-03 22:58:44 +0000";
layers = (
{
anchors = (
{
name = caret_1;
pos = (354,0);
}
);
layerId = m01;
shapes = (
{
closed = 1;
nodes = (
(422,514,l),
(471,654,l),
(424,684,o),
(372,699,o),
(315,699,cs),
(182,699,o),
(116,630,o),
(116,493,cs),
(116,-1,l),
(273,-1,l),
(274,595,ls),
(274,648,o),
(288,674,o),
(315,674,cs),
(346,674,o),
(379,620,o),
(412,514,c)
);
},
{
closed = 1;
nodes = (
(40,437,l),
(408,437,l),
(408,470,l),
(40,470,l)
);
},
{
closed = 1;
nodes = (
(658,713,l),
(451,697,l),
(451,684,l),
(495,667,l),
(495,0,l),
(658,0,l)
);
}
);
width = 708;
}
);
metricLeft = f;
unicode = 64258;
},
{
glyphname = "Be-cy";
lastChange = "2026-06-02 23:14:37 +0000";
layers = (
{
layerId = m01;
shapes = (
{
closed = 1;
nodes = (
(227,391,l),
(322,389,ls),
(402,387,o),
(461,328,o),
(461,204,cs),
(461,89,o),
(402,32,o),
(322,30,cs),
(227,28,l),
(227,0,l),
(399,0,ls),
(543,0,o),
(639,68,o),
(639,204,cs),
(639,348,o),
(543,420,o),
(399,420,cs),
(227,420,l)
);
},
{
closed = 1;
nodes = (
(92,0,l),
(277,0,l),
(277,700,l),
(92,700,l)
);
},
{
closed = 1;
nodes = (
(276,631,l),
(276,700,l),
(50,700,l),
(50,685,l),
(92,669,l),
(92,631,l)
);
},
{
closed = 1;
nodes = (
(483,670,l),
(483,542,l),
(588,500,l),
(588,699,l),
(245,700,l),
(245,670,l)
);
}
);
width = 679;
}
);
unicode = 1041;
},
{
glyphname = "Ge-cy";
lastChange = "2026-06-02 23:17:03 +0000";
layers = (
{
anchors = (
{
name = bottom;
pos = (285,0);
},
{
name = bottomright;
pos = (551,0);
},
{
name = top;
pos = (285,700);
}
);
layerId = m01;
shapes = (
{
closed = 1;
nodes = (
(92,0,l),
(278,0,l),
(278,700,l),
(92,700,l)
);
},
{
closed = 1;
nodes = (
(426,670,l),
(426,542,l),
(531,500,l),
(531,699,l),
(188,700,l),
(188,670,l)
);
},
{
closed = 1;
nodes = (
(276,631,l),
(276,700,l),
(50,700,l),
(50,685,l),
(92,669,l),
(92,631,l)
);
}
);
width = 571;
}
);
unicode = 1043;
},
{
glyphname = "Geupturn-cy";
lastChange = "2026-06-03 01:10:04 +0000";
layers = (
{
layerId = m01;
shapes = (
{
closed = 1;
nodes = (
(91,0,l),
(277,0,l),
(277,700,l),
(91,700,l)
);
},
{
closed = 1;
nodes = (
(187,670,l),
(530,671,l),
(530,830,l),
(425,788,l),
(425,700,l),
(187,700,l)
);
},
{
closed = 1;
nodes = (
(276,631,l),
(276,700,l),
(50,700,l),
(50,685,l),
(92,669,l),
(92,631,l)
);
}
);
width = 570;
}
);
unicode = 1168;
},
{
glyphname = "De-cy";
lastChange = "2026-06-02 23:24:33 +0000";
layers = (
{
anchors = (
{
name = bottom;
pos = (382,0);
},
{
name = top;
pos = (382,700);
}
);
layerId = m01;
shapes = (
{
closed = 1;
nodes = (
(618,0,l),
(618,-108,l),
(723,-150,l),
(723,29,l),
(40,29,l),
(40,-150,l),
(145,-108,l),
(145,0,l)
);
},
{
closed = 1;
nodes = (
(410,0,l),
(596,0,l),
(596,700,l),
(410,700,l)
);
},
{
closed = 1;
nodes = (
(84,670,l),
(710,670,l),
(710,700,l),
(84,700,l)
);
},
{
attr = {
strokeWidth = 30;
};
closed = 0;
nodes = (
(251,690,l),
(221,204,ls),
(217,134,o),
(160,39,o),
(142,8,c)
);
}
);
width = 763;
}
);
unicode = 1044;
},
{
glyphname = "Zhe-cy";
lastChange = "2026-06-02 23:59:49 +0000";
layers = (
{
anchors = (
{
name = bottom;
pos = (523,0);
},
{
name = bottomright;
pos = (1026,0);
},
{
name = top;
pos = (523,700);
}
);
layerId = m01;
shapes = (
{
closed = 1;
nodes = (
(616,0,l),
(616,700,l),
(432,700,l),
(432,0,l)
);
},
{
closed = 1;
nodes = (
(596,253,o),
(934,699,o),
(939,700,c),
(721,700,l),
(706,621,l),
(792,597,ls),
(805,593,o),
(807,586,o),
(797,573,cs),
(583,291,l),
(596,253,l)
);
},
{
closed = 1;
nodes = (
(465,291,l),
(251,573,ls),
(241,586,o),
(243,593,o),
(256,597,cs),
(342,621,l),
(327,700,l),
(109,700,l),
(114,699,o),
(452,253,o),
(452,253,c)
);
},
{
closed = 1;
nodes = (
(40,0,l),
(232,0,l),
(396,341,l),
(287,489,l)
);
},
{
closed = 1;
nodes = (
(650,341,l),
(814,0,l),
(1006,0,l),
(759,489,l)
);
}
);
width = 1046;
}
);
unicode = 1046;
},
{
glyphname = "Ze-cy";
lastChange = "2026-06-02 23:25:49 +0000";
layers = (
{
anchors = (
{
name = bottom;
pos = (331,0);
},
{
name = top;
pos = (331,700);
}
);
layerId = m01;
shapes = (
{
closed = 1;
nodes = (
(544,393,o),
(594,447,o),
(594,531,c),
(594,648,o),
(494,707,o),
(314,707,c),
(170,707,o),
(60,638,o),
(60,500,c),
(209,475,l),
(205,610,o),
(252,677,o),
(312,678,c),
(383,678,o),
(408,630,o),
(408,533,c),
(408,432,o),
(372,381,o),
(279,381,c),
(238,381,l),
(238,351,l),
(279,351,l),
(390,351,o),
(428,296,o),
(428,179,c),
(428,76,o),
(399,25,o),
(320,25,c),
(252,27,o),
(203,98,o),
(213,238,c),
(40,216,l),
(40,66,o),
(134,-9,o),
(321,-9,c),
(528,-9,o),
(622,59,o),
(622,196,c),
(622,286,o),
(564,345,o),
(446,371,c)
);
}
);
width = 662;
}
);
unicode = 1047;
},
{
glyphname = "Ii-cy";
lastChange = "2026-06-02 23:51:01 +0000";
layers = (
{
anchors = (
{
name = bottomright;
pos = (752,0);
},
{
name = top;
pos = (386,700);
}
);
layerId = m01;
shapes = (
{
closed = 1;
nodes = (
(680,669,l),
(722,685,l),
(722,700,l),
(517,700,l),
(496,631,l),
(680,631,l)
);
},
{
closed = 1;
nodes = (
(494,665,l),
(494,0,l),
(680,0,l),
(680,700,l),
(510,700,l)
);
},
{
closed = 1;
nodes = (
(91,0,l),
(259,0,l),
(277,46,l),
(277,700,l),
(91,700,l)
);
},
{
closed = 1;
nodes = (
(540,700,l),
(508,700,l),
(227,0,l),
(259,0,l)
);
},
{
closed = 1;
nodes = (
(92,31,l),
(50,15,l),
(50,0,l),
(255,0,l),
(276,69,l),
(92,69,l)
);
}
);
width = 772;
}
);
unicode = 1048;
},
{
glyphname = "Iishort-cy";
lastChange = "2026-06-02 23:56:28 +0000";
layers = (
{
layerId = m01;
shapes = (
{
closed = 1;
nodes = (
(680,669,l),
(722,685,l),
(722,700,l),
(517,700,l),
(496,631,l),
(680,631,l)
);
},
{
closed = 1;
nodes = (
(494,665,l),
(494,0,l),
(680,0,l),
(680,700,l),
(510,700,l)
);
},
{
closed = 1;
nodes = (
(91,0,l),
(259,0,l),
(277,46,l),
(277,700,l),
(91,700,l)
);
},
{
closed = 1;
nodes = (
(540,700,l),
(508,700,l),
(227,0,l),
(259,0,l)
);
},
{
closed = 1;
nodes = (
(266,631,l),
(255,700,l),
(50,700,l),
(50,685,l),
(92,669,l),
(92,631,l)
);
},
{
closed = 1;
nodes = (
(506,69,l),
(517,0,l),
(722,0,l),
(722,15,l),
(680,31,l),
(680,69,l)
);
},
{
closed = 1;
nodes = (
(92,31,l),
(50,15,l),
(50,0,l),
(255,0,l),
(266,69,l),
(92,69,l)
);
},
{
pos = (232,151);
ref = "brevecomb-cy";
}
);
width = 772;
}
);
unicode = 1049;
},
{
glyphname = "Ka-cy";
lastChange = "2026-06-03 00:07:13 +0000";
layers = (
{
anchors = (
{
name = bottom;
pos = (408,0);
},
{
name = bottomright;
pos = (756,0);
},
{
name = top;
pos = (387,700);
}
);
layerId = m01;
shapes = (
{
closed = 1;
nodes = (
(684,701,l),
(414,701,l),
(400,624,l),
(528,602,ls),
(534,601,o),
(536,591,o),
(530,585,cs),
(285,335,l),
(285,288,l)
);
},
{
closed = 1;
nodes = (
(292,0,l),
(292,700,l),
(50,700,l),
(50,685,l),
(94,668,l),
(94,0,l)
);
},
{
closed = 1;
nodes = (
(380,409,l),
(594,127,ls),
(604,114,o),
(602,105,o),
(589,103,cs),
(453,79,l),
(468,0,l),
(736,0,l),
(731,1,o),
(396,443,o),
(396,443,c)
);
}
);
width = 776;
}
);
unicode = 1050;
},
{
glyphname = "El-cy";
lastChange = "2026-06-03 00:18:22 +0000";
layers = (
{
anchors = (
{
name = bottom;
pos = (359,0);
}
);
layerId = m01;
shapes = (
{
closed = 1;
nodes = (
(440,685,l),
(440,0,l),
(626,0,l),
(626,700,l),
(456,700,l)
);
},
{
closed = 1;
nodes = (
(452,69,l),
(463,0,l),
(668,0,l),
(668,15,l),
(626,31,l),
(626,69,l)
);
},
{
closed = 1;
nodes = (
(222,670,l),
(512,670,l),
(512,700,l),
(223,700,l)
);
},
{
closed = 1;
nodes = (
(171,137,ls),
(169,114,o),
(165,106,o),
(146,101,cs),
(51,78,l),
(40,0,l),
(186,0,l),
(250,682,l),
(223,700,l)
);
}
);
width = 718;
}
);
unicode = 1051;
},
{
glyphname = "Em-cy";
lastChange = "2026-06-03 00:18:48 +0000";
layers = (
{
anchors = (
{
name = bottom;
pos = (454,0);
},
{
name = top;
pos = (454,700);
}
);
layerId = m01;
shapes = (
{
closed = 1;
nodes = (
(50,700,l),
(50,685,l),
(92,669,l),
(92,0,l),
(251,0,l),
(240,68,l),
(145,91,ls),
(126,96,o),
(120,104,o),
(120,127,cs),
(120,561,l),
(121,559,l),
(405,-12,l),
(598,557,l),
(598,0,l),
(775,0,l),
(773,700,l),
(610,700,l),
(466,272,l),
(242,700,l)
);
}
);
width = 825;
}
);
unicode = 1052;
},
{
glyphname = "En-cy";
lastChange = "2026-06-03 00:19:14 +0000";
layers = (
{
anchors = (
{
name = bottomright;
pos = (665,0);
}
);
layerId = m01;
shapes = (
{
closed = 1;
nodes = (
(635,0,l),
(635,700,l),
(460,700,l),
(460,0,l)
);
},
{
closed = 1;
nodes = (
(225,0,l),
(225,700,l),
(50,700,l),
(50,0,l)
);
},
{
closed = 1;
nodes = (
(486,299,l),
(392,416,l),
(194,416,l),
(288,299,l)
);
}
);
width = 685;
}
);
unicode = 1053;
},
{
glyphname = "Pe-cy";
lastChange = "2026-06-03 02:47:03 +0000";
layers = (
{
anchors = (
{
name = bottomright;
pos = (779,0);
}
);
layerId = m01;
shapes = (
{
closed = 1;
nodes = (
(268,0,l),
(268,700,l),
(82,700,l),
(82,0,l)
);
},
{
closed = 1;
nodes = (
(82,31,l),
(40,15,l),
(40,0,l),
(266,0,l),
(266,69,l),
(82,69,l)
);
},
{
closed = 1;
nodes = (
(717,700,l),
(531,700,l),
(531,0,l),
(717,0,l)
);
},
{
closed = 1;
nodes = (
(533,69,l),
(533,0,l),
(759,0,l),
(759,15,l),
(717,31,l),
(717,69,l)
);
},
{
closed = 1;
nodes = (
(137,670,l),
(646,670,l),
(646,700,l),
(137,700,l)
);
}
);
width = 799;
}
);
unicode = 1055;
},
{
glyphname = "U-cy";
lastChange = "2026-06-03 01:36:12 +0000";
layers = (
{
anchors = (
{
name = top;
pos = (321,700);
}
);
layerId = m01;
shapes = (
{
closed = 1;
nodes = (
(279,229,l),
(373,229,l),
(334,136,ls),
(303,63,o),
(290,41,o),
(266,41,cs),
(241,41,o),
(231,79,o),
(228,153,c),
(125,144,l),
(113,28,l),
(128,23,o),
(198,-8,o),
(258,4,cs),
(304,13,o),
(323,36,o),
(365,136,cs),
(602,700,l),
(442,700,l),
(427,633,l),
(503,620,ls),
(531,615,o),
(532,603,o),
(523,583,cs),
(415,327,l),
(228,700,l),
(40,700,l)
);
}
);
width = 642;
}
);
unicode = 1059;
},
{
glyphname = "Ef-cy";
lastChange = "2026-06-03 01:19:52 +0000";
layers = (
{
layerId = m01;
shapes = (
{
closed = 1;
nodes = (
(713,104,o),
(822,185,o),
(822,351,c),
(822,508,o),
(713,588,o),
(495,588,c),
(495,569,l),
(602,567,o),
(656,497,o),
(656,359,c),
(658,205,o),
(604,122,o),
(495,122,c),
(495,104,l)
);
},
{
closed = 1;
nodes = (
(367,122,l),
(258,122,o),
(204,205,o),
(206,359,c),
(206,497,o),
(260,567,o),
(367,569,c),
(367,588,l),
(149,588,o),
(40,508,o),
(40,351,c),
(40,185,o),
(149,104,o),
(367,104,c)
);
},
{
closed = 1;
nodes = (
(522,0,l),
(522,700,l),
(340,700,l),
(340,0,l)
);
},
{
closed = 1;
nodes = (
(515,651,l),
(515,700,l),
(309,700,l),
(309,685,l),
(341,669,l),
(341,651,l)
);
},
{
closed = 1;
nodes = (
(522,669,l),
(554,685,l),
(554,700,l),
(348,700,l),
(348,651,l),
(522,651,l)
);
},
{
closed = 1;
nodes = (
(341,31,l),
(309,15,l),
(309,0,l),
(515,0,l),
(515,49,l),
(341,49,l)
);
},
{
closed = 1;
nodes = (
(348,49,l),
(348,0,l),
(554,0,l),
(554,15,l),
(522,31,l),
(522,49,l)
);
}
);
width = 862;
}
);
unicode = 1060;
},
{
glyphname = "Tse-cy";
lastChange = "2026-06-03 00:39:44 +0000";
layers = (
{
layerId = m01;
shapes = (
{
closed = 1;
nodes = (
(92,0,l),
(278,0,l),
(278,700,l),
(92,700,l)
);
},
{
closed = 1;
nodes = (
(276,631,l),
(276,700,l),
(50,700,l),
(50,685,l),
(92,669,l),
(92,631,l)
);
},
{
closed = 1;
nodes = (
(490,700,l),
(490,0,l),
(676,0,l),
(676,700,l)
);
},
{
closed = 1;
nodes = (
(676,669,l),
(719,685,l),
(719,700,l),
(492,700,l),
(492,631,l),
(676,631,l)
);
},
{
closed = 1;
nodes = (
(605,0,l),
(605,30,l),
(147,30,l),
(147,0,l)
);
},
{
closed = 1;
nodes = (
(598,494,l),
(599,-118,l),
(800,-118,l),
(790,-50,l),
(698,-29,ls),
(682,-26,o),
(677,-18,o),
(677,2,cs),
(676,494,l)
);
}
);
width = 840;
}
);
unicode = 1062;
},
{
glyphname = "Che-cy";
lastChange = "2026-06-03 01:07:57 +0000";
layers = (
{
anchors = (
{
name = bottomright;
pos = (593,0);
},
{
name = top;
pos = (307,700);
}
);
layerId = m01;
shapes = (
{
closed = 1;
nodes = (
(404,337,l),
(390,303,o),
(349,285,o),
(299,285,cs),
(252,285,o),
(196,323,o),
(196,399,cs),
(196,700,l),
(40,700,l),
(40,376,ls),
(40,266,o),
(129,222,o),
(239,222,cs),
(340,222,o),
(387,252,o),
(422,308,c)
);
},
{
closed = 1;
nodes = (
(400,0,l),
(563,0,l),
(563,700,l),
(400,700,l)
);
}
);
width = 613;
}
);
unicode = 1063;
},
{
glyphname = "Sha-cy";
lastChange = "2026-06-03 00:37:02 +0000";
layers = (
{
anchors = (
{
name = bottom;
pos = (470,0);
},
{
name = top;
pos = (470,700);
}
);
layerId = m01;
shapes = (
{
closed = 1;
nodes = (
(92,0,l),
(278,0,l),
(278,700,l),
(92,700,l)
);
},
{
closed = 1;
nodes = (
(276,631,l),
(276,700,l),
(50,700,l),
(50,685,l),
(92,669,l),
(92,631,l)
);
},
{
closed = 1;
nodes = (
(660,700,l),
(660,0,l),
(846,0,l),
(846,700,l)
);
},
{
closed = 1;
nodes = (
(846,669,l),
(889,685,l),
(889,700,l),
(662,700,l),
(662,631,l),
(846,631,l)
);
},
{
closed = 1;
nodes = (
(775,0,l),
(775,30,l),
(147,30,l),
(147,0,l)
);
},
{
closed = 1;
nodes = (
(381,700,l),
(381,0,l),
(557,0,l),
(557,700,l)
);
}
);
width = 939;
}
);
unicode = 1064;
},
{
glyphname = "Shcha-cy";
lastChange = "2026-06-03 00:38:52 +0000";
layers = (
{
layerId = m01;
shapes = (
{
closed = 1;
nodes = (
(92,0,l),
(278,0,l),
(278,700,l),
(92,700,l)
);
},
{
closed = 1;
nodes = (
(276,631,l),
(276,700,l),
(50,700,l),
(50,685,l),
(92,669,l),
(92,631,l)
);
},
{
closed = 1;
nodes = (
(660,700,l),
(660,0,l),
(846,0,l),
(846,700,l)
);
},
{
closed = 1;
nodes = (
(846,669,l),
(889,685,l),
(889,700,l),
(662,700,l),
(662,631,l),
(846,631,l)
);
},
{
closed = 1;
nodes = (
(775,0,l),
(775,30,l),
(147,30,l),
(147,0,l)
);
},
{
closed = 1;
nodes = (
(381,700,l),
(381,0,l),
(557,0,l),
(557,700,l)
);
},
{
closed = 1;
nodes = (
(768,494,l),
(769,-118,l),
(970,-118,l),
(960,-50,l),
(868,-29,ls),
(852,-26,o),
(847,-18,o),
(847,2,cs),
(846,494,l)
);
}
);
width = 1010;
}
);
unicode = 1065;
},
{
glyphname = "Softsign-cy";
lastChange = "2026-06-03 01:03:42 +0000";
layers = (
{
anchors = (
{
name = top;
pos = (330,700);
}
);
layerId = m01;
shapes = (
{
closed = 1;
nodes = (
(207,351,l),
(302,349,ls),
(382,347,o),
(431,288,o),
(431,184,cs),
(431,89,o),
(382,32,o),
(302,30,cs),
(207,28,l),
(207,0,l),
(379,0,ls),
(523,0,o),
(619,68,o),
(619,184,cs),
(619,308,o),
(523,380,o),
(379,380,cs),
(207,380,l)
);
},
{
closed = 1;
nodes = (
(92,0,l),
(257,0,l),
(257,700,l),
(92,700,l)
);
},
{
closed = 1;
nodes = (
(92,28,l),
(50,12,l),
(50,0,l),
(256,0,l),
(256,69,l),
(92,69,l)
);
}
);
width = 659;
}
);
unicode = 1068;
},
{
glyphname = "E-cy";
lastChange = "2026-06-02 23:43:42 +0000";
layers = (
{
anchors = (
{
name = top;
pos = (343,700);
}
);
layerId = m01;
shapes = (
{
closed = 1;
nodes = (
(599,526,l),
(599,641,l),
(546,700,o),
(467,728,o),
(364,729,c),
(189,729,o),
(47,609,o),
(40,367,c),
(40,138,o),
(148,-5,o),
(364,-11,c),
(457,-12,o),
(537,16,o),
(602,73,c),
(602,191,l),
(470,191,l),
(463,77,o),
(427,19,o),
(364,19,c),
(272,20,o),
(228,136,o),
(230,367,c),
(232,587,o),
(276,696,o),
(364,696,c),
(427,696,o),
(463,640,o),
(470,526,c)
);
},
{
closed = 1;
nodes = (
(218,354,l),
(394,353,o),
(435,316,o),
(435,250,c),
(449,250,l),
(449,471,l),
(434,471,l),
(433,409,o),
(393,377,o),
(218,376,c)
);
}
);
width = 642;
}
);
unicode = 1028;
},
{
glyphname = "I-cy";
lastChange = "2026-06-03 01:09:41 +0000";
layers = (
{
anchors = (
{
name = top;
pos = (143,700);
}
);
layerId = m01;
shapes = (
{
closed = 1;
nodes = (
(236,0,l),
(236,700,l),
(50,700,l),
(50,0,l)
);
}
);
width = 286;
}
);
unicode = 1030;
},
{
glyphname = "Yi-cy";
lastChange = "2026-06-03 01:09:06 +0000";
layers = (
{
layerId = m01;
shapes = (
{
closed = 1;
nodes = (
(278,0,l),
(278,700,l),
(92,700,l),
(92,0,l)
);
},
{
pos = (20,196);
ref = dieresiscomb;
}
);
width = 369;
}
);
unicode = 1031;
},
{
glyphname = "Yu-cy";
lastChange = "2026-06-03 00:44:54 +0000";
layers = (
{
anchors = (
{
name = top;
pos = (474,700);
}
);
layerId = m01;
shapes = (
{
closed = 1;
nodes = (
(236,0,l),
(236,700,l),
(50,700,l),
(50,0,l)
);
},
{
closed = 1;
nodes = (
(543,19,o),
(510,164,o),
(510,346,cs),
(510,527,o),
(543,680,o),
(630,680,cs),
(716,680,o),
(749,527,o),
(749,346,cs),
(749,164,o),
(716,19,o),
(630,19,cs)
);
},
{
closed = 1;
nodes = (
(848,-11,o),
(933,150,o),
(933,349,cs),
(933,548,o),
(848,710,o),
(631,710,cs),
(411,710,o),
(326,548,o),
(326,349,cs),
(326,150,o),
(411,-11,o),
(631,-11,cs)
);
},
{
closed = 1;
nodes = (
(198,334,l),
(356,334,l),
(356,364,l),
(198,364,l)
);
}
);
width = 973;
}
);
unicode = 1070;
},
{
glyphname = "Ya-cy";
lastChange = "2026-06-03 22:22:40 +0000";
layers = (
{
anchors = (
{
name = top;
pos = (335,700);
}
);
layerId = m01;
shapes = (
{
closed = 1;
nodes = (
(259,650,o),
(316,671,o),
(423,671,c),
(422,352,l),
(346,352,o),
(259,359,o),
(259,512,c)
);
},
{
closed = 1;
nodes = (
(609,700,l),
(317,700,l),
(133,700,o),
(75,596,o),
(75,509,c),
(75,332,o),
(262,293,o),
(423,304,c),
(424,0,l),
(607,0,l)
);
},
{
closed = 1;
nodes = (
(281,358,o),
(45,1,o),
(40,0,c),
(328,0,l),
(343,79,l),
(250,103,ls),
(237,106,o),
(238,116,o),
(245,127,cs),
(364,308,l),
(281,358,l)
);
}
);
width = 659;
}
);
unicode = 1071;
},
{
glyphname = "a-cy";
lastChange = "2026-06-03 21:57:04 +0000";
layers = (
{
anchors = (
{
name = bottom;
pos = (279,0);
},
{
name = ogonek;
pos = (501,10);
},
{
name = top;
pos = (274,474);
}
);
layerId = m01;
shapes = (
{
closed = 1;
nodes = (
(230,-9,o),
(275,14,o),
(311,60,c),
(314,46,o),
(341,-7,o),
(408,-7,cs),
(478,-7,o),
(509,29,o),
(517,52,c),
(505,64,l),
(479,41,o),
(454,49,o),
(454,129,cs),
(454,282,ls),
(454,419,o),
(387,478,o),
(253,478,cs),
(181,478,o),
(135,460,o),
(70,426,c),
(119,315,l),
(127,315,l),
(160,388,o),
(175,457,o),
(241,457,cs),
(288,457,o),
(307,410,o),
(303,306,c),
(135,274,o),
(40,220,o),
(40,128,cs),
(40,31,o),
(105,-9,o),
(178,-9,cs)
);
},
{
closed = 1;
nodes = (
(202,53,o),
(171,80,o),
(171,151,cs),
(171,220,o),
(259,253,o),
(303,273,c),
(303,86,ls),
(303,76,o),
(275,53,o),
(247,53,cs)
);
}
);
width = 547;
}
);
unicode = 1072;
},
{
glyphname = "be-cy";
lastChange = "2026-06-03 03:13:14 +0000";
layers = (
{
layerId = m01;
shapes = (
{
closed = 1;
nodes = (
(446,-9,o),
(560,71,o),
(560,233,c),
(560,371,o),
(475,461,o),
(307,462,c),
(202,462,o),
(128,411,o),
(87,311,c),
(93,469,o),
(162,568,o),
(296,568,c),
(412,568,l),
(462,568,o),
(514,584,o),
(516,670,c),
(519,734,l),
(495,734,l),
(495,706,o),
(493,691,o),
(431,690,c),
(339,690,l),
(143,690,o),
(40,543,o),
(40,302,c),
(40,109,o),
(148,-5,o),
(305,-9,c)
);
},
{
closed = 1;
nodes = (
(255,24,o),
(208,105,o),
(205,245,c),
(206,379,o),
(259,438,o),
(306,439,c),
(359,439,o),
(406,379,o),
(405,245,c),
(405,105,o),
(358,24,o),
(306,24,c)
);
}
);
width = 600;
}
);
unicode = 1073;
},
{
glyphname = "ve-cy";
lastChange = "2026-06-03 21:56:40 +0000";
layers = (
{
anchors = (
{
name = top;
pos = (287,470);
}
);
layerId = m01;
shapes = (
{
closed = 1;
nodes = (
(345,241,ls),
(434,245,o),
(508,282,o),
(508,363,cs),
(508,438,o),
(423,474,o),
(323,474,cs),
(223,474,l),
(223,453,l),
(291,453,ls),
(337,452,o),
(374,409,o),
(374,363,cs),
(374,300,o),
(337,260,o),
(291,259,cs),
(223,257,l),
(223,237,l)
);
},
{
closed = 1;
nodes = (
(247,0,l),
(247,474,l),
(82,474,l),
(82,0,l)
);
},
{
closed = 1;
nodes = (
(344,0,ls),
(453,0,o),
(533,41,o),
(533,127,cs),
(533,220,o),
(444,256,o),
(364,257,cs),
(223,257,l),
(223,234,l),
(293,233,ls),
(358,232,o),
(393,195,o),
(393,127,cs),
(393,66,o),
(351,23,o),
(296,21,cs),
(242,21,l),
(242,0,l)
);
},
{
closed = 1;
nodes = (
(246,405,l),
(246,474,l),
(40,474,l),
(40,459,l),
(82,443,l),
(82,405,l)
);
}
);
width = 573;
}
);
unicode = 1074;
},
{
glyphname = "ge-cy";
lastChange = "2026-06-03 21:56:04 +0000";
layers = (
{
anchors = (
{
name = bottom;
pos = (261,0);
},
{
name = bottomright;
pos = (501,0);
},
{
name = top;
pos = (261,470);
}
);
layerId = m01;
shapes = (
{
closed = 1;
nodes = (
(92,0,l),
(258,0,l),
(258,470,l),
(92,470,l)
);
},
{
closed = 1;
nodes = (
(376,440,l),
(376,402,l),
(481,360,l),
(481,469,l),
(168,470,l),
(168,440,l)
);
},
{
closed = 1;
nodes = (
(256,401,l),
(256,470,l),
(50,470,l),
(50,455,l),
(92,439,l),
(92,401,l)
);
}
);
width = 521;
}
);
unicode = 1075;
},
{
glyphname = "geupturn-cy";
lastChange = "2026-06-03 21:55:48 +0000";
layers = (
{
layerId = m01;
shapes = (
{
closed = 1;
nodes = (
(91,0,l),
(257,0,l),
(257,470,l),
(91,470,l)
);
},
{
closed = 1;
nodes = (
(187,440,l),
(480,441,l),
(480,560,l),
(375,518,l),
(375,470,l),
(187,470,l)
);
},
{
closed = 1;
nodes = (
(256,401,l),
(256,470,l),
(50,470,l),
(50,455,l),
(92,439,l),
(92,401,l)
);
}
);
width = 520;
}
);
unicode = 1169;
},
{
glyphname = "de-cy";
lastChange = "2026-06-03 21:55:37 +0000";
layers = (
{
anchors = (
{
name = bottom;
pos = (352,0);
},
{
name = top;
pos = (352,470);
}
);
layerId = m01;
shapes = (
{
closed = 1;
nodes = (
(568,0,l),
(568,-88,l),
(663,-130,l),
(663,29,l),
(40,29,l),
(40,-130,l),
(135,-88,l),
(135,0,l)
);
},
{
closed = 1;
nodes = (
(380,0,l),
(546,0,l),
(546,470,l),
(380,470,l)
);
},
{
closed = 1;
nodes = (
(74,440,l),
(660,440,l),
(660,470,l),
(74,470,l)
);
},
{
attr = {
strokeWidth = 30;
};
closed = 0;
nodes = (
(241,460,l),
(213,219,ls),
(199,100,o),
(150,39,o),
(132,8,c)
);
}
);
width = 703;
}
);
unicode = 1076;
},
{
glyphname = "zhe-cy";
lastChange = "2026-06-03 21:55:23 +0000";
layers = (
{
anchors = (
{
name = bottom;
pos = (438,0);
},
{
name = bottomright;
pos = (891,0);
},
{
name = top;
pos = (438,470);
}
);
layerId = m01;
shapes = (
{
closed = 1;
nodes = (
(517,0,l),
(517,471,l),
(359,471,l),
(359,0,l)
);
},
{
closed = 1;
nodes = (
(472,111,o),
(813,470,o),
(818,471,c),
(610,471,l),
(595,392,l),
(658,372,ls),
(671,368,o),
(675,361,o),
(663,348,cs),
(469,152,l),
(472,111,l)
);
},
{
closed = 1;
nodes = (
(836,0,l),
(631,287,l),
(548,202,l),
(684,0,l)
);
},
{
closed = 1;
nodes = (
(407,152,l),
(213,348,ls),
(201,361,o),
(205,368,o),
(218,372,cs),
(281,392,l),
(266,471,l),
(58,471,l),
(63,470,o),
(404,111,o),
(404,111,c)
);
},
{
closed = 1;
nodes = (
(192,0,l),
(328,202,l),
(245,287,l),
(40,0,l)
);
}
);
width = 876;
}
);
unicode = 1078;
},
{
glyphname = "ze-cy";
lastChange = "2026-06-03 21:51:24 +0000";
layers = (
{
anchors = (
{
name = bottom;
pos = (251,0);
},
{
name = top;
pos = (251,477);
}
);
layerId = m01;
shapes = (
{
closed = 1;
nodes = (
(396,265,o),
(441,286,o),
(441,355,c),
(441,448,o),
(350,479,o),
(233,479,c),
(152,479,o),
(54,431,o),
(54,333,c),
(169,316,l),
(166,411,o),
(190,458,o),
(232,459,c),
(282,459,o),
(300,425,o),
(300,357,c),
(300,288,o),
(274,258,o),
(209,258,c),
(180,258,l),
(180,233,l),
(209,233,l),
(287,233,o),
(314,196,o),
(314,117,c),
(314,54,o),
(293,15,o),
(238,15,c),
(190,16,o),
(165,67,o),
(172,155,c),
(40,140,l),
(40,44,o),
(113,-9,o),
(238,-9,c),
(377,-9,o),
(461,32,o),
(461,129,c),
(461,202,o),
(410,231,o),
(327,249,c)
);
}
);
width = 501;
}
);
unicode = 1079;
},
{
glyphname = "ii-cy";
lastChange = "2026-06-03 21:54:05 +0000";
layers = (
{
anchors = (
{
name = bottomright;
pos = (662,0);
},
{
name = top;
pos = (341,470);
}
);
layerId = m01;
shapes = (
{
closed = 1;
nodes = (
(590,439,l),
(632,455,l),
(632,470,l),
(447,470,l),
(426,401,l),
(590,401,l)
);
},
{
closed = 1;
nodes = (
(424,435,l),
(424,0,l),
(590,0,l),
(590,470,l),
(440,470,l)
);
},
{
closed = 1;
nodes = (
(91,0,l),
(239,0,l),
(257,46,l),
(257,471,l),
(91,471,l)
);
},
{
closed = 1;
nodes = (
(470,470,l),
(438,470,l),
(207,0,l),
(239,0,l)
);
},
{
closed = 1;
nodes = (
(92,31,l),
(50,15,l),
(50,0,l),
(235,0,l),
(256,69,l),
(92,69,l)
);
}
);
width = 682;
}
);
unicode = 1080;
},
{
glyphname = "iishort-cy";
lastChange = "2026-06-03 21:52:52 +0000";
layers = (
{
layerId = m01;
shapes = (
{
closed = 1;
nodes = (
(590,439,l),
(632,455,l),
(632,470,l),
(447,470,l),
(426,401,l),
(590,401,l)
);
},
{
closed = 1;
nodes = (
(424,435,l),
(424,0,l),
(590,0,l),
(590,470,l),
(440,470,l)
);
},
{
closed = 1;
nodes = (
(91,0,l),
(239,0,l),
(257,46,l),
(257,470,l),
(91,470,l)
);
},
{
closed = 1;
nodes = (
(470,470,l),
(438,470,l),
(207,0,l),
(239,0,l)
);
},
{
closed = 1;
nodes = (
(92,31,l),
(50,15,l),
(50,0,l),
(235,0,l),
(256,69,l),
(92,69,l)
);
},
{
closed = 1;
nodes = (
(246,401,l),
(235,470,l),
(50,470,l),
(50,455,l),
(92,439,l),
(92,401,l)
);
},
{
closed = 1;
nodes = (
(436,69,l),
(447,0,l),
(632,0,l),
(632,15,l),
(590,31,l),
(590,69,l)
);
},
{
pos = (190,-38);
ref = "brevecomb-cy";
}
);
width = 682;
}
);
unicode = 1081;
},
{
glyphname = "ka-cy";
lastChange = "2026-06-03 21:53:51 +0000";
layers = (
{
anchors = (
{
name = bottom;
pos = (329,0);
},
{
name = bottomright;
pos = (638,0);
},
{
name = top;
pos = (329,470);
}
);
layerId = m01;
shapes = (
{
closed = 1;
nodes = (
(564,481,l),
(324,481,l),
(310,404,l),
(402,382,ls),
(408,381,o),
(410,371,o),
(404,365,cs),
(165,135,l),
(165,88,l)
);
},
{
closed = 1;
nodes = (
(252,0,l),
(252,480,l),
(50,480,l),
(50,465,l),
(94,448,l),
(94,0,l)
);
},
{
closed = 1;
nodes = (
(356,297,l),
(481,128,ls),
(490,115,o),
(489,107,o),
(476,104,cs),
(365,78,l),
(380,-1,l),
(618,-1,l),
(613,0,o),
(379,322,o),
(379,322,c)
);
}
);
width = 658;
}
);
unicode = 1082;
},
{
glyphname = "el-cy";
lastChange = "2026-06-03 21:57:23 +0000";
layers = (
{
anchors = (
{
name = bottom;
pos = (314,0);
}
);
layerId = m01;
shapes = (
{
closed = 1;
nodes = (
(380,455,l),
(380,0,l),
(536,0,l),
(536,470,l),
(396,470,l)
);
},
{
closed = 1;
nodes = (
(392,69,l),
(403,0,l),
(578,0,l),
(578,15,l),
(536,31,l),
(536,69,l)
);
},
{
closed = 1;
nodes = (
(202,440,l),
(462,440,l),
(462,470,l),
(203,470,l)
);
},
{
closed = 1;
nodes = (
(169,114,ls),
(167,91,o),
(163,83,o),
(144,78,cs),
(49,55,l),
(40,0,l),
(188,0,l),
(230,452,l),
(203,470,l)
);
}
);
width = 628;
}
);
unicode = 1083;
},
{
glyphname = "em-cy";
lastChange = "2026-06-03 22:00:26 +0000";
layers = (
{
layerId = m01;
shapes = (
{
closed = 1;
nodes = (
(40,470,l),
(40,455,l),
(82,439,l),
(82,0,l),
(231,0,l),
(220,58,l),
(135,81,ls),
(116,86,o),
(110,94,o),
(110,117,cs),
(111,388,l),
(351,-16,l),
(488,327,l),
(488,0,l),
(645,0,l),
(643,470,l),
(513,470,l),
(391,152,l),
(212,470,l)
);
}
);
width = 695;
}
);
unicode = 1084;
},
{
glyphname = "en-cy";
lastChange = "2026-06-03 22:01:12 +0000";
layers = (
{
anchors = (
{
name = bottomright;
pos = (595,0);
}
);
layerId = m01;
shapes = (
{
closed = 1;
nodes = (
(565,0,l),
(565,470,l),
(410,470,l),
(410,0,l)
);
},
{
closed = 1;
nodes = (
(205,0,l),
(205,470,l),
(50,470,l),
(50,0,l)
);
},
{
closed = 1;
nodes = (
(440,194,l),
(356,271,l),
(178,271,l),
(262,194,l)
);
}
);
width = 615;
}
);
unicode = 1085;
},
{
glyphname = "pe-cy";
lastChange = "2026-06-03 22:01:43 +0000";
layers = (
{
anchors = (
{
name = bottomright;
pos = (649,0);
}
);
layerId = m01;
shapes = (
{
closed = 1;
nodes = (
(248,0,l),
(248,470,l),
(82,470,l),
(82,0,l)
);
},
{
closed = 1;
nodes = (
(82,31,l),
(40,15,l),
(40,0,l),
(246,0,l),
(246,69,l),
(82,69,l)
);
},
{
closed = 1;
nodes = (
(587,470,l),
(421,470,l),
(421,0,l),
(587,0,l)
);
},
{
closed = 1;
nodes = (
(423,69,l),
(423,0,l),
(629,0,l),
(629,15,l),
(587,31,l),
(587,69,l)
);
},
{
closed = 1;
nodes = (
(137,440,l),
(516,440,l),
(516,470,l),
(137,470,l)
);
}
);
width = 669;
}
);
unicode = 1087;
},
{
glyphname = "es-cy";
lastChange = "2026-06-03 22:02:23 +0000";
layers = (
{
anchors = (
{
name = bottomright;
pos = (478,0);
}
);
layerId = m01;
shapes = (
{
closed = 1;
nodes = (
(376,-9,o),
(429,31,o),
(458,135,c),
(439,142,l),
(412,56,o),
(364,23,o),
(308,24,cs),
(236,24,o),
(196,95,o),
(196,240,cs),
(196,385,o),
(226,457,o),
(278,457,cs),
(328,457,o),
(368,398,o),
(396,278,c),
(407,278,l),
(457,415,l),
(408,457,o),
(346,479,o),
(273,479,cs),
(140,479,o),
(40,400,o),
(40,240,cs),
(40,73,o),
(140,-10,o),
(275,-10,cs)
);
}
);
width = 498;
}
);
unicode = 1089;
},
{
glyphname = "te-cy";
lastChange = "2026-06-03 22:02:48 +0000";
layers = (
{
anchors = (
{
name = bottom;
pos = (304,0);
},
{
name = bottomright;
pos = (587,0);
},
{
name = top;
pos = (304,470);
}
);
layerId = m01;
shapes = (
{
closed = 1;
nodes = (
(387,0,l),
(386,470,l),
(221,470,l),
(222,0,l)
);
},
{
closed = 1;
nodes = (
(92,335,l),
(118,422,ls),
(122,437,o),
(129,442,o),
(147,442,cs),
(299,442,l),
(299,470,l),
(40,470,l),
(40,327,l)
);
},
{
closed = 1;
nodes = (
(567,470,l),
(308,470,l),
(308,442,l),
(460,442,ls),
(478,442,o),
(485,437,o),
(489,422,cs),
(515,335,l),
(567,327,l)
);
}
);
width = 607;
}
);
unicode = 1090;
},
{
glyphname = "ef-cy";
lastChange = "2026-06-03 02:56:34 +0000";
layers = (
{
layerId = m01;
shapes = (
{
closed = 1;
nodes = (
(643,28,o),
(743,103,o),
(743,256,c),
(743,401,o),
(643,475,o),
(441,475,c),
(441,457,l),
(540,456,o),
(590,391,o),
(590,264,c),
(592,122,o),
(542,45,o),
(441,45,c),
(441,28,l)
);
},
{
closed = 1;
nodes = (
(342,45,l),
(241,45,o),
(191,122,o),
(193,264,c),
(193,391,o),
(243,456,o),
(342,457,c),
(342,475,l),
(141,475,o),
(40,401,o),
(40,256,c),
(40,103,o),
(141,28,o),
(342,28,c)
);
},
{
closed = 1;
nodes = (
(469,-119,l),
(469,621,l),
(307,621,l),
(307,-119,l)
);
},
{
closed = 1;
nodes = (
(462,572,l),
(462,621,l),
(276,621,l),
(276,606,l),
(308,590,l),
(308,572,l)
);
},
{
closed = 1;
nodes = (
(469,590,l),
(501,606,l),
(501,621,l),
(315,621,l),
(315,572,l),
(469,572,l)
);
},
{
closed = 1;
nodes = (
(308,-88,l),
(276,-104,l),
(276,-119,l),
(462,-119,l),
(462,-70,l),
(308,-70,l)
);
},
{
closed = 1;
nodes = (
(315,-70,l),
(315,-119,l),
(501,-119,l),
(501,-104,l),
(469,-88,l),
(469,-70,l)
);
}
);
width = 783;
}
);
unicode = 1092;
},
{
glyphname = "ha-cy";
lastChange = "2026-06-03 22:04:12 +0000";
layers = (
{
anchors = (
{
name = bottom;
pos = (295,0);
},
{
name = bottomright;
pos = (569,0);
},
{
name = top;
pos = (295,470);
}
);
layerId = m01;
shapes = (
{
closed = 1;
nodes = (
(549,0,l),
(236,470,l),
(55,470,l),
(368,0,l)
);
},
{
closed = 1;
nodes = (
(535,471,l),
(361,471,l),
(348,413,l),
(419,396,ls),
(433,393,o),
(432,385,o),
(422,373,cs),
(345,272,l),
(365,250,l)
);
},
{
closed = 1;
nodes = (
(40,0,l),
(215,0,l),
(232,65,l),
(161,82,ls),
(147,85,o),
(149,93,o),
(158,105,cs),
(238,210,l),
(217,232,l)
);
}
);
width = 589;
}
);
unicode = 1093;
},
{
glyphname = "tse-cy";
lastChange = "2026-06-03 22:04:33 +0000";
layers = (
{
layerId = m01;
shapes = (
{
closed = 1;
nodes = (
(82,0,l),
(248,0,l),
(248,470,l),
(82,470,l)
);
},
{
closed = 1;
nodes = (
(246,401,l),
(246,470,l),
(40,470,l),
(40,455,l),
(82,439,l),
(82,401,l)
);
},
{
closed = 1;
nodes = (
(410,470,l),
(410,0,l),
(576,0,l),
(576,470,l)
);
},
{
closed = 1;
nodes = (
(576,439,l),
(619,455,l),
(619,470,l),
(412,470,l),
(412,401,l),
(576,401,l)
);
},
{
closed = 1;
nodes = (
(505,0,l),
(505,30,l),
(137,30,l),
(137,0,l)
);
},
{
closed = 1;
nodes = (
(498,304,l),
(499,-118,l),
(700,-118,l),
(690,-50,l),
(598,-29,ls),
(582,-26,o),
(577,-18,o),
(577,2,cs),
(576,304,l)
);
}
);
width = 740;
}
);
unicode = 1094;
},
{
glyphname = "che-cy";
lastChange = "2026-06-03 22:04:59 +0000";
layers = (
{
anchors = (
{
name = bottomright;
pos = (513,0);
},
{
name = top;
pos = (267,470);
}
);
layerId = m01;
shapes = (
{
closed = 1;
nodes = (
(40,474,l),
(40,296,ls),
(40,186,o),
(129,142,o),
(219,142,cs),
(320,142,o),
(367,172,o),
(402,228,c),
(384,257,l),
(370,223,o),
(329,205,o),
(279,205,cs),
(232,205,o),
(176,243,o),
(176,319,cs),
(176,474,l)
);
},
{
closed = 1;
nodes = (
(340,474,l),
(340,0,l),
(483,0,l),
(483,474,l)
);
}
);
width = 533;
}
);
unicode = 1095;
},
{
glyphname = "sha-cy";
lastChange = "2026-06-03 22:05:26 +0000";
layers = (
{
anchors = (
{
name = bottom;
pos = (425,0);
},
{
name = top;
pos = (425,470);
}
);
layerId = m01;
shapes = (
{
closed = 1;
nodes = (
(82,0,l),
(248,0,l),
(248,470,l),
(82,470,l)
);
},
{
closed = 1;
nodes = (
(246,401,l),
(246,470,l),
(40,470,l),
(40,455,l),
(82,439,l),
(82,401,l)
);
},
{
closed = 1;
nodes = (
(600,470,l),
(600,0,l),
(766,0,l),
(766,470,l)
);
},
{
closed = 1;
nodes = (
(766,439,l),
(809,455,l),
(809,470,l),
(602,470,l),
(602,401,l),
(766,401,l)
);
},
{
closed = 1;
nodes = (
(695,0,l),
(695,30,l),
(137,30,l),
(137,0,l)
);
},
{
closed = 1;
nodes = (
(346,470,l),
(346,0,l),
(502,0,l),
(502,470,l)
);
}
);
width = 849;
}
);
unicode = 1096;
},
{
glyphname = "shcha-cy";
lastChange = "2026-06-03 22:05:56 +0000";
layers = (
{
layerId = m01;
shapes = (
{
closed = 1;
nodes = (
(890,-118,l),
(880,-50,l),
(788,-29,ls),
(772,-26,o),
(767,-18,o),
(767,2,cs),
(766,294,l),
(688,294,l),
(689,-118,l)
);
},
{
closed = 1;
nodes = (
(248,0,l),
(248,470,l),
(82,470,l),
(82,0,l)
);
},
{
closed = 1;
nodes = (
(695,0,l),
(695,30,l),
(137,30,l),
(137,0,l)
);
},
{
closed = 1;
nodes = (
(246,401,l),
(246,470,l),
(40,470,l),
(40,455,l),
(82,439,l),
(82,401,l)
);
},
{
closed = 1;
nodes = (
(502,0,l),
(502,470,l),
(346,470,l),
(346,0,l)
);
},
{
closed = 1;
nodes = (
(766,0,l),
(766,470,l),
(600,470,l),
(600,0,l)
);
},
{
closed = 1;
nodes = (
(766,401,l),
(766,439,l),
(809,455,l),
(809,470,l),
(602,470,l),
(602,401,l)
);
}
);
width = 930;
}
);
unicode = 1097;
},
{
glyphname = "softsign-cy";
lastChange = "2026-06-03 22:06:31 +0000";
layers = (
{
anchors = (
{
name = top;
pos = (276,470);
}
);
layerId = m01;
shapes = (
{
closed = 1;
nodes = (
(177,273,l),
(261,271,ls),
(331,269,o),
(374,217,o),
(374,144,cs),
(374,78,o),
(331,28,o),
(261,26,cs),
(177,25,l),
(177,0,l),
(328,0,ls),
(455,0,o),
(512,60,o),
(512,144,cs),
(512,236,o),
(455,299,o),
(328,299,cs),
(177,299,l)
);
},
{
closed = 1;
nodes = (
(82,0,l),
(227,0,l),
(227,470,l),
(82,470,l)
);
},
{
closed = 1;
nodes = (
(82,28,l),
(40,12,l),
(40,0,l),
(226,0,l),
(226,89,l),
(82,69,l)
);
}
);
width = 552;
}
);
unicode = 1100;
},
{
glyphname = "e-cy";
lastChange = "2026-06-03 22:08:01 +0000";
layers = (
{
anchors = (
{
name = top;
pos = (243,470);
}
);
layerId = m01;
shapes = (
{
closed = 1;
nodes = (
(443,336,l),
(443,414,l),
(407,455,o),
(351,474,o),
(270,474,c),
(151,474,o),
(45,403,o),
(40,238,c),
(40,82,o),
(123,-5,o),
(270,-9,c),
(344,-10,o),
(401,9,o),
(445,48,c),
(445,128,l),
(353,128,l),
(348,51,o),
(323,11,o),
(270,11,c),
(208,12,o),
(178,91,o),
(179,238,c),
(181,378,o),
(211,452,o),
(270,452,c),
(323,452,o),
(348,414,o),
(353,336,c)
);
},
{
closed = 1;
nodes = (
(171,228,l),
(291,227,o),
(309,207,o),
(309,162,c),
(328,162,l),
(328,307,l),
(308,307,l),
(307,265,o),
(290,248,o),
(171,247,c)
);
}
);
width = 485;
}
);
unicode = 1108;
},
{
glyphname = "yu-cy";
lastChange = "2026-06-03 22:09:07 +0000";
layers = (
{
anchors = (
{
name = top;
pos = (399,470);
}
);
layerId = m01;
shapes = (
{
closed = 1;
nodes = (
(213,0,l),
(213,473,l),
(50,473,l),
(50,0,l)
);
},
{
closed = 1;
nodes = (
(660,-16,o),
(757,69,o),
(757,240,c),
(757,403,o),
(647,479,o),
(520,479,c),
(394,479,o),
(281,403,o),
(281,240,c),
(281,69,o),
(381,-16,o),
(520,-16,c)
);
},
{
closed = 1;
nodes = (
(471,8,o),
(447,83,o),
(447,240,c),
(447,387,o),
(471,456,o),
(520,456,c),
(567,456,o),
(591,387,o),
(591,240,c),
(591,83,o),
(567,8,o),
(520,8,c)
);
},
{
closed = 1;
nodes = (
(179,224,l),
(319,224,l),
(319,254,l),
(179,254,l)
);
}
);
width = 797;
}
);
unicode = 1102;
},
{
glyphname = "ya-cy";
lastChange = "2026-06-03 22:10:37 +0000";
layers = (
{
anchors = (
{
name = top;
pos = (270,470);
}
);
layerId = m01;
shapes = (
{
closed = 1;
nodes = (
(180,428,o),
(237,444,o),
(324,444,c),
(323,214,l),
(267,214,o),
(180,216,o),
(180,330,c)
);
},
{
closed = 1;
nodes = (
(490,473,l),
(238,473,l),
(74,473,o),
(46,387,o),
(46,330,c),
(46,186,o),
(183,183,o),
(324,183,c),
(325,0,l),
(488,0,l)
);
},
{
closed = 1;
nodes = (
(195,235,o),
(43,1,o),
(40,0,c),
(253,0,l),
(264,59,l),
(195,76,ls),
(186,79,o),
(187,86,o),
(192,94,cs),
(269,210,l),
(195,235,l)
);
}
);
width = 540;
}
);
unicode = 1103;
},
{
glyphname = Omega;
lastChange = "2026-06-02 20:41:05 +0000";
layers = (
{
anchors = (
{
name = bottom;
pos = (397,0);
},
{
name = topleft;
pos = (20,700);
}
);
layerId = m01;
shapes = (
{
closed = 1;
nodes = (
(334,0,l),
(317,135,l),
(222,183,o),
(178,277,o),
(183,419,cs),
(183,563,o),
(274,676,o),
(398,676,cs),
(521,676,o),
(610,563,o),
(610,419,cs),
(615,277,o),
(571,183,o),
(476,135,c),
(459,0,l),
(729,0,l),
(753,167,l),
(730,167,l),
(713,102,o),
(693,88,o),
(610,90,cs),
(511,90,l),
(513,114,l),
(652,170,o),
(721,271,o),
(722,419,cs),
(722,570,o),
(592,713,o),
(397,713,cs),
(203,713,o),
(71,570,o),
(71,419,cs),
(72,271,o),
(141,170,o),
(280,114,c),
(282,90,l),
(183,90,ls),
(100,88,o),
(80,102,o),
(63,167,c),
(40,167,l),
(64,0,l)
);
}
);
width = 793;
}
);
unicode = 937;
},
{
glyphname = pi;
lastChange = "2026-06-03 22:32:14 +0000";
layers = (
{
layerId = m01;
shapes = (
{
closed = 1;
nodes = (
(129,470,l),
(130,0,l),
(218,0,l),
(218,470,l)
);
},
{
closed = 1;
nodes = (
(412,470,l),
(413,0,l),
(603,0,l),
(592,58,l),
(527,71,ls),
(507,75,o),
(502,84,o),
(502,107,cs),
(501,470,l)
);
},
{
closed = 1;
nodes = (
(40,440,l),
(588,440,l),
(588,470,l),
(40,470,l)
);
}
);
width = 633;
}
);
unicode = 960;
},
{
glyphname = omega;
lastChange = "2026-06-02 20:40:39 +0000";
layers = (
{
anchors = (
{
name = bottom;
pos = (375,0);
},
{
name = top;
pos = (375,470);
}
);
layerId = m01;
shapes = (
{
closed = 1;
nodes = (
(598,507,o),
(710,398,o),
(710,243,cs),
(710,76,o),
(628,-8,o),
(515,-8,cs),
(458,-8,o),
(408,28,o),
(375,98,c),
(342,28,o),
(292,-8,o),
(235,-8,cs),
(122,-8,o),
(40,76,o),
(40,243,cs),
(40,398,o),
(152,507,o),
(274,507,c),
(275,483,l),
(185,458,o),
(141,378,o),
(141,243,cs),
(137,126,o),
(177,29,o),
(235,29,cs),
(292,29,o),
(330,73,o),
(347,161,c),
(332,194,o),
(321,229,o),
(321,290,cs),
(321,354,o),
(332,398,o),
(374,398,cs),
(416,398,o),
(429,354,o),
(429,290,cs),
(429,229,o),
(418,194,o),
(403,161,c),
(420,73,o),
(458,29,o),
(515,29,cs),
(573,29,o),
(613,126,o),
(609,243,cs),
(609,378,o),
(565,458,o),
(475,483,c),
(476,507,l)
);
}
);
width = 750;
}
);
unicode = 969;
},
{
glyphname = zero;
lastChange = "2026-06-01 21:50:06 +0000";
layers = (
{
layerId = m01;
shapes = (
{
closed = 1;
nodes = (
(498,-14,o),
(620,102,o),
(620,349,cs),
(620,591,o),
(490,707,o),
(333,707,cs),
(172,707,o),
(40,591,o),
(40,349,cs),
(40,102,o),
(164,-14,o),
(333,-14,cs)
);
},
{
closed = 1;
nodes = (
(267,16,o),
(234,126,o),
(234,349,cs),
(234,567,o),
(267,678,o),
(333,678,cs),
(398,678,o),
(431,567,o),
(431,349,cs),
(431,126,o),
(398,16,o),
(333,16,cs)
);
}
);
width = 660;
}
);
unicode = 48;
},
{
glyphname = one;
lastChange = "2026-05-26 23:45:52 +0000";
layers = (
{
layerId = m01;
shapes = (
{
closed = 1;
nodes = (
(333,702,l),
(305,702,l),
(233,658,o),
(144,614,o),
(40,570,c),
(40,546,l),
(142,569,l),
(142,0,l),
(333,0,l)
);
}
);
width = 383;
}
);
unicode = 49;
},
{
glyphname = two;
lastChange = "2026-05-26 23:45:26 +0000";
layers = (
{
layerId = m01;
shapes = (
{
closed = 1;
nodes = (
(565,0,l),
(582,240,l),
(558,240,l),
(553,194,o),
(526,144,o),
(426,146,c),
(120,146,l),
(209,277,o),
(570,260,o),
(574,501,c),
(574,632,o),
(481,705,o),
(296,705,c),
(125,705,o),
(40,627,o),
(40,472,c),
(218,449,l),
(209,598,o),
(234,673,o),
(295,674,c),
(351,674,o),
(379,609,o),
(379,518,c),
(379,305,o),
(40,286,o),
(40,1,c),
(565,1,l)
);
}
);
width = 622;
}
);
unicode = 50;
},
{
glyphname = three;
lastChange = "2026-05-12 02:57:27 +0000";
layers = (
{
layerId = m01;
shapes = (
{
closed = 1;
nodes = (
(524,393,o),
(574,447,o),
(574,531,c),
(574,648,o),
(474,707,o),
(314,707,c),
(170,707,o),
(60,638,o),
(60,500,c),
(229,475,l),
(225,610,o),
(252,677,o),
(312,678,c),
(363,678,o),
(388,630,o),
(388,533,c),
(388,432,o),
(352,381,o),
(279,381,c),
(238,381,l),
(238,351,l),
(279,351,l),
(370,351,o),
(408,296,o),
(408,179,c),
(408,76,o),
(379,25,o),
(320,25,c),
(252,27,o),
(223,98,o),
(233,238,c),
(40,216,l),
(40,66,o),
(134,-9,o),
(321,-9,c),
(508,-9,o),
(602,59,o),
(602,196,c),
(602,286,o),
(544,345,o),
(426,371,c)
);
}
);
width = 642;
}
);
unicode = 51;
},
{
glyphname = four;
lastChange = "2026-05-27 03:25:39 +0000";
layers = (
{
layerId = m01;
shapes = (
{
closed = 1;
nodes = (
(274,700,l),
(266,483,o),
(188,302,o),
(40,156,c),
(381,156,l),
(381,0,l),
(545,0,l),
(545,156,l),
(599,156,l),
(599,212,l),
(545,212,l),
(545,519,l),
(524,519,l),
(496,441,o),
(448,391,o),
(381,368,c),
(381,212,l),
(127,212,l),
(332,377,o),
(433,535,o),
(442,700,c)
);
}
);
width = 639;
}
);
unicode = 52;
},
{
glyphname = five;
lastChange = "2026-06-01 21:25:52 +0000";
layers = (
{
layerId = m01;
shapes = (
{
closed = 1;
nodes = (
(113,701,l),
(88,349,l),
(120,345,l),
(130,357,o),
(192,412,o),
(282,408,cs),
(363,408,o),
(404,343,o),
(404,224,cs),
(404,77,o),
(374,22,o),
(315,22,cs),
(260,22,o),
(233,69,o),
(233,244,c),
(40,221,l),
(40,77,o),
(155,-9,o),
(316,-9,cs),
(481,-9,o),
(605,69,o),
(605,232,cs),
(605,378,o),
(507,450,o),
(323,450,cs),
(201,450,o),
(153,408,o),
(125,388,c),
(137,558,l),
(553,568,l),
(561,711,l)
);
}
);
width = 645;
}
);
unicode = 53;
},
{
glyphname = six;
lastChange = "2026-06-01 21:26:35 +0000";
layers = (
{
layerId = m01;
shapes = (
{
closed = 1;
nodes = (
(561,484,l),
(561,641,l),
(512,672,o),
(453,708,o),
(346,708,cs),
(184,708,o),
(40,582,o),
(40,331,cs),
(40,104,o),
(154,-9,o),
(329,-9,cs),
(486,-9,o),
(596,70,o),
(596,230,cs),
(596,372,o),
(513,443,o),
(371,443,cs),
(275,443,o),
(242,406,o),
(233,384,c),
(233,579,o),
(290,679,o),
(346,679,cs),
(396,679,o),
(420,604,o),
(412,518,c)
);
},
{
closed = 1;
nodes = (
(244,400,o),
(317,400,cs),
(372,400,o),
(412,322,o),
(412,213,cs),
(412,87,o),
(382,21,o),
(329,21,cs),
(277,21,o),
(244,86,o),
(239,210,cs),
(236,295,o)
);
}
);
width = 636;
}
);
unicode = 54;
},
{
glyphname = seven;
lastChange = "2026-05-26 23:44:32 +0000";
layers = (
{
layerId = m01;
shapes = (
{
closed = 1;
nodes = (
(48,700,l),
(40,462,l),
(64,462,l),
(65,490,o),
(83,558,o),
(166,558,c),
(493,558,l),
(279,389,o),
(144,195,o),
(110,0,c),
(313,0,l),
(337,198,o),
(411,385,o),
(537,559,c),
(537,700,l)
);
}
);
width = 577;
}
);
unicode = 55;
},
{
glyphname = eight;
lastChange = "2026-05-12 02:32:29 +0000";
layers = (
{
layerId = m01;
shapes = (
{
closed = 1;
nodes = (
(441,402,o),
(567,425,o),
(567,545,cs),
(567,654,o),
(455,706,o),
(323,706,cs),
(183,706,o),
(66,645,o),
(66,518,cs),
(66,397,o),
(145,364,o),
(188,336,c),
(119,317,o),
(40,281,o),
(40,172,cs),
(40,59,o),
(147,-8,o),
(324,-8,cs),
(491,-8,o),
(595,63,o),
(595,197,cs),
(595,332,o),
(499,364,o),
(435,400,c)
);
},
{
closed = 1;
nodes = (
(367,235,ls),
(410,208,o),
(439,182,o),
(439,118,cs),
(439,56,o),
(385,23,o),
(323,23,cs),
(178,23,o),
(147,212,o),
(238,309,c)
);
},
{
closed = 1;
nodes = (
(311,466,ls),
(248,505,o),
(224,525,o),
(224,586,cs),
(224,631,o),
(257,674,o),
(322,674,cs),
(465,674,o),
(429,479,o),
(386,425,c)
);
}
);
width = 635;
}
);
unicode = 56;
},
{
glyphname = zero.dnom;
lastChange = "2026-06-02 01:50:40 +0000";
layers = (
{
layerId = m01;
shapes = (
{
closed = 1;
nodes = (
(334,-8,o),
(415,69,o),
(415,235,cs),
(415,397,o),
(328,475,o),
(223,475,cs),
(115,475,o),
(27,397,o),
(27,235,cs),
(27,69,o),
(110,-8,o),
(223,-8,cs)
);
},
{
closed = 1;
nodes = (
(179,12,o),
(157,85,o),
(157,235,cs),
(157,381,o),
(179,455,o),
(223,455,cs),
(267,455,o),
(289,381,o),
(289,235,cs),
(289,85,o),
(267,12,o),
(223,12,cs)
);
}
);
width = 442;
}
);
},
{
glyphname = one.dnom;
lastChange = "2026-06-02 02:13:20 +0000";
layers = (
{
layerId = m01;
shapes = (
{
closed = 1;
nodes = (
(223,470,l),
(204,470,l),
(156,441,o),
(96,411,o),
(27,382,c),
(27,366,l),
(95,381,l),
(95,0,l),
(223,0,l)
);
}
);
width = 263;
}
);
},
{
glyphname = two.dnom;
lastChange = "2026-06-02 01:49:51 +0000";
layers = (
{
layerId = m01;
shapes = (
{
closed = 1;
nodes = (
(379,0,l),
(390,161,l),
(374,161,l),
(371,130,o),
(352,96,o),
(285,98,c),
(80,98,l),
(140,186,o),
(382,174,o),
(385,336,c),
(385,423,o),
(322,472,o),
(198,472,c),
(84,472,o),
(27,420,o),
(27,316,c),
(146,301,l),
(140,401,o),
(157,451,o),
(198,452,c),
(235,452,o),
(254,408,o),
(254,347,c),
(254,204,o),
(27,192,o),
(27,1,c),
(379,1,l)
);
}
);
width = 417;
}
);
},
{
glyphname = three.dnom;
lastChange = "2026-06-02 01:49:59 +0000";
layers = (
{
layerId = m01;
shapes = (
{
closed = 1;
nodes = (
(351,262,o),
(385,298,o),
(385,355,c),
(385,433,o),
(318,473,o),
(210,473,c),
(114,473,o),
(40,426,o),
(40,334,c),
(153,317,l),
(151,408,o),
(169,453,o),
(209,453,c),
(243,453,o),
(260,421,o),
(260,356,c),
(260,288,o),
(236,254,o),
(187,254,c),
(159,254,l),
(159,234,l),
(187,234,l),
(248,234,o),
(273,197,o),
(273,119,c),
(273,50,o),
(254,16,o),
(214,16,c),
(169,17,o),
(149,65,o),
(156,158,c),
(27,144,l),
(27,43,o),
(90,-7,o),
(215,-7,c),
(340,-7,o),
(403,39,o),
(403,130,c),
(403,191,o),
(364,230,o),
(285,248,c)
);
}
);
width = 430;
}
);
},
{
glyphname = four.dnom;
lastChange = "2026-06-02 02:02:59 +0000";
layers = (
{
layerId = m01;
shapes = (
{
closed = 1;
nodes = (
(184,469,l),
(178,324,o),
(126,202,o),
(27,105,c),
(255,105,l),
(255,0,l),
(365,0,l),
(365,105,l),
(401,105,l),
(401,142,l),
(365,142,l),
(365,348,l),
(351,348,l),
(332,295,o),
(300,262,o),
(255,247,c),
(255,142,l),
(85,142,l),
(222,253,o),
(290,358,o),
(296,469,c)
);
}
);
width = 428;
}
);
},
{
glyphname = five.dnom;
lastChange = "2026-06-02 01:50:10 +0000";
layers = (
{
layerId = m01;
shapes = (
{
closed = 1;
nodes = (
(76,470,l),
(59,234,l),
(80,231,l),
(87,239,o),
(129,276,o),
(189,273,cs),
(243,273,o),
(271,230,o),
(271,150,cs),
(271,52,o),
(251,15,o),
(211,15,cs),
(174,15,o),
(156,46,o),
(156,163,c),
(27,148,l),
(27,52,o),
(104,-6,o),
(212,-6,cs),
(322,-6,o),
(405,46,o),
(405,155,cs),
(405,253,o),
(340,302,o),
(216,302,cs),
(135,302,o),
(103,273,o),
(84,260,c),
(92,374,l),
(371,381,l),
(376,476,l)
);
}
);
width = 432;
}
);
},
{
glyphname = six.dnom;
lastChange = "2026-06-02 02:04:05 +0000";
layers = (
{
layerId = m01;
shapes = (
{
closed = 1;
nodes = (
(376,324,l),
(376,429,l),
(343,450,o),
(304,474,o),
(232,474,cs),
(123,474,o),
(27,390,o),
(27,222,cs),
(27,70,o),
(103,-6,o),
(220,-6,cs),
(326,-6,o),
(399,47,o),
(399,154,cs),
(399,249,o),
(344,297,o),
(249,297,cs),
(184,297,o),
(162,272,o),
(156,257,c),
(156,388,o),
(194,455,o),
(232,455,cs),
(265,455,o),
(281,405,o),
(276,347,c)
);
},
{
closed = 1;
nodes = (
(163,268,o),
(212,268,cs),
(249,268,o),
(276,216,o),
(276,143,cs),
(276,58,o),
(256,14,o),
(220,14,cs),
(186,14,o),
(163,58,o),
(160,141,cs),
(158,198,o)
);
}
);
width = 426;
}
);
},
{
glyphname = seven.dnom;
lastChange = "2026-06-02 01:50:21 +0000";
layers = (
{
layerId = m01;
shapes = (
{
closed = 1;
nodes = (
(32,469,l),
(27,310,l),
(43,310,l),
(44,328,o),
(56,374,o),
(111,374,c),
(330,374,l),
(187,261,o),
(96,131,o),
(74,0,c),
(210,0,l),
(226,133,o),
(275,258,o),
(360,375,c),
(360,469,l)
);
}
);
width = 387;
}
);
},
{
glyphname = eight.dnom;
lastChange = "2026-06-02 01:50:27 +0000";
layers = (
{
layerId = m01;
shapes = (
{
closed = 1;
nodes = (
(295,269,o),
(380,285,o),
(380,365,cs),
(380,438,o),
(305,473,o),
(216,473,cs),
(123,473,o),
(44,432,o),
(44,347,cs),
(44,266,o),
(97,244,o),
(126,225,c),
(80,212,o),
(27,188,o),
(27,115,cs),
(27,40,o),
(98,-5,o),
(217,-5,cs),
(329,-5,o),
(399,42,o),
(399,132,cs),
(399,222,o),
(334,244,o),
(291,268,c)
);
},
{
closed = 1;
nodes = (
(246,157,ls),
(275,139,o),
(294,122,o),
(294,79,cs),
(294,38,o),
(258,15,o),
(216,15,cs),
(119,15,o),
(98,142,o),
(159,207,c)
);
},
{
closed = 1;
nodes = (
(208,312,ls),
(166,338,o),
(150,352,o),
(150,393,cs),
(150,423,o),
(172,452,o),
(216,452,cs),
(312,452,o),
(287,321,o),
(259,285,c)
);
}
);
width = 425;
}
);
},
{
glyphname = nine.dnom;
lastChange = "2026-06-02 01:50:32 +0000";
layers = (
{
layerId = m01;
shapes = (
{
closed = 1;
nodes = (
(50,145,l),
(50,40,l),
(83,19,o),
(123,-5,o),
(194,-5,cs),
(303,-5,o),
(399,79,o),
(399,247,cs),
(399,399,o),
(323,475,o),
(206,475,cs),
(101,475,o),
(27,422,o),
(27,315,cs),
(27,220,o),
(82,172,o),
(178,172,cs),
(242,172,o),
(264,197,o),
(270,212,c),
(270,81,o),
(232,14,o),
(194,14,cs),
(161,14,o),
(145,64,o),
(150,122,c)
);
},
{
closed = 1;
nodes = (
(263,201,o),
(214,201,cs),
(177,201,o),
(150,253,o),
(150,326,cs),
(150,411,o),
(170,455,o),
(206,455,cs),
(241,455,o),
(263,411,o),
(266,328,cs),
(268,271,o)
);
}
);
width = 426;
}
);
},
{
glyphname = zero.numr;
lastChange = "2026-06-02 03:33:22 +0000";
layers = (
{
layerId = m01;
shapes = (
{
closed = 1;
nodes = (
(334,242,o),
(415,319,o),
(415,485,cs),
(415,647,o),
(328,725,o),
(223,725,cs),
(115,725,o),
(27,647,o),
(27,485,cs),
(27,319,o),
(110,242,o),
(223,242,cs)
);
},
{
closed = 1;
nodes = (
(179,262,o),
(157,335,o),
(157,485,cs),
(157,631,o),
(179,705,o),
(223,705,cs),
(267,705,o),
(289,631,o),
(289,485,cs),
(289,335,o),
(267,262,o),
(223,262,cs)
);
}
);
width = 442;
}
);
metricLeft = zero.dnom;
metricRight = zero.dnom;
},
{
glyphname = one.numr;
lastChange = "2026-06-02 02:15:19 +0000";
layers = (
{
layerId = m01;
shapes = (
{
closed = 1;
nodes = (
(223,720,l),
(204,720,l),
(156,691,o),
(96,661,o),
(27,632,c),
(27,616,l),
(95,631,l),
(95,270,l),
(223,270,l)
);
}
);
width = 263;
}
);
metricLeft = one.dnom;
metricRight = one.dnom;
},
{
glyphname = two.numr;
lastChange = "2026-06-02 03:33:22 +0000";
layers = (
{
layerId = m01;
shapes = (
{
closed = 1;
nodes = (
(379,250,l),
(390,411,l),
(374,411,l),
(371,380,o),
(352,346,o),
(285,348,c),
(80,348,l),
(140,436,o),
(382,424,o),
(385,586,c),
(385,673,o),
(322,722,o),
(198,722,c),
(84,722,o),
(27,670,o),
(27,566,c),
(146,551,l),
(140,651,o),
(157,701,o),
(198,702,c),
(235,702,o),
(254,658,o),
(254,597,c),
(254,454,o),
(27,442,o),
(27,251,c),
(379,251,l)
);
}
);
width = 417;
}
);
metricLeft = two.dnom;
metricRight = two.dnom;
},
{
glyphname = three.numr;
lastChange = "2026-06-02 03:33:22 +0000";
layers = (
{
layerId = m01;
shapes = (
{
closed = 1;
nodes = (
(351,512,o),
(385,548,o),
(385,605,c),
(385,683,o),
(318,723,o),
(210,723,c),
(114,723,o),
(40,676,o),
(40,584,c),
(153,567,l),
(151,658,o),
(169,703,o),
(209,703,c),
(243,703,o),
(260,671,o),
(260,606,c),
(260,538,o),
(236,504,o),
(187,504,c),
(159,504,l),
(159,484,l),
(187,484,l),
(248,484,o),
(273,447,o),
(273,369,c),
(273,300,o),
(254,266,o),
(214,266,c),
(169,267,o),
(149,315,o),
(156,408,c),
(27,394,l),
(27,293,o),
(90,243,o),
(215,243,c),
(340,243,o),
(403,289,o),
(403,380,c),
(403,441,o),
(364,480,o),
(285,498,c)
);
}
);
width = 430;
}
);
metricLeft = three.dnom;
metricRight = three.dnom;
},
{
glyphname = four.numr;
lastChange = "2026-06-02 03:33:22 +0000";
layers = (
{
layerId = m01;
shapes = (
{
closed = 1;
nodes = (
(184,719,l),
(178,574,o),
(126,452,o),
(27,355,c),
(255,355,l),
(255,250,l),
(365,250,l),
(365,355,l),
(401,355,l),
(401,392,l),
(365,392,l),
(365,598,l),
(351,598,l),
(332,545,o),
(300,512,o),
(255,497,c),
(255,392,l),
(85,392,l),
(222,503,o),
(290,608,o),
(296,719,c)
);
}
);
width = 428;
}
);
metricLeft = four.dnom;
metricRight = four.dnom;
},
{
glyphname = five.numr;
lastChange = "2026-06-02 03:33:22 +0000";
layers = (
{
layerId = m01;
shapes = (
{
closed = 1;
nodes = (
(76,720,l),
(59,484,l),
(80,481,l),
(87,489,o),
(129,526,o),
(189,523,cs),
(243,523,o),
(271,480,o),
(271,400,cs),
(271,302,o),
(251,265,o),
(211,265,cs),
(174,265,o),
(156,296,o),
(156,413,c),
(27,398,l),
(27,302,o),
(104,244,o),
(212,244,cs),
(322,244,o),
(405,296,o),
(405,405,cs),
(405,503,o),
(340,552,o),
(216,552,cs),
(135,552,o),
(103,523,o),
(84,510,c),
(92,624,l),
(371,631,l),
(376,726,l)
);
}
);
width = 432;
}
);
metricLeft = five.dnom;
metricRight = five.dnom;
},
{
glyphname = six.numr;
lastChange = "2026-06-02 03:33:22 +0000";
layers = (
{
layerId = m01;
shapes = (
{
closed = 1;
nodes = (
(376,574,l),
(376,679,l),
(343,700,o),
(304,724,o),
(232,724,cs),
(123,724,o),
(27,640,o),
(27,472,cs),
(27,320,o),
(103,244,o),
(220,244,cs),
(326,244,o),
(399,297,o),
(399,404,cs),
(399,499,o),
(344,547,o),
(249,547,cs),
(184,547,o),
(162,522,o),
(156,507,c),
(156,638,o),
(194,705,o),
(232,705,cs),
(265,705,o),
(281,655,o),
(276,597,c)
);
},
{
closed = 1;
nodes = (
(163,518,o),
(212,518,cs),
(249,518,o),
(276,466,o),
(276,393,cs),
(276,308,o),
(256,264,o),
(220,264,cs),
(186,264,o),
(163,308,o),
(160,391,cs),
(158,448,o)
);
}
);
width = 426;
}
);
metricLeft = six.dnom;
metricRight = six.dnom;
},
{
glyphname = seven.numr;
lastChange = "2026-06-02 03:33:22 +0000";
layers = (
{
layerId = m01;
shapes = (
{
closed = 1;
nodes = (
(32,719,l),
(27,560,l),
(43,560,l),
(44,578,o),
(56,624,o),
(111,624,c),
(330,624,l),
(187,511,o),
(96,381,o),
(74,250,c),
(210,250,l),
(226,383,o),
(275,508,o),
(360,625,c),
(360,719,l)
);
}
);
width = 387;
}
);
metricLeft = seven.dnom;
metricRight = seven.dnom;
},
{
glyphname = eight.numr;
lastChange = "2026-06-02 03:33:22 +0000";
layers = (
{
layerId = m01;
shapes = (
{
closed = 1;
nodes = (
(295,519,o),
(380,535,o),
(380,615,cs),
(380,688,o),
(305,723,o),
(216,723,cs),
(123,723,o),
(44,682,o),
(44,597,cs),
(44,516,o),
(97,494,o),
(126,475,c),
(80,462,o),
(27,438,o),
(27,365,cs),
(27,290,o),
(98,245,o),
(217,245,cs),
(329,245,o),
(399,292,o),
(399,382,cs),
(399,472,o),
(334,494,o),
(291,518,c)
);
},
{
closed = 1;
nodes = (
(246,407,ls),
(275,389,o),
(294,372,o),
(294,329,cs),
(294,288,o),
(258,265,o),
(216,265,cs),
(119,265,o),
(98,392,o),
(159,457,c)
);
},
{
closed = 1;
nodes = (
(208,562,ls),
(166,588,o),
(150,602,o),
(150,643,cs),
(150,673,o),
(172,702,o),
(216,702,cs),
(312,702,o),
(287,571,o),
(259,535,c)
);
}
);
width = 425;
}
);
metricLeft = eight.dnom;
metricRight = eight.dnom;
},
{
glyphname = nine.numr;
lastChange = "2026-06-02 03:33:22 +0000";
layers = (
{
layerId = m01;
shapes = (
{
closed = 1;
nodes = (
(50,395,l),
(50,290,l),
(83,269,o),
(123,245,o),
(194,245,cs),
(303,245,o),
(399,329,o),
(399,497,cs),
(399,649,o),
(323,725,o),
(206,725,cs),
(101,725,o),
(27,672,o),
(27,565,cs),
(27,470,o),
(82,422,o),
(178,422,cs),
(242,422,o),
(264,447,o),
(270,462,c),
(270,331,o),
(232,264,o),
(194,264,cs),
(161,264,o),
(145,314,o),
(150,372,c)
);
},
{
closed = 1;
nodes = (
(263,451,o),
(214,451,cs),
(177,451,o),
(150,503,o),
(150,576,cs),
(150,661,o),
(170,705,o),
(206,705,cs),
(241,705,o),
(263,661,o),
(266,578,cs),
(268,521,o)
);
}
);
width = 426;
}
);
metricLeft = nine.dnom;
metricRight = nine.dnom;
},
{
glyphname = fraction;
lastChange = "2026-06-02 02:13:43 +0000";
layers = (
{
layerId = m01;
shapes = (
{
attr = {
identifier = ID0x31a4e2160;
lineCapEnd = "4";
lineCapStart = "4";
strokeWidth = 50;
};
closed = 0;
nodes = (
(297,736,l),
(-97,-27,l)
);
}
);
width = 200;
}
);
unicode = 8260;
},
{
glyphname = .notdef;
layers = (
{
associatedMasterId = m01;
layerId = "40E32FB9-B6BE-48EB-82C7-9119AE8E729C";
name = Bold;
shapes = (
{
closed = 1;
nodes = (
(349,-60,l),
(117,-60,l),
(117,596,l),
(349,596,l),
(349,664,l),
(50,664,l),
(50,-128,l),
(349,-128,l)
);
},
{
closed = 1;
nodes = (
(529,-128,l),
(529,664,l),
(320,664,l),
(320,596,l),
(462,596,l),
(462,-60,l),
(320,-60,l),
(320,-128,l)
);
}
);
width = 579;
},
{
associatedMasterId = m01;
layerId = "E1ADDF7C-A343-4E6D-B630-136BDFE64807";
shapes = (
{
closed = 1;
nodes = (
(366,-38,l),
(132,-38,l),
(132,574,l),
(366,574,l),
(366,664,l),
(50,664,l),
(50,-128,l),
(366,-128,l)
);
},
{
closed = 1;
nodes = (
(529,-128,l),
(529,664,l),
(320,664,l),
(320,574,l),
(447,574,l),
(447,-38,l),
(320,-38,l),
(320,-128,l)
);
}
);
width = 579;
},
{
layerId = m01;
shapes = (
{
closed = 1;
nodes = (
(349,-84,l),
(98,-84,l),
(98,620,l),
(349,620,l),
(349,664,l),
(50,664,l),
(50,-128,l),
(349,-128,l)
);
},
{
closed = 1;
nodes = (
(529,-128,l),
(529,664,l),
(320,664,l),
(320,620,l),
(481,620,l),
(481,-84,l),
(320,-84,l),
(320,-128,l)
);
}
);
width = 579;
}
);
},
{
glyphname = comma;
lastChange = "2026-05-25 22:17:07 +0000";
layers = (
{
layerId = m01;
shapes = (
{
closed = 1;
nodes = (
(49,168,o),
(10,130,o),
(10,82,cs),
(10,34,o),
(49,-4,o),
(96,-4,cs),
(101,-4,o),
(105,-4,o),
(110,-3,c),
(101,-41,o),
(76,-69,o),
(33,-92,c),
(50,-115,l),
(135,-81,o),
(185,15,o),
(183,82,cs),
(182,130,o),
(144,168,o),
(96,168,cs)
);
}
);
width = 223;
}
);
unicode = 44;
},
{
glyphname = exclam;
lastChange = "2026-05-26 03:21:51 +0000";
layers = (
{
layerId = m01;
shapes = (
{
closed = 1;
nodes = (
(40,700,l),
(126,240,l),
(176,240,l),
(262,700,l)
);
},
{
pos = (250,0);
ref = "punc-tittle";
scale = (-1,1);
}
);
width = 302;
}
);
unicode = 33;
},
{
glyphname = question;
lastChange = "2026-05-14 22:17:45 +0000";
layers = (
{
layerId = m01;
shapes = (
{
closed = 1;
nodes = (
(274,242,l),
(274,274,l),
(274,337,o),
(507,360,o),
(512,538,c),
(512,637,o),
(433,707,o),
(274,707,c),
(118,707,o),
(40,641,o),
(40,506,c),
(185,475,l),
(182,607,o),
(208,675,o),
(265,675,c),
(306,675,o),
(327,631,o),
(327,544,c),
(327,411,o),
(235,402,o),
(235,298,c),
(235,229,l)
);
},
{
closed = 1;
nodes = (
(317,-6,o),
(361,37,o),
(361,92,cs),
(361,146,o),
(317,189,o),
(264,189,cs),
(209,189,o),
(165,146,o),
(165,92,cs),
(165,37,o),
(209,-6,o),
(264,-6,cs)
);
}
);
width = 552;
}
);
unicode = 63;
},
{
glyphname = asterisk;
lastChange = "2026-05-17 21:38:34 +0000";
layers = (
{
layerId = m01;
shapes = (
{
closed = 1;
nodes = (
(182,597,l),
(70,662,l),
(40,570,l),
(174,555,l),
(74,461,l),
(152,404,l),
(206,527,l),
(259,404,l),
(337,461,l),
(237,555,l),
(372,570,l),
(342,662,l),
(230,597,l),
(254,722,l),
(158,722,l)
);
}
);
width = 412;
}
);
unicode = 42;
},
{
glyphname = interrobang;
lastChange = "2026-05-28 00:49:10 +0000";
layers = (
{
layerId = m01;
shapes = (
{
closed = 1;
nodes = (
(316,263,l),
(325,354,l),
(334,436,o),
(557,502,o),
(562,680,c),
(562,779,o),
(453,859,o),
(304,859,c),
(158,859,o),
(40,783,o),
(40,648,c),
(185,617,l),
(182,749,o),
(218,827,o),
(295,827,c),
(356,827,o),
(407,773,o),
(407,686,c),
(407,553,o),
(265,449,o),
(265,345,c),
(265,276,l)
);
},
{
closed = 1;
nodes = (
(338,-16,o),
(382,27,o),
(382,82,cs),
(382,136,o),
(338,179,o),
(285,179,cs),
(230,179,o),
(186,136,o),
(186,82,cs),
(186,27,o),
(230,-16,o),
(285,-16,cs)
);
},
{
closed = 1;
nodes = (
(217,637,l),
(261,215,l),
(311,215,l),
(355,637,l)
);
}
);
width = 602;
}
);
unicode = 8253;
},
{
glyphname = numbersign;
lastChange = "2026-05-25 01:32:12 +0000";
layers = (
{
layerId = m01;
shapes = (
{
attr = {
lineCapEnd = "4";
lineCapStart = "4";
strokeWidth = 32;
};
closed = 0;
nodes = (
(285,700,l),
(139,0,l)
);
},
{
attr = {
lineCapEnd = "4";
lineCapStart = "4";
strokeWidth = 32;
};
closed = 0;
nodes = (
(465,700,l),
(319,0,l)
);
},
{
closed = 1;
nodes = (
(40,168,l),
(521,168,l),
(521,272,l),
(40,272,l)
);
},
{
closed = 1;
nodes = (
(82,421,l),
(563,421,l),
(563,525,l),
(82,525,l)
);
}
);
width = 603;
}
);
unicode = 35;
},
{
glyphname = slash;
lastChange = "2026-05-26 03:20:37 +0000";
layers = (
{
guides = (
{
angle = 66.8014;
pos = (230,343);
}
);
layerId = m01;
shapes = (
{
attr = {
lineCapEnd = 4;
lineCapStart = 4;
strokeWidth = 70;
};
closed = 0;
nodes = (
(264,700,l),
(76,0,l)
);
}
);
width = 340;
}
);
unicode = 47;
},
{
glyphname = parenright;
lastChange = "2026-05-17 21:49:03 +0000";
layers = (
{
layerId = m01;
shapes = (
{
closed = 1;
nodes = (
(40,722,l),
(218,572,o),
(218,58,o),
(40,-92,c),
(60,-118,l),
(411,85,o),
(411,545,o),
(60,748,c)
);
}
);
width = 363;
}
);
unicode = 41;
},
{
glyphname = braceleft;
lastChange = "2026-05-17 21:49:34 +0000";
layers = (
{
layerId = m01;
shapes = (
{
closed = 1;
nodes = (
(358,749,l),
(200,749,o),
(121,696,o),
(121,590,c),
(122,529,o),
(142,470,o),
(138,406,c),
(135,360,o),
(97,333,o),
(50,332,c),
(50,317,l),
(50,304,l),
(133,317,l),
(200,333,o),
(237,363,o),
(265,405,c),
(307,470,o),
(250,598,o),
(268,654,c),
(283,698,o),
(313,721,o),
(358,721,c)
);
},
{
closed = 1;
nodes = (
(313,-85,o),
(283,-62,o),
(268,-18,c),
(250,38,o),
(307,166,o),
(265,231,c),
(237,273,o),
(200,303,o),
(133,319,c),
(50,332,l),
(50,319,l),
(50,304,l),
(97,303,o),
(135,276,o),
(138,230,c),
(142,166,o),
(122,107,o),
(121,46,c),
(121,-60,o),
(200,-113,o),
(358,-113,c),
(358,-85,l)
);
}
);
width = 398;
}
);
unicode = 123;
},
{
glyphname = bracketright;
lastChange = "2026-05-17 21:45:53 +0000";
layers = (
{
layerId = m01;
shapes = (
{
closed = 1;
nodes = (
(40,734,l),
(284,734,l),
(284,-101,l),
(40,-101,l),
(40,-66,l),
(141,-66,l),
(141,699,l),
(40,699,l)
);
}
);
width = 334;
}
);
unicode = 93;
},
{
glyphname = quotedblright;
lastChange = "2026-05-25 22:19:23 +0000";
layers = (
{
layerId = m01;
shapes = (
{
closed = 1;
nodes = (
(328,557,ls),
(337,580,o),
(332,576,o),
(225,615,c),
(246,698,l),
(426,698,l),
(316,430,l),
(277,430,l)
);
},
{
closed = 1;
nodes = (
(113,557,ls),
(122,580,o),
(117,576,o),
(10,615,c),
(31,698,l),
(211,698,l),
(101,430,l),
(62,430,l)
);
}
);
width = 466;
}
);
unicode = 8221;
},
{
glyphname = quoteright;
lastChange = "2026-05-25 22:27:17 +0000";
layers = (
{
layerId = m01;
shapes = (
{
closed = 1;
nodes = (
(113,557,ls),
(122,580,o),
(117,576,o),
(10,615,c),
(31,698,l),
(211,698,l),
(101,430,l),
(62,430,l)
);
}
);
width = 251;
}
);
unicode = 8217;
},
{
glyphname = guillemetright;
lastChange = "2026-05-26 03:07:15 +0000";
layers = (
{
layerId = m01;
shapes = (
{
closed = 1;
nodes = (
(277,480,l),
(516,259,l),
(277,38,l),
(252,55,l),
(353,259,l),
(252,463,l)
);
},
{
closed = 1;
nodes = (
(60,480,l),
(299,259,l),
(60,38,l),
(40,55,l),
(136,259,l),
(40,463,l)
);
}
);
width = 556;
}
);
unicode = 187;
},
{
glyphname = guilsinglright;
lastChange = "2026-05-26 03:07:22 +0000";
layers = (
{
layerId = m01;
shapes = (
{
closed = 1;
nodes = (
(65,499,l),
(274,258,l),
(65,17,l),
(40,34,l),
(141,258,l),
(40,482,l)
);
}
);
width = 314;
}
);
unicode = 8250;
},
{
glyphname = quotesingle;
lastChange = "2026-05-26 03:10:08 +0000";
layers = (
{
layerId = m01;
shapes = (
{
closed = 1;
nodes = (
(44,514,l),
(107,514,l),
(131,733,l),
(20,733,l)
);
}
);
width = 171;
}
);
unicode = 39;
},
{
glyphname = florin;
lastChange = "2026-06-03 22:43:13 +0000";
layers = (
{
layerId = m01;
shapes = (
{
closed = 1;
nodes = (
(543,514,l),
(592,654,l),
(545,684,o),
(493,699,o),
(436,699,cs),
(303,699,o),
(237,630,o),
(237,493,cs),
(237,-1,l),
(394,-1,l),
(395,595,ls),
(395,648,o),
(409,674,o),
(436,674,cs),
(467,674,o),
(500,620,o),
(533,514,c)
);
},
{
closed = 1;
nodes = (
(141,437,l),
(509,437,l),
(509,470,l),
(141,470,l)
);
},
{
closed = 1;
nodes = (
(89,-8,l),
(40,-148,l),
(87,-178,o),
(139,-193,o),
(196,-193,cs),
(329,-193,o),
(395,-124,o),
(395,13,cs),
(395,317,l),
(238,317,l),
(237,-89,ls),
(237,-142,o),
(223,-168,o),
(196,-168,cs),
(165,-168,o),
(132,-114,o),
(99,-8,c)
);
}
);
width = 632;
}
);
unicode = 402;
},
{
glyphname = baht;
lastChange = "2026-06-03 22:43:39 +0000";
layers = (
{
layerId = m01;
shapes = (
{
ref = B;
},
{
closed = 1;
nodes = (
(316,-43,l),
(376,-43,l),
(376,742,l),
(316,742,l)
);
}
);
width = 700;
}
);
unicode = 3647;
},
{
glyphname = at;
lastChange = "2026-05-17 21:33:50 +0000";
layers = (
{
layerId = m01;
shapes = (
{
closed = 1;
nodes = (
(393,196,o),
(377,222,o),
(377,274,c),
(379,327,o),
(409,359,o),
(465,372,c),
(466,372,l),
(466,223,l),
(453,205,o),
(439,196,o),
(424,196,c)
);
},
{
closed = 1;
nodes = (
(788,562,o),
(642,724,o),
(424,724,cs),
(223,724,o),
(40,560,o),
(40,360,cs),
(40,139,o),
(203,-25,o),
(424,-25,cs),
(532,-25,o),
(589,-5,o),
(649,37,c),
(626,70,l),
(572,32,o),
(523,15,o),
(424,15,cs),
(225,15,o),
(80,161,o),
(80,360,cs),
(80,537,o),
(244,684,o),
(424,684,cs),
(598,684,o),
(747,551,o),
(749,376,c),
(747,255,o),
(701,182,o),
(645,182,cs),
(623,182,o),
(612,197,o),
(612,233,cs),
(612,440,ls),
(612,526,o),
(548,569,o),
(419,569,cs),
(361,569,o),
(308,553,o),
(258,523,c),
(352,433,l),
(370,433,l),
(371,507,o),
(387,543,o),
(420,543,cs),
(453,543,o),
(468,493,o),
(466,395,c),
(307,387,o),
(229,341,o),
(227,255,cs),
(227,186,o),
(267,135,o),
(349,135,cs),
(398,135,o),
(439,156,o),
(474,200,c),
(496,156,o),
(537,134,o),
(595,134,cs),
(714,134,o),
(788,209,o),
(788,377,c)
);
}
);
width = 828;
}
);
unicode = 64;
},
{
glyphname = ampersand;
lastChange = "2026-05-17 21:34:01 +0000";
layers = (
{
guides = (
{
angle = 129.8196;
pos = (535,203);
},
{
angle = 129.4911;
pos = (354,163);
}
);
layerId = m01;
shapes = (
{
closed = 1;
nodes = (
(321,-15,o),
(385,9,o),
(443,55,c),
(487,1,l),
(703,1,l),
(367,404,l),
(471,439,o),
(524,493,o),
(524,566,cs),
(524,659,o),
(438,706,o),
(342,706,cs),
(226,706,o),
(131,651,o),
(131,542,cs),
(131,474,o),
(149,411,o),
(193,357,c),
(86,306,o),
(37,255,o),
(40,165,cs),
(40,45,o),
(143,-15,o),
(249,-15,cs)
);
},
{
closed = 1;
nodes = (
(358,31,o),
(291,48,o),
(236,115,c),
(192,175,o),
(186,247,o),
(220,325,c),
(425,76,l)
);
},
{
closed = 1;
nodes = (
(601,217,o),
(629,269,o),
(625,348,c),
(592,348,l),
(594,264,o),
(568,222,o),
(530,180,c),
(556,164,l)
);
},
{
closed = 1;
nodes = (
(298,484,o),
(274,537,o),
(274,590,cs),
(274,647,o),
(295,675,o),
(336,675,cs),
(377,675,o),
(398,641,o),
(398,572,cs),
(398,525,o),
(380,478,o),
(344,431,c)
);
},
{
closed = 1;
nodes = (
(669,300,l),
(669,393,l),
(479,393,l),
(555,300,l)
);
}
);
width = 743;
}
);
unicode = 38;
},
{
glyphname = paragraph;
lastChange = "2026-05-25 01:23:40 +0000";
layers = (
{
layerId = m01;
shapes = (
{
closed = 1;
nodes = (
(246,308,l),
(246,700,l),
(207,700,l),
(76,700,o),
(10,613,o),
(10,503,c),
(10,394,o),
(76,308,o),
(207,308,c)
);
},
{
closed = 1;
nodes = (
(289,-66,l),
(289,700,l),
(239,700,l),
(239,-66,l)
);
},
{
closed = 1;
nodes = (
(429,-66,l),
(429,700,l),
(379,700,l),
(379,-66,l)
);
},
{
closed = 1;
nodes = (
(509,664,l),
(509,700,l),
(247,700,l),
(247,664,l)
);
}
);
width = 549;
}
);
unicode = 182;
},
{
glyphname = section;
lastChange = "2026-05-15 00:39:34 +0000";
layers = (
{
layerId = m01;
shapes = (
{
closed = 1;
nodes = (
(71,117,l),
(71,16,l),
(126,-18,o),
(189,-35,o),
(258,-35,cs),
(389,-35,o),
(454,36,o),
(454,121,cs),
(455,167,o),
(434,204,o),
(393,234,c),
(452,267,o),
(482,313,o),
(483,374,cs),
(483,541,o),
(201,528,o),
(201,653,cs),
(201,698,o),
(222,720,o),
(264,720,cs),
(310,720,o),
(335,681,o),
(339,601,c),
(446,601,l),
(446,695,l),
(416,722,o),
(356,746,o),
(264,746,cs),
(166,746,o),
(74,698,o),
(74,602,cs),
(75,550,o),
(93,511,o),
(126,483,c),
(68,443,o),
(40,414,o),
(40,348,cs),
(40,157,o),
(322,193,o),
(322,61,cs),
(322,18,o),
(300,-6,o),
(258,-6,cs),
(206,-6,o),
(187,35,o),
(179,117,c)
);
},
{
closed = 1;
nodes = (
(322,380,ls),
(404,338,o),
(405,300,o),
(368,249,c),
(171,359,l),
(120,391,o),
(120,424,o),
(155,466,c)
);
}
);
width = 523;
}
);
unicode = 167;
},
{
glyphname = copyright;
lastChange = "2026-05-25 23:17:12 +0000";
layers = (
{
layerId = m01;
shapes = (
{
pos = (148,117);
ref = c;
},
{
attr = {
strokePos = 1;
strokeWidth = 50;
};
closed = 1;
nodes = (
(617,-20,o),
(783,146,o),
(783,352,cs),
(783,557,o),
(617,723,o),
(412,723,c),
(206,723,o),
(40,557,o),
(40,352,cs),
(40,146,o),
(206,-20,o),
(412,-20,cs)
);
}
);
width = 823;
}
);
unicode = 169;
},
{
glyphname = registered;
lastChange = "2026-05-25 23:19:06 +0000";
layers = (
{
layerId = m01;
shapes = (
{
attr = {
strokePos = "1";
strokeWidth = 50;
};
closed = 1;
nodes = (
(388,274,o),
(489,375,o),
(489,499,cs),
(489,623,o),
(388,723,o),
(265,723,c),
(140,723,o),
(40,623,o),
(40,499,cs),
(40,375,o),
(140,274,o),
(265,274,cs)
);
},
{
closed = 1;
nodes = (
(298,516,o),
(269,510,o),
(245,510,c),
(244,593,l),
(279,593,o),
(298,582,o),
(298,552,c)
);
},
{
closed = 1;
nodes = (
(244,386,l),
(244,484,l),
(299,386,l),
(365,386,l),
(301,491,l),
(334,500,o),
(357,516,o),
(357,551,c),
(357,579,o),
(338,613,o),
(279,613,c),
(184,613,l),
(185,386,l)
);
}
);
width = 529;
}
);
unicode = 174;
},
{
glyphname = degree;
lastChange = "2026-05-25 23:19:58 +0000";
layers = (
{
layerId = m01;
shapes = (
{
attr = {
strokePos = "1";
strokeWidth = 50;
};
closed = 1;
nodes = (
(244,431,o),
(303,490,o),
(303,563,cs),
(303,635,o),
(244,694,o),
(172,694,c),
(99,694,o),
(40,635,o),
(40,563,cs),
(40,490,o),
(99,431,o),
(172,431,cs)
);
}
);
width = 343;
}
);
unicode = 176;
},
{
glyphname = bar;
lastChange = "2026-05-26 03:04:21 +0000";
layers = (
{
layerId = m01;
shapes = (
{
attr = {
strokeWidth = 80;
};
closed = 0;
nodes = (
(90,-164,l),
(90,708,l)
);
}
);
width = 180;
}
);
unicode = 124;
},
{
glyphname = brokenbar;
lastChange = "2026-05-26 03:04:21 +0000";
layers = (
{
layerId = m01;
shapes = (
{
attr = {
strokeWidth = 80;
};
closed = 0;
nodes = (
(90,346,l),
(90,708,l)
);
},
{
attr = {
strokeWidth = 80;
};
closed = 0;
nodes = (
(90,-164,l),
(90,203,l)
);
}
);
width = 180;
}
);
unicode = 166;
},
{
glyphname = dagger;
lastChange = "2026-05-17 23:14:10 +0000";
layers = (
{
layerId = m01;
shapes = (
{
closed = 1;
nodes = (
(154,670,l),
(184,156,l),
(233,156,l),
(263,671,l),
(263,741,l),
(154,741,l)
);
},
{
closed = 1;
nodes = (
(40,499,l),
(89,519,o),
(137,529,o),
(186,529,c),
(186,587,l),
(137,587,o),
(89,597,o),
(40,617,c)
);
},
{
closed = 1;
nodes = (
(327,597,o),
(279,587,o),
(230,587,c),
(230,529,l),
(279,529,o),
(327,519,o),
(376,499,c),
(376,617,l)
);
}
);
width = 416;
}
);
unicode = 8224;
},
{
glyphname = daggerdbl;
lastChange = "2026-05-17 23:17:29 +0000";
layers = (
{
layerId = m01;
shapes = (
{
closed = 1;
nodes = (
(153,670,l),
(163,495,l),
(163,400,l),
(153,225,l),
(153,154,l),
(262,154,l),
(262,225,l),
(252,400,l),
(252,495,l),
(262,670,l),
(262,741,l),
(153,741,l)
);
},
{
closed = 1;
nodes = (
(40,511,l),
(88,531,o),
(137,541,o),
(185,541,c),
(185,599,l),
(137,599,o),
(88,609,o),
(40,629,c)
);
},
{
closed = 1;
nodes = (
(327,609,o),
(278,599,o),
(230,599,c),
(230,541,l),
(278,541,o),
(327,531,o),
(375,511,c),
(375,629,l)
);
},
{
closed = 1;
nodes = (
(40,266,l),
(88,286,o),
(137,296,o),
(185,296,c),
(185,354,l),
(137,354,o),
(88,364,o),
(40,384,c)
);
},
{
closed = 1;
nodes = (
(327,364,o),
(278,354,o),
(230,354,c),
(230,296,l),
(278,296,o),
(327,286,o),
(375,266,c),
(375,384,l)
);
}
);
width = 415;
}
);
unicode = 8225;
},
{
glyphname = cent;
lastChange = "2026-05-25 01:22:21 +0000";
layers = (
{
layerId = m01;
shapes = (
{
closed = 1;
nodes = (
(417,326,l),
(444,451,l),
(397,481,o),
(344,497,o),
(277,497,cs),
(140,497,o),
(40,406,o),
(40,252,cs),
(40,87,o),
(127,-18,o),
(277,-18,cs),
(339,-19,o),
(397,-2,o),
(449,33,c),
(424,155,l),
(382,155,l),
(362,59,o),
(331,12,o),
(287,12,cs),
(220,12,o),
(187,92,o),
(187,252,cs),
(187,384,o),
(217,468,o),
(277,468,cs),
(327,468,o),
(359,420,o),
(375,326,c)
);
},
{
closed = 1;
nodes = (
(256,486,l),
(289,486,l),
(289,574,l),
(256,574,l)
);
},
{
closed = 1;
nodes = (
(256,-94,l),
(289,-94,l),
(289,-6,l),
(256,-6,l)
);
}
);
width = 489;
}
);
unicode = 162;
},
{
glyphname = currency;
lastChange = "2026-05-18 03:10:19 +0000";
layers = (
{
layerId = m01;
shapes = (
{
closed = 1;
nodes = (
(390,141,o),
(482,233,o),
(482,346,cs),
(482,458,o),
(390,550,o),
(278,550,cs),
(165,550,o),
(73,458,o),
(73,346,cs),
(73,233,o),
(165,141,o),
(278,141,cs)
);
},
{
closed = 1;
nodes = (
(217,235,o),
(167,285,o),
(167,346,cs),
(167,407,o),
(217,457,o),
(278,457,cs),
(339,457,o),
(389,407,o),
(389,346,cs),
(389,285,o),
(339,235,o),
(278,235,cs)
);
},
{
closed = 1;
nodes = (
(414,563,o),
(405,540,o),
(386,517,c),
(414,483,l),
(449,455,l),
(471,474,o),
(494,483,o),
(516,483,c),
(516,585,l),
(414,585,l)
);
},
{
closed = 1;
nodes = (
(40,585,l),
(40,483,l),
(62,483,o),
(85,474,o),
(107,455,c),
(142,483,l),
(170,517,l),
(151,540,o),
(142,563,o),
(142,585,c)
);
},
{
closed = 1;
nodes = (
(516,106,l),
(516,208,l),
(494,208,o),
(471,217,o),
(449,236,c),
(414,208,l),
(386,174,l),
(405,151,o),
(414,128,o),
(414,106,c)
);
},
{
closed = 1;
nodes = (
(142,128,o),
(151,151,o),
(170,174,c),
(142,208,l),
(107,236,l),
(85,217,o),
(62,208,o),
(40,208,c),
(40,106,l),
(142,106,l)
);
}
);
width = 556;
}
);
unicode = 164;
},
{
glyphname = dollar;
lastChange = "2026-06-02 03:28:33 +0000";
layers = (
{
layerId = m01;
shapes = (
{
closed = 1;
nodes = (
(475,-13,o),
(577,68,o),
(577,204,cs),
(577,458,o),
(182,408,o),
(182,578,cs),
(182,653,o),
(225,691,o),
(310,691,cs),
(450,688,o),
(489,475,o),
(486,478,c),
(496,478,l),
(562,633,l),
(488,689,o),
(405,716,o),
(311,716,cs),
(167,716,o),
(58,645,o),
(58,518,cs),
(58,253,o),
(450,309,o),
(450,132,cs),
(450,52,o),
(406,16,o),
(317,16,cs),
(203,16,o),
(145,158,o),
(119,246,c),
(109,246,l),
(40,86,l),
(104,18,o),
(234,-13,o),
(321,-13,cs)
);
},
{
closed = 1;
nodes = (
(287,-81,l),
(287,783,l),
(237,783,l),
(237,-81,l)
);
},
{
closed = 1;
nodes = (
(391,-81,l),
(391,783,l),
(341,783,l),
(341,-81,l)
);
}
);
width = 617;
}
);
unicode = 36;
},
{
glyphname = euro;
lastChange = "2026-06-02 03:29:06 +0000";
layers = (
{
layerId = m01;
shapes = (
{
closed = 1;
nodes = (
(631,492,l),
(674,642,l),
(600,690,o),
(525,714,o),
(451,714,cs),
(252,714,o),
(128,573,o),
(128,357,cs),
(128,136,o),
(237,-8,o),
(456,-8,cs),
(528,-8,o),
(614,16,o),
(673,64,c),
(649,209,l),
(633,209,l),
(587,85,o),
(532,22,o),
(462,22,cs),
(353,22,o),
(298,136,o),
(298,365,cs),
(298,578,o),
(351,684,o),
(457,684,cs),
(528,684,o),
(581,620,o),
(616,492,c)
);
},
{
closed = 1;
nodes = (
(61,400,l),
(550,400,l),
(563,437,l),
(74,437,l)
);
},
{
closed = 1;
nodes = (
(40,291,l),
(519,291,l),
(532,328,l),
(53,328,l)
);
}
);
width = 714;
}
);
unicode = 8364;
},
{
glyphname = hryvnia;
lastChange = "2026-06-02 03:29:24 +0000";
layers = (
{
layerId = m01;
shapes = (
{
closed = 1;
nodes = (
(433,-10,o),
(516,67,o),
(505,214,c),
(372,214,l),
(383,80,o),
(356,14,o),
(289,14,c),
(234,14,o),
(206,65,o),
(206,152,c),
(209,322,o),
(507,345,o),
(508,542,c),
(508,642,o),
(427,707,o),
(287,707,c),
(143,707,o),
(80,648,o),
(87,509,c),
(213,509,l),
(204,627,o),
(231,684,o),
(286,684,c),
(331,684,o),
(368,634,o),
(368,567,c),
(368,416,o),
(64,383,o),
(64,172,c),
(64,71,o),
(139,-10,o),
(290,-10,c)
);
},
{
closed = 1;
nodes = (
(124,388,l),
(132,419,l),
(532,419,l),
(532,451,l),
(40,451,l),
(40,388,l)
);
},
{
closed = 1;
nodes = (
(448,341,l),
(440,310,l),
(40,310,l),
(40,278,l),
(532,278,l),
(532,341,l)
);
}
);
width = 572;
}
);
unicode = 8372;
},
{
glyphname = sterling;
lastChange = "2026-06-02 03:30:12 +0000";
layers = (
{
layerId = m01;
shapes = (
{
closed = 1;
nodes = (
(487,490,l),
(552,617,l),
(485,681,o),
(412,713,o),
(331,713,c),
(170,713,o),
(90,644,o),
(90,506,c),
(86,411,o),
(169,301,o),
(169,199,c),
(168,134,o),
(128,75,o),
(51,24,c),
(51,2,l),
(524,2,l),
(525,218,l),
(515,218,l),
(455,121,l),
(191,121,l),
(261,183,o),
(295,244,o),
(295,306,c),
(295,378,o),
(250,464,o),
(244,550,cs),
(239,624,o),
(266,686,o),
(331,686,c),
(389,686,o),
(428,620,o),
(446,490,c)
);
},
{
closed = 1;
nodes = (
(40,334,l),
(418,334,l),
(418,371,l),
(40,371,l)
);
}
);
width = 592;
}
);
unicode = 163;
},
{
glyphname = won;
lastChange = "2026-06-02 03:29:56 +0000";
layers = (
{
layerId = m01;
shapes = (
{
ref = W;
},
{
closed = 1;
nodes = (
(374,413,l),
(101,413,l),
(101,336,l),
(185,336,l),
(174,367,l),
(374,367,l)
);
},
{
closed = 1;
nodes = (
(471,223,l),
(129,223,l),
(129,177,l),
(471,177,l)
);
},
{
closed = 1;
nodes = (
(914,367,l),
(1028,367,l),
(1028,413,l),
(932,413,l)
);
},
{
closed = 1;
nodes = (
(678,177,l),
(1010,177,l),
(1010,254,l),
(927,254,l),
(914,223,l),
(668,223,l)
);
}
);
width = 1117;
}
);
unicode = 8361;
},
{
glyphname = yen;
lastChange = "2026-06-02 03:29:37 +0000";
layers = (
{
layerId = m01;
shapes = (
{
closed = 1;
nodes = (
(556,217,l),
(556,257,l),
(119,257,l),
(119,217,l)
);
},
{
ref = Y;
},
{
closed = 1;
nodes = (
(556,127,l),
(556,167,l),
(119,167,l),
(119,127,l)
);
}
);
width = 675;
}
);
unicode = 165;
},
{
glyphname = plus;
lastChange = "2026-05-25 23:00:55 +0000";
layers = (
{
layerId = m01;
shapes = (
{
closed = 1;
nodes = (
(209,96,l),
(300,96,l),
(300,535,l),
(209,535,l)
);
},
{
closed = 1;
nodes = (
(40,361,l),
(40,270,l),
(469,270,l),
(469,361,l)
);
}
);
width = 509;
}
);
unicode = 43;
},
{
glyphname = minus;
lastChange = "2026-05-25 23:01:00 +0000";
layers = (
{
layerId = m01;
shapes = (
{
closed = 1;
nodes = (
(40,361,l),
(40,270,l),
(427,270,l),
(427,361,l)
);
}
);
width = 467;
}
);
unicode = 8722;
},
{
glyphname = multiply;
lastChange = "2026-05-27 03:24:01 +0000";
layers = (
{
layerId = m01;
shapes = (
{
closed = 1;
nodes = (
(104,484,l),
(40,420,l),
(313,147,l),
(377,211,l)
);
},
{
closed = 1;
nodes = (
(40,211,l),
(104,147,l),
(377,420,l),
(313,484,l)
);
}
);
width = 417;
}
);
unicode = 215;
},
{
glyphname = equal;
lastChange = "2026-05-25 23:01:14 +0000";
layers = (
{
layerId = m01;
shapes = (
{
closed = 1;
nodes = (
(40,456,l),
(40,365,l),
(427,365,l),
(427,456,l)
);
},
{
closed = 1;
nodes = (
(40,269,l),
(40,178,l),
(427,178,l),
(427,269,l)
);
},
{
closed = 1;
nodes = (
(40,456,l),
(40,365,l),
(427,365,l),
(427,456,l)
);
}
);
width = 467;
}
);
unicode = 61;
},
{
glyphname = notequal;
lastChange = "2026-05-25 23:01:20 +0000";
layers = (
{
layerId = m01;
shapes = (
{
ref = equal;
},
{
attr = {
lineCapEnd = 4;
lineCapStart = 4;
strokeWidth = 70;
};
closed = 0;
nodes = (
(360,528,l),
(112,103,l)
);
}
);
width = 467;
}
);
unicode = 8800;
},
{
glyphname = less;
lastChange = "2026-05-25 23:07:15 +0000";
layers = (
{
layerId = m01;
shapes = (
{
closed = 1;
nodes = (
(432,532,l),
(40,330,l),
(40,274,l),
(432,65,l),
(432,176,l),
(140,302,l),
(432,421,l)
);
}
);
width = 472;
}
);
unicode = 60;
},
{
glyphname = lessequal;
lastChange = "2026-05-25 23:07:53 +0000";
layers = (
{
layerId = m01;
shapes = (
{
closed = 1;
nodes = (
(432,445,l),
(40,330,l),
(40,274,l),
(432,152,l),
(432,243,l),
(156,302,l),
(432,355,l)
);
},
{
attr = {
strokeWidth = 70;
};
closed = 0;
nodes = (
(50,90,l),
(432,90,l)
);
}
);
width = 472;
}
);
unicode = 8804;
},
{
glyphname = plusminus;
lastChange = "2026-05-25 23:09:14 +0000";
layers = (
{
layerId = m01;
shapes = (
{
closed = 1;
nodes = (
(209,233,l),
(300,233,l),
(300,518,l),
(209,518,l)
);
},
{
closed = 1;
nodes = (
(40,200,l),
(40,109,l),
(469,109,l),
(469,200,l)
);
},
{
closed = 1;
nodes = (
(40,421,l),
(40,330,l),
(469,330,l),
(469,421,l)
);
}
);
width = 509;
}
);
unicode = 177;
},
{
glyphname = approxequal;
lastChange = "2026-05-26 02:34:17 +0000";
layers = (
{
layerId = m01;
shapes = (
{
closed = 1;
nodes = (
(374,316,l),
(374,274,o),
(356,252,o),
(319,252,cs),
(268,253,o),
(229,319,o),
(159,319,cs),
(105,319,o),
(50,269,o),
(50,164,c),
(80,164,l),
(82,206,o),
(102,228,o),
(139,228,cs),
(181,228,o),
(234,159,o),
(299,159,cs),
(356,159,o),
(405,210,o),
(405,316,c)
);
},
{
closed = 1;
nodes = (
(364,489,l),
(364,447,o),
(346,425,o),
(309,425,cs),
(258,426,o),
(219,492,o),
(149,492,cs),
(95,492,o),
(40,442,o),
(40,337,c),
(70,337,l),
(72,379,o),
(92,401,o),
(129,401,cs),
(171,401,o),
(224,332,o),
(289,332,cs),
(346,332,o),
(395,383,o),
(395,489,c)
);
}
);
width = 445;
}
);
unicode = 8776;
},
{
glyphname = asciitilde;
lastChange = "2026-05-17 22:55:04 +0000";
layers = (
{
layerId = m01;
shapes = (
{
closed = 1;
nodes = (
(459,443,l),
(458,389,o),
(435,360,o),
(388,360,cs),
(321,362,o),
(271,447,o),
(181,447,cs),
(111,447,o),
(40,382,o),
(40,251,c),
(79,247,l),
(81,301,o),
(107,330,o),
(155,330,cs),
(209,330,o),
(278,240,o),
(362,240,cs),
(435,240,o),
(498,306,o),
(498,439,c)
);
}
);
width = 538;
}
);
unicode = 126;
},
{
glyphname = logicalnot;
lastChange = "2026-05-26 03:01:38 +0000";
layers = (
{
layerId = m01;
shapes = (
{
attr = {
strokeWidth = 80;
};
closed = 0;
nodes = (
(40,351,l),
(449,351,l),
(449,182,l)
);
}
);
width = 529;
}
);
unicode = 172;
},
{
glyphname = asciicircum;
lastChange = "2026-05-26 00:35:19 +0000";
layers = (
{
layerId = m01;
shapes = (
{
closed = 1;
nodes = (
(204,701,l),
(40,347,l),
(122,347,l),
(221,584,l),
(325,347,l),
(407,347,l),
(239,701,l)
);
}
);
width = 447;
}
);
unicode = 94;
},
{
glyphname = infinity;
lastChange = "2026-05-18 00:37:48 +0000";
layers = (
{
layerId = m01;
shapes = (
{
closed = 1;
nodes = (
(234,101,o),
(285,132,o),
(332,194,c),
(383,132,o),
(431,101,o),
(484,101,cs),
(552,101,o),
(624,156,o),
(624,265,cs),
(624,374,o),
(552,427,o),
(484,427,cs),
(431,429,o),
(391,395,o),
(332,335,c),
(277,395,o),
(239,427,o),
(181,427,cs),
(116,427,o),
(40,374,o),
(40,265,cs),
(40,156,o),
(116,101,o),
(181,101,cs)
);
},
{
closed = 1;
nodes = (
(112,182,o),
(72,210,o),
(72,265,cs),
(72,320,o),
(112,347,o),
(150,347,cs),
(184,347,o),
(223,319,o),
(269,265,c),
(223,209,o),
(184,182,o),
(150,182,cs)
);
},
{
closed = 1;
nodes = (
(480,182,o),
(441,209,o),
(395,265,c),
(441,319,o),
(480,347,o),
(514,347,cs),
(552,347,o),
(592,320,o),
(592,265,cs),
(592,210,o),
(552,182,o),
(514,182,cs)
);
}
);
width = 664;
}
);
unicode = 8734;
},
{
glyphname = integral;
lastChange = "2026-05-17 23:59:04 +0000";
layers = (
{
layerId = m01;
shapes = (
{
closed = 1;
nodes = (
(458,612,l),
(458,704,l),
(429,724,o),
(396,733,o),
(361,733,cs),
(242,733,o),
(179,593,o),
(182,351,cs),
(184,161,o),
(214,-91,o),
(159,-91,cs),
(140,-91,o),
(131,-61,o),
(130,1,c),
(40,1,l),
(40,-91,l),
(69,-111,o),
(102,-120,o),
(137,-120,cs),
(256,-120,o),
(316,20,o),
(316,262,cs),
(316,452,o),
(284,704,o),
(339,704,cs),
(358,704,o),
(367,674,o),
(368,612,c)
);
}
);
width = 498;
}
);
unicode = 8747;
},
{
glyphname = increment;
lastChange = "2026-06-02 03:41:48 +0000";
layers = (
{
layerId = m01;
shapes = (
{
attr = {
strokeWidth = 80;
};
closed = 1;
nodes = (
(631,38,l),
(101,38,l),
(369,634,l)
);
}
);
width = 731;
}
);
unicode = 8710;
},
{
glyphname = product;
lastChange = "2026-05-26 03:29:20 +0000";
layers = (
{
layerId = m01;
shapes = (
{
attr = {
strokeWidth = 80;
};
closed = 0;
nodes = (
(90,-34,l),
(90,663,l),
(477,663,l),
(477,-34,l)
);
}
);
width = 567;
}
);
unicode = 8719;
},
{
glyphname = summation;
lastChange = "2026-05-25 03:20:37 +0000";
layers = (
{
backgroundImage = {
imagePath = "../../../Downloads/Gemini_Generated_Image_rdcb5ardcb5ardcb.png";
pos = (-1882,-1390);
scale = (2.8334,2.8334);
};
layerId = m01;
shapes = (
{
closed = 1;
nodes = (
(558,-19,l),
(570,144,l),
(541,144,l),
(531,57,o),
(482,13,o),
(379,13,cs),
(147,13,l),
(351,341,l),
(147,669,l),
(379,669,ls),
(482,669,o),
(531,625,o),
(541,538,c),
(570,538,l),
(558,701,l),
(40,701,l),
(40,679,l),
(242,341,l),
(40,3,l),
(40,-19,l)
);
}
);
width = 610;
}
);
unicode = 8721;
},
{
glyphname = radical;
lastChange = "2026-05-25 02:05:37 +0000";
layers = (
{
layerId = m01;
shapes = (
{
closed = 1;
nodes = (
(40,379,l),
(40,349,l),
(94,349,l),
(245,0,l),
(311,0,l),
(466,528,l),
(482,590,o),
(515,602,o),
(574,601,c),
(632,601,l),
(656,700,l),
(485,700,l),
(317,130,l),
(208,379,l)
);
}
);
width = 696;
}
);
unicode = 8730;
},
{
glyphname = partialdiff;
lastChange = "2026-05-18 00:10:13 +0000";
layers = (
{
layerId = m01;
shapes = (
{
closed = 1;
nodes = (
(108,560,l),
(107,643,l),
(152,683,o),
(208,702,o),
(273,702,c),
(422,702,o),
(511,564,o),
(511,315,c),
(505,137,o),
(422,-9,o),
(253,-9,c),
(111,-9,o),
(40,70,o),
(40,228,c),
(40,452,o),
(307,511,o),
(370,386,c),
(370,580,o),
(332,677,o),
(272,677,c),
(234,677,o),
(212,638,o),
(208,560,c)
);
},
{
closed = 1;
nodes = (
(347,391,o),
(319,418,o),
(284,418,c),
(228,418,o),
(179,356,o),
(179,232,c),
(179,89,o),
(204,17,o),
(255,17,c),
(332,17,o),
(370,123,o),
(370,335,c)
);
}
);
width = 551;
}
);
unicode = 8706;
},
{
glyphname = micro;
lastChange = "2026-06-02 03:39:34 +0000";
layers = (
{
layerId = m01;
shapes = (
{
closed = 1;
nodes = (
(280,-8,o),
(319,19,o),
(353,71,c),
(372,0,l),
(495,0,l),
(495,470,l),
(336,470,l),
(336,98,l),
(322,70,o),
(301,55,o),
(275,55,cs),
(232,55,o),
(210,93,o),
(210,169,cs),
(210,470,l),
(50,470,l),
(50,163,ls),
(50,48,o),
(102,-8,o),
(206,-8,cs)
);
},
{
closed = 1;
nodes = (
(541,0,l),
(541,14,l),
(486,39,l),
(481,0,l)
);
},
{
closed = 1;
nodes = (
(50,-134,l),
(210,-134,l),
(210,266,l),
(50,266,l)
);
}
);
width = 581;
}
);
unicode = 181;
},
{
glyphname = percent;
lastChange = "2026-05-25 20:51:39 +0000";
layers = (
{
layerId = m01;
shapes = (
{
closed = 1;
nodes = (
(590,-5,o),
(666,51,o),
(666,164,c),
(666,275,o),
(590,331,o),
(507,331,c),
(422,331,o),
(345,275,o),
(345,164,c),
(345,51,o),
(422,-5,o),
(507,-5,c)
);
},
{
closed = 1;
nodes = (
(472,23,o),
(459,81,o),
(459,164,c),
(459,247,o),
(472,303,o),
(507,303,c),
(542,303,o),
(555,247,o),
(555,164,c),
(555,81,o),
(542,23,o),
(507,23,c)
);
},
{
closed = 1;
nodes = (
(285,375,o),
(361,431,o),
(361,544,c),
(361,655,o),
(285,711,o),
(202,711,c),
(117,711,o),
(40,655,o),
(40,544,c),
(40,431,o),
(117,375,o),
(202,375,c)
);
},
{
closed = 1;
nodes = (
(167,403,o),
(154,461,o),
(154,544,c),
(154,627,o),
(167,683,o),
(202,683,c),
(237,683,o),
(250,627,o),
(250,544,c),
(250,461,o),
(237,403,o),
(202,403,c)
);
},
{
closed = 1;
nodes = (
(602,702,l),
(564,702,l),
(100,0,l),
(138,0,l)
);
}
);
width = 706;
}
);
unicode = 37;
},
{
glyphname = perthousand;
lastChange = "2026-05-25 01:29:36 +0000";
layers = (
{
layerId = m01;
shapes = (
{
closed = 1;
nodes = (
(951,-13,o),
(1027,43,o),
(1027,156,c),
(1027,267,o),
(951,323,o),
(868,323,c),
(783,323,o),
(706,267,o),
(706,156,c),
(706,43,o),
(783,-13,o),
(868,-13,c)
);
},
{
closed = 1;
nodes = (
(833,15,o),
(820,73,o),
(820,156,c),
(820,239,o),
(833,295,o),
(868,295,c),
(903,295,o),
(916,239,o),
(916,156,c),
(916,73,o),
(903,15,o),
(868,15,c)
);
},
{
closed = 1;
nodes = (
(285,375,o),
(361,431,o),
(361,544,c),
(361,655,o),
(285,711,o),
(202,711,c),
(117,711,o),
(40,655,o),
(40,544,c),
(40,431,o),
(117,375,o),
(202,375,c)
);
},
{
closed = 1;
nodes = (
(167,403,o),
(154,461,o),
(154,544,c),
(154,627,o),
(167,683,o),
(202,683,c),
(237,683,o),
(250,627,o),
(250,544,c),
(250,461,o),
(237,403,o),
(202,403,c)
);
},
{
closed = 1;
nodes = (
(602,702,l),
(564,702,l),
(100,0,l),
(138,0,l)
);
},
{
closed = 1;
nodes = (
(590,-5,o),
(666,51,o),
(666,164,c),
(666,275,o),
(590,331,o),
(507,331,c),
(422,331,o),
(345,275,o),
(345,164,c),
(345,51,o),
(422,-5,o),
(507,-5,c)
);
},
{
closed = 1;
nodes = (
(472,23,o),
(459,81,o),
(459,164,c),
(459,247,o),
(472,303,o),
(507,303,c),
(542,303,o),
(555,247,o),
(555,164,c),
(555,81,o),
(542,23,o),
(507,23,c)
);
}
);
width = 1067;
}
);
unicode = 8240;
},
{
glyphname = rightArrow;
lastChange = "2026-05-28 01:26:11 +0000";
layers = (
{
guides = (
{
pos = (362,543);
}
);
layerId = m01;
shapes = (
{
closed = 1;
nodes = (
(415,206,ls),
(395,192,o),
(383,187,o),
(379,219,cs),
(376,243,l),
(321,245,l),
(341,91,l),
(696,334,l),
(341,577,l),
(321,423,l),
(376,425,l),
(379,449,ls),
(383,481,o),
(395,476,o),
(415,462,cs),
(613,334,l)
);
},
{
closed = 1;
nodes = (
(520,368,l),
(40,368,l),
(40,300,l),
(520,300,l),
(645,308,l),
(645,360,l)
);
}
);
width = 736;
}
);
unicode = 8594;
},
{
glyphname = leftRightArrow;
lastChange = "2026-06-02 01:36:34 +0000";
layers = (
{
layerId = m01;
shapes = (
{
closed = 1;
nodes = (
(618,206,ls),
(598,192,o),
(586,187,o),
(582,219,cs),
(579,243,l),
(524,245,l),
(544,91,l),
(899,334,l),
(544,577,l),
(524,423,l),
(579,425,l),
(582,449,ls),
(586,481,o),
(598,476,o),
(618,462,cs),
(816,334,l)
);
},
{
closed = 1;
nodes = (
(723,368,l),
(243,368,l),
(243,300,l),
(723,300,l),
(848,308,l),
(848,360,l)
);
},
{
closed = 1;
nodes = (
(321,462,ls),
(341,476,o),
(353,481,o),
(357,449,cs),
(360,425,l),
(415,423,l),
(395,577,l),
(40,334,l),
(395,91,l),
(415,245,l),
(360,243,l),
(357,219,ls),
(353,187,o),
(341,192,o),
(321,206,cs),
(123,334,l)
);
},
{
closed = 1;
nodes = (
(91,308,l),
(216,300,l),
(696,300,l),
(696,368,l),
(216,368,l),
(91,360,l)
);
}
);
width = 939;
}
);
unicode = 8596;
},
{
glyphname = dottedCircle;
lastChange = "2026-06-02 22:51:06 +0000";
layers = (
{
anchors = (
{
name = bottom;
pos = (299,41);
},
{
name = center;
pos = (299,293);
},
{
name = ogonek;
pos = (430,79);
},
{
name = top;
pos = (300,556);
},
{
name = topright;
pos = (507,437);
}
);
layerId = m01;
shapes = (
{
closed = 1;
nodes = (
(545,363,o),
(552,382,o),
(546,398,cs),
(539,415,o),
(520,423,o),
(504,416,cs),
(487,410,o),
(479,391,o),
(487,374,cs),
(493,358,o),
(513,350,o),
(528,357,cs)
);
},
{
closed = 1;
nodes = (
(125,97,o),
(145,97,o),
(157,109,cs),
(170,122,o),
(170,142,o),
(157,154,cs),
(145,167,o),
(125,167,o),
(112,154,cs),
(100,142,o),
(100,122,o),
(112,109,cs)
);
},
{
closed = 1;
nodes = (
(113,184,o),
(121,203,o),
(113,220,cs),
(107,236,o),
(88,244,o),
(72,237,cs),
(55,231,o),
(48,212,o),
(54,196,cs),
(61,179,o),
(80,171,o),
(96,178,cs)
);
},
{
closed = 1;
nodes = (
(215,45,o),
(234,53,o),
(240,69,cs),
(248,85,o),
(240,104,o),
(223,110,cs),
(206,117,o),
(187,109,o),
(181,93,cs),
(174,77,o),
(182,58,o),
(198,51,cs)
);
},
{
closed = 1;
nodes = (
(318,32,o),
(331,46,o),
(331,62,cs),
(331,81,o),
(318,95,o),
(300,94,cs),
(282,95,o),
(269,81,o),
(269,62,cs),
(269,46,o),
(282,32,o),
(300,31,cs)
);
},
{
closed = 1;
nodes = (
(84,266,o),
(98,279,o),
(98,297,cs),
(98,315,o),
(84,328,o),
(66,328,cs),
(49,328,o),
(35,315,o),
(35,297,cs),
(35,279,o),
(49,266,o),
(66,266,cs)
);
},
{
closed = 1;
nodes = (
(88,349,o),
(107,357,o),
(113,374,cs),
(120,391,o),
(112,410,o),
(96,416,cs),
(80,423,o),
(61,415,o),
(54,399,cs),
(48,382,o),
(56,363,o),
(72,357,cs)
);
},
{
closed = 1;
nodes = (
(418,58,o),
(426,77,o),
(419,93,cs),
(414,110,o),
(395,118,o),
(377,110,cs),
(361,104,o),
(353,85,o),
(360,69,cs),
(365,52,o),
(385,45,o),
(401,51,cs)
);
},
{
closed = 1;
nodes = (
(125,427,o),
(145,427,o),
(157,440,cs),
(170,452,o),
(170,472,o),
(157,485,cs),
(145,497,o),
(125,497,o),
(112,485,cs),
(100,472,o),
(100,452,o),
(112,440,cs)
);
},
{
closed = 1;
nodes = (
(455,97,o),
(475,97,o),
(488,109,cs),
(500,122,o),
(500,142,o),
(488,154,cs),
(475,167,o),
(455,167,o),
(443,154,cs),
(430,142,o),
(430,122,o),
(443,109,cs)
);
},
{
closed = 1;
nodes = (
(239,490,o),
(247,510,o),
(240,525,cs),
(235,542,o),
(215,549,o),
(199,543,cs),
(182,536,o),
(174,517,o),
(181,501,cs),
(186,484,o),
(205,476,o),
(223,484,cs)
);
},
{
closed = 1;
nodes = (
(520,171,o),
(539,179,o),
(546,195,cs),
(552,212,o),
(544,231,o),
(528,237,cs),
(512,245,o),
(493,237,o),
(487,220,cs),
(480,203,o),
(488,184,o),
(504,178,cs)
);
},
{
closed = 1;
nodes = (
(551,266,o),
(565,279,o),
(565,297,cs),
(565,315,o),
(551,328,o),
(534,328,cs),
(516,328,o),
(502,315,o),
(502,297,cs),
(502,279,o),
(516,266,o),
(534,266,cs)
);
},
{
closed = 1;
nodes = (
(318,499,o),
(331,513,o),
(331,532,cs),
(331,548,o),
(318,562,o),
(300,563,cs),
(282,562,o),
(269,548,o),
(269,532,cs),
(269,513,o),
(282,499,o),
(300,500,cs)
);
},
{
closed = 1;
nodes = (
(380,478,o),
(401,478,o),
(412,490,cs),
(425,502,o),
(424,523,o),
(413,536,cs),
(399,548,o),
(378,547,o),
(367,535,cs),
(353,524,o),
(354,503,o),
(367,491,cs)
);
},
{
closed = 1;
nodes = (
(455,427,o),
(475,427,o),
(488,440,cs),
(500,452,o),
(500,472,o),
(488,485,cs),
(475,497,o),
(455,497,o),
(443,485,cs),
(430,472,o),
(430,452,o),
(443,440,cs)
);
}
);
width = 600;
}
);
unicode = 9676;
},
{
glyphname = lozenge;
lastChange = "2026-05-28 21:44:03 +0000";
layers = (
{
layerId = m01;
shapes = (
{
attr = {
strokePos = 1;
strokeWidth = 80;
};
closed = 1;
nodes = (
(40,319,l),
(249,5,l),
(458,319,l),
(249,627,l)
);
}
);
width = 498;
}
);
unicode = 9674;
},
{
glyphname = "brevecomb-cy";
lastChange = "2026-06-02 23:54:23 +0000";
layers = (
{
anchors = (
{
name = _top;
pos = (156,506);
},
{
name = top;
pos = (156,708);
}
);
layerId = m01;
shapes = (
{
closed = 1;
nodes = (
(264,708,l),
(249,687,o),
(220,664,o),
(187,659,cs),
(177,657,o),
(166,676,o),
(155,676,cs),
(143,676,o),
(132,657,o),
(121,659,cs),
(90,664,o),
(63,687,o),
(48,708,c),
(20,680,l),
(84,569,o),
(228,569,o),
(292,680,c)
);
}
);
width = 312;
}
);
},
{
glyphname = gravecomb;
lastChange = "2026-06-03 22:14:25 +0000";
layers = (
{
anchors = (
{
name = _top;
pos = (85,470);
},
{
name = top;
pos = (85,764);
}
);
layerId = m01;
shapes = (
{
closed = 1;
nodes = (
(65,578,l),
(10,764,l),
(136,764,l),
(159,699,l),
(124,686,o),
(116,669,o),
(125,637,c),
(142,578,l)
);
}
);
width = 169;
}
);
unicode = 768;
},
{
glyphname = acutecomb;
lastChange = "2026-06-03 22:14:20 +0000";
layers = (
{
anchors = (
{
name = _top;
pos = (85,470);
},
{
name = top;
pos = (85,764);
}
);
layerId = m01;
shapes = (
{
closed = 1;
nodes = (
(44,637,l),
(53,669,o),
(45,686,o),
(10,699,c),
(33,764,l),
(159,764,l),
(104,578,l),
(27,578,l)
);
}
);
width = 169;
}
);
unicode = 769;
},
{
glyphname = hungarumlautcomb;
lastChange = "2026-06-03 22:16:13 +0000";
layers = (
{
anchors = (
{
name = _top;
pos = (172,526);
},
{
name = top;
pos = (172,769);
}
);
layerId = m01;
shapes = (
{
closed = 1;
nodes = (
(236,642,l),
(246,668,o),
(241,685,o),
(223,691,c),
(177,704,l),
(200,769,l),
(346,769,l),
(271,583,l),
(214,583,l)
);
},
{
closed = 1;
nodes = (
(69,642,l),
(79,668,o),
(74,685,o),
(56,691,c),
(10,704,l),
(27,769,l),
(179,769,l),
(104,583,l),
(47,583,l)
);
}
);
width = 356;
}
);
unicode = 779;
},
{
glyphname = caroncomb.alt;
lastChange = "2026-06-02 22:46:34 +0000";
layers = (
{
anchors = (
{
name = _topright;
pos = (-23,849);
}
);
layerId = m01;
shapes = (
{
closed = 1;
nodes = (
(20,764,l),
(126,764,l),
(101,578,l),
(44,578,l)
);
}
);
width = 146;
}
);
},
{
glyphname = circumflexcomb;
lastChange = "2026-05-26 00:53:34 +0000";
layers = (
{
anchors = (
{
name = _top;
pos = (177,499);
},
{
name = top;
pos = (177,737);
}
);
layerId = m01;
shapes = (
{
closed = 1;
nodes = (
(20,567,l),
(177,737,l),
(334,567,l),
(322,553,l),
(177,621,l),
(32,553,l)
);
}
);
width = 354;
}
);
unicode = 770;
},
{
glyphname = brevecomb;
lastChange = "2026-05-26 00:58:55 +0000";
layers = (
{
anchors = (
{
name = _top;
pos = (156,506);
},
{
name = top;
pos = (156,708);
}
);
layerId = m01;
shapes = (
{
closed = 1;
nodes = (
(264,708,l),
(224,652,o),
(88,652,o),
(48,708,c),
(20,680,l),
(84,569,o),
(228,569,o),
(292,680,c)
);
}
);
width = 312;
}
);
unicode = 774;
},
{
glyphname = ringcomb;
lastChange = "2026-05-26 00:59:43 +0000";
layers = (
{
anchors = (
{
name = _top;
pos = (108,499);
},
{
name = top;
pos = (108,735);
}
);
layerId = m01;
shapes = (
{
attr = {
strokePos = 1;
strokeWidth = 50;
};
closed = 1;
nodes = (
(156,560,o),
(195,599,o),
(195,648,cs),
(195,696,o),
(156,735,o),
(108,735,cs),
(59,735,o),
(20,696,o),
(20,648,cs),
(20,599,o),
(59,560,o),
(108,560,cs)
);
}
);
width = 215;
}
);
unicode = 778;
},
{
glyphname = macroncomb;
lastChange = "2026-05-26 01:01:02 +0000";
layers = (
{
anchors = (
{
name = _top;
pos = (157,512);
},
{
name = top;
pos = (157,690);
}
);
layerId = m01;
shapes = (
{
attr = {
strokeWidth = 70;
};
closed = 0;
nodes = (
(20,655,l),
(294,655,l)
);
}
);
width = 314;
}
);
unicode = 772;
},
{
glyphname = hookabovecomb;
lastChange = "2026-06-01 22:14:06 +0000";
layers = (
{
anchors = (
{
name = _top;
pos = (104,470);
},
{
name = top;
pos = (104,745);
}
);
layerId = m01;
shapes = (
{
closed = 1;
nodes = (
(113,560,l),
(113,572,l),
(113,598,o),
(198,601,o),
(198,678,c),
(198,719,o),
(167,745,o),
(103,745,c),
(41,745,o),
(10,719,o),
(10,665,c),
(72,652,l),
(71,704,o),
(87,722,o),
(100,722,c),
(116,722,o),
(124,710,o),
(124,675,c),
(124,622,o),
(88,623,o),
(88,582,c),
(88,554,l)
);
}
);
width = 208;
}
);
unicode = 777;
},
{
glyphname = horncomb;
lastChange = "2026-06-02 03:00:51 +0000";
layers = (
{
anchors = (
{
name = _topright;
pos = (-10,470);
},
{
name = topright;
pos = (215,720);
}
);
layerId = m01;
shapes = (
{
closed = 1;
nodes = (
(52,522,o),
(142,543,o),
(142,597,c),
(139,596,o),
(136,596,o),
(132,596,cs),
(98,596,o),
(70,623,o),
(70,658,cs),
(70,693,o),
(98,720,o),
(132,720,cs),
(167,720,o),
(194,693,o),
(195,658,cs),
(197,552,o),
(116,509,o),
(16,497,c),
(10,515,l)
);
}
);
width = 205;
}
);
unicode = 795;
},
{
glyphname = cedillacomb;
lastChange = "2026-06-03 22:17:07 +0000";
layers = (
{
anchors = (
{
name = _bottom;
pos = (109,0);
},
{
name = bottom;
pos = (136,-197);
}
);
layerId = m01;
shapes = (
{
closed = 1;
nodes = (
(88,1,l),
(115,-54,ls),
(130,-84,o),
(130,-92,o),
(101,-96,cs),
(20,-108,l),
(47,-172,l),
(243,-172,l),
(139,1,l)
);
}
);
width = 263;
}
);
unicode = 807;
},
{
glyphname = ogonekcomb;
lastChange = "2026-06-03 22:17:33 +0000";
layers = (
{
anchors = (
{
name = _ogonek;
pos = (177,0);
}
);
layerId = m01;
shapes = (
{
closed = 1;
nodes = (
(23,-140,l),
(15,-162,o),
(26,-170,o),
(40,-172,c),
(162,-191,l),
(181,-148,l),
(139,-136,l),
(107,-128,o),
(105,-108,o),
(111,-90,c),
(136,1,l),
(90,1,l)
);
}
);
width = 201;
}
);
unicode = 808;
},
{
glyphname = strokeshortcomb;
lastChange = "2026-05-27 02:21:55 +0000";
layers = (
{
anchors = (
{
name = _center;
pos = (173,515);
}
);
layerId = m01;
shapes = (
{
attr = {
strokeWidth = 60;
};
closed = 0;
nodes = (
(326,515,l),
(20,515,l)
);
}
);
width = 346;
}
);
unicode = 821;
},
{
glyphname = strokelongcomb;
lastChange = "2026-05-27 02:26:21 +0000";
layers = (
{
anchors = (
{
name = _center;
pos = (379,515);
}
);
layerId = m01;
shapes = (
{
attr = {
strokeWidth = 60;
};
closed = 0;
nodes = (
(738,515,l),
(20,515,l)
);
}
);
width = 758;
}
);
unicode = 822;
},
{
glyphname = slashshortcomb;
lastChange = "2026-05-27 02:45:22 +0000";
layers = (
{
anchors = (
{
name = _center;
pos = (218,401);
}
);
layerId = m01;
shapes = (
{
attr = {
lineCapEnd = 4;
lineCapStart = 4;
strokeWidth = 60;
};
closed = 0;
nodes = (
(400,561,l),
(62,217,l)
);
}
);
width = 462;
}
);
unicode = 823;
},
{
glyphname = slashlongcomb;
lastChange = "2026-05-27 02:21:55 +0000";
layers = (
{
anchors = (
{
name = _center;
pos = (195,235);
}
);
layerId = m01;
shapes = (
{
attr = {
identifier = ID0x31a4e2160;
lineCapEnd = "4";
lineCapStart = "4";
strokeWidth = 60;
};
closed = 0;
nodes = (
(336,533,l),
(53,-63,l)
);
}
);
width = 389;
}
);
unicode = 824;
},
{
glyphname = gravecomb.case;
lastChange = "2026-06-03 22:15:23 +0000";
layers = (
{
anchors = (
{
name = _top;
pos = (101,511);
},
{
name = top;
pos = (101,764);
}
);
layerId = m01;
shapes = (
{
closed = 1;
nodes = (
(77,580,l),
(10,742,l),
(172,742,l),
(189,677,l),
(143,664,l),
(125,658,o),
(120,641,o),
(130,615,c),
(144,580,l)
);
}
);
width = 199;
}
);
},
{
glyphname = acutecomb.case;
lastChange = "2026-06-03 22:15:35 +0000";
layers = (
{
anchors = (
{
name = _top;
pos = (98,523);
},
{
name = top;
pos = (98,766);
}
);
layerId = m01;
shapes = (
{
closed = 1;
nodes = (
(69,615,l),
(79,641,o),
(74,658,o),
(56,664,c),
(10,677,l),
(27,742,l),
(189,742,l),
(122,580,l),
(55,580,l)
);
}
);
width = 199;
}
);
},
{
glyphname = circumflexcomb.case;
lastChange = "2026-05-27 03:03:19 +0000";
layers = (
{
anchors = (
{
name = _top;
pos = (177,499);
},
{
name = top;
pos = (177,737);
}
);
layerId = m01;
shapes = (
{
closed = 1;
nodes = (
(20,557,l),
(177,705,l),
(334,557,l),
(322,543,l),
(177,611,l),
(32,543,l)
);
}
);
width = 354;
}
);
},
{
glyphname = caroncomb.case;
lastChange = "2026-06-01 22:51:20 +0000";
layers = (
{
anchors = (
{
name = _top;
pos = (177,499);
},
{
name = top;
pos = (177,737);
}
);
layerId = m01;
shapes = (
{
closed = 1;
nodes = (
(177,637,l),
(322,705,l),
(334,691,l),
(177,543,l),
(20,691,l),
(32,705,l)
);
}
);
width = 354;
}
);
},
{
glyphname = ringcomb.case;
lastChange = "2026-05-27 03:20:58 +0000";
layers = (
{
anchors = (
{
name = _top;
pos = (108,499);
},
{
name = top;
pos = (108,735);
}
);
layerId = m01;
shapes = (
{
attr = {
strokePos = 1;
strokeWidth = 50;
};
closed = 1;
nodes = (
(156,540,o),
(195,579,o),
(195,628,cs),
(195,676,o),
(156,715,o),
(108,715,cs),
(59,715,o),
(20,676,o),
(20,628,cs),
(20,579,o),
(59,540,o),
(108,540,cs)
);
}
);
width = 215;
}
);
},
{
glyphname = slashlongcomb.case;
lastChange = "2026-05-27 02:21:55 +0000";
layers = (
{
anchors = (
{
name = _center;
pos = (230,337);
}
);
layerId = m01;
shapes = (
{
attr = {
identifier = ID0x31a4e2160;
lineCapEnd = "4";
lineCapStart = "4";
strokeWidth = 60;
};
closed = 0;
nodes = (
(406,736,l),
(53,-63,l)
);
}
);
width = 459;
}
);
},
{
glyphname = apostrophemod;
lastChange = "2026-06-03 22:11:51 +0000";
layers = (
{
layerId = m01;
shapes = (
{
closed = 1;
nodes = (
(10,700,l),
(116,700,l),
(91,494,l),
(34,494,l)
);
}
);
width = 126;
}
);
unicode = 700;
},
{
glyphname = "punc-tittle";
lastChange = "2026-05-25 22:17:23 +0000";
layers = (
{
layerId = m01;
shapes = (
{
closed = 1;
nodes = (
(50,168,o),
(10,129,o),
(10,79,cs),
(10,30,o),
(50,-9,o),
(99,-9,cs),
(148,-9,o),
(188,30,o),
(188,79,cs),
(188,129,o),
(148,168,o),
(99,168,cs)
);
}
